<?xml version="1.0" standalone="no"?>
<!DOCTYPE svg PUBLIC "-//W3C//DTD SVG 1.1//EN" "http://www.w3.org/Graphics/SVG/1.1/DTD/svg11.dtd">
<svg xmlns="http://www.w3.org/2000/svg">
<metadata>Copyright (C) 2025 by original authors @ fontello.com</metadata>
<defs>
<font id="bircan-dashboard" horiz-adv-x="1000" >
<font-face font-family="bircan-dashboard" font-weight="400" font-stretch="normal" units-per-em="1000" ascent="850" descent="-150" />
<missing-glyph horiz-adv-x="1000" />
<glyph glyph-name="header-i-indirilenler" unicode="&#xe800;" d="M455 236v563c-2 17 6 34 21 44 20 13 48 8 62-13 4-7 7-15 7-23v-574c5 4 7 7 10 9l184 184c11 12 29 17 45 12 17-4 29-17 32-33 4-16-1-32-12-42-13-13-25-25-38-38l-228-229c-16-20-45-25-66-9-3 2-7 6-9 9l-265 265c-19 15-22 44-6 64 16 19 44 22 64 6 1-1 3-3 4-4 24-23 47-47 71-71l113-113c3-3 5-6 7-8l3 1m-363-295h818v182c-1 25 18 46 43 47 20 1 39-12 45-32 2-6 3-13 3-19 0-73 0-146 0-219 2-25-17-48-42-50-3 0-6 0-9 0h-898c-26-2-48 16-51 42 0 2 0 5 0 8 0 73 0 146 0 220-1 19 10 36 27 44 16 8 35 5 48-6 11-10 17-24 16-38 0-55 0-111 0-166v-13" horiz-adv-x="1000" />

<glyph glyph-name="icon-siparis-teslim" unicode="&#xe801;" d="M861 445c-13 19-26 32-44 38h-76v19h0c0 13-19 38-32 38h-6v95c38 0 69 25 50 82 0 13-12 25-19 44h7v38c0 19-13 32-32 38-13 0-25 0-38 13-32 0-70 6-108 0-12 0-19 0-25-19 0-19-6-25-13-32v-19c-38 0-76-12-114-19h-12c0 0-13-12 0-12 0-13 19-7 120 0 0 0 0-7-6-13 0-13-13-38-13-51s19-31 32-37v-26c0-25 19-44 38-50h25c0-19 0-32-6-45h-7c-6-12-12-19-19-31h0v-13h0c-25 0-44 0-38 0h0c-38 0-50-13-63-32 0-12-19-25-25-38h0s0 13-13 13c0 0-13 0-19 13 0 0-13 0-25 0v38c0 12-13 12-19 12 0 0 0 0-13-12 0 0-13-13-19-26h0s-12 0-19 0c-12 0-31 13-44 0s0-19-13-25c-12 0-19 0-25-13-13 13-19 19-25 26-13 0-19 12-32 0-13 0-13-13-19-19 0 0-13-19-13-26h0c-12 0-25 0-38-12h0v-19c-6 0-6 0-12-13h-38c-7 0 0-38 6-44-6 0-13-7-25-19 0 0 0-13-13-19 0-13 0-26 19-38h-25c0-7 0-13 0-19 44-44 82-114 120-139 19-13 38-26 51-26-19-6-26-12-38-19h0c12-25 31-50 57-57h12c0-44-19-76-31-107h38q0 12 19 50v-57c12-19 38-12 63 0 25 7 57 19 82 38 32 19 32 32 13 51 0 0 0 6-19 25 0 0 0 0 12 0 7 0 26-12 45-31v-26h0c0-6 12-6 19-12 69-13 133-13 126-13 152-6 228 0 266 0s25 0 32 19v44h0c0 171-7 197-7 222s0 19-6 25h0v108c0 44 6 95-13 133h7z m-44 32c12 0 31-13 37-32 19-38 13-89 13-133v-120s-6-13-13-13c0 0-12-12-50-19 0 7 0 13 6 19h7c6 13 12 25 18 38h0s0-6-18-38c-45 25-95 44-140 44 0 0 7 26 13 32 25 82 25 76 25 82 19 64 32 83 64 140h38 0z m-374-494c38 6 51 0 82 6 0 0 89 0 146 7h32c25 6 44 25 57 50 6 13 12 32 19 45v-159h-7c-107-6-221-19-329 7h0v31h0v13z m266 25h-32c-63 0-145-6-145-6-32 0-45 0-83-6v101h38c51 6 146 6 165 32 6 6 13 19 13 25 6 25 19 50 25 76h19c44-19 70-38 89-57-26-63-38-133-89-152h0v-13z m-291 95c0 13 0 26 0 38 0 7 0 7-13 0-19-12-32-19-38-25h-13c13 25 19 32 38 82 19-6 32-19 45-31l12-13c0-19 0-25-19-51h0z m-7 0c-12 0-31 13-44 13 38 19 38 25 38 19 0-13 0-19 0-32z m32 171v70c0 63 25 88 57 133h38c-6-13-25-51-32-70-12-32-19-57-19-82s51 0 178 0h0c6 0-13 25 25 120v13c25 25 38 31 44 38h0c13 0 19 0 32 0-70-133-57-127-101-260h0c-7-25-19-51-26-76 0-6 0-12-12-25-19-19-114-25-165-25h-38v177h0l19-19z m146 253c12 0 88 38 101 76h6v-31h0v-38h0c0-19 0-38-6-51h-13c-6 0-12 0-25-19h0s-13 0-13-13c0 0-12-12-12-19-7 0-13-25-13-31v57h0s-6 0 0 38v25h-25z m-45-101h0c19 0 26 0 45 0v-38h0c6 13 6 25 12 38 19 0 38-13 57-13s0 0 7 0h0c-13-31-26-69-26-107h-164c0 44 25 95 44 139v-32h0l25 13z m-107-272v-57c0 0-13 0-13 6 13 26 13 38 19 51h-6z m272 392c6 0 13-12 19-19 6-12 13-19 13-31v-13h0c0 0-7-13-13-19h-6c-19-25-13-25-26-38h0v13c-6 19-19 25-25 31h25s7 0 13 0c6 0 13 13 13 26v31h0l-13 13z m-177 260c0 12 6 31 19 38h50c32 0 83 0 95-13 13 0 26 0 32-13 13-12 19-44 19-57h0c-139 19-203 13-203 19v19h-12z m-89-57h-38s-13 0 0 6c0 0 13 0 13 6 38 7 76 13 114 19 0 0 25 0 95-6-57-25-76-19-178-25h0z m89-101v82h19-19v25h31c7-13 19-13 38-13h19c13 0 19 19 19 32h32c13-25 19-57 32-63 12 19 31 0 31-26s-12-31-25-25h0v-38c-6-12-38-38-57-44-19 0-51-13-76 0s-38 44-32 76h-12z m50-133c-6-13 0-32 0-38h0s-19-26-38-38c0 50 13 63 26 82h12z m-139-70c13 19 25 32 63 32-31-45-50-70-57-133v-83c-12-25-25-50-44-63h-13c19 63 19 101 19 139v26h0c0 19 0 12 13 25h0c13 25 19 38 32 51h-13z m-234-190h0c13 0 19 19 25 32 0-7 13-13 26-13-13-6-32-13-51-19z m-133-19h0v32h6c0-7 7-7 13-7h0c13 0 25 7 25 13h13c0-6 0-13 0-25-25 0-51-7-76 0h0l19-13z m95 101h32c0-6 0-12-13-19 0-6 0-19-32-38 0-6 0 0-19 0h-12s-13-12-26-12h0c13 12 26 19 38 31h19c0 7-25 7-25 7v-13h0c-13-6-19-13-32-25 13 25 19 50 45 63h25z m0 45l-13 12h0l13-12h0z m120 25h0l-12 13h0l12-13h0z m-57-13h13c13 0 32 0 38 0 19-12 13-25 19-38-13 13-19 26-38 26h-25c0 0 19 0 19 0h0c12 0 19-13 31-26v-12h0-38c-12 0-25 6-31 12h-13c0 0 0 0-13 19h0c0 13 26 19 32 26h-6z m32-12h-19c0 0 19 0 19 0 0 0 0-13 0 0h0z m-82-95v12h0c0 13 0 13 12 19 0 0 0 13 0 19 0 0 0 13 13 0 0 0 0 0 13-6h0v-32h0c0-12 0-25-13-25h0c0 13 0 19-25 25h0v-12z m44 50s0 0-13 7h13z m-6 13h0z m-7 0h-19q0 0 13 13h13c0 0-7-13-7-13z m-69-51h19-19z m-32 19h0v19h0v-19h0z m32-50c0 0 12 0 19 6 0 0 0 6 12 13h0c0 0 13 0 19-7 0 0 0-12 0-19h0c-12 0-19-12-50-19q0 13 0 26h0z m126 12c-12 0-25 0-31 13h0v44h25c13 0 19 0 32 7h0c0-7 0-13 19-26h0c-13-12-32-19-51-25h0v-13z m51 32c-25 6-19 19-25 32h12c0 0 25 6 25 19h0v12h13l13-12h0v-13c0-13-19-19-32-25 0 0-12-7-19-13h13z m57 44h12c0 0 0 0 0 0h0z m0 76s12 0 19 0c0 0 0-12 0-19h0c0 0-13-19-13-19l-19-19c-13 13-19 19-25 19 0 0 0 0 0 13v19s12 13 25 13h0z m-57 32s0 0 12 0 13 0 13 0v-13c0 0 0-19 0-50q0 0 0-13h0c0 0 0-25-13-32h0c0 19 0 38 13 51h0l13 13h0c0 0 0 0-13 0h0l-13-19h0c0-19 0-26 0-45 0 26-18 51 0 76h0s0 0 13 26h0z m6-57h0l13 19h0s0-19-13-19h0z m-95 25c0 0 0 13 0 19 0 0 19 0 26 0 12 0 19 0 31-12 0-13 0-32 0-45h0c0 0-12 19-12 19h-45v26h-6z m-25-19h0s13 0 19 13v-25c-13 0-25-13-32-26h0c0 0 0-12-12-25h0c0 25 0 51 19 63h6z m-76 19c0 13 13 19 25 13 13 0 32-19 38-32-12-12-19-31-19-44v13c0 12 0 0 0 0l-12 12h0v-12h0c-13 0-26 0-38 0 0 12 12 25 12 25h0v19z m-51-44c19 13 38 13 45 13h12c26 0 45-26 45-45s0 0 0-12h0c0 12 0 19-19 25h0c0 0-13 19-13 19h-13v-13h0c13-12 13-19 19-12 0 0 13-13 13-26h-13c0 7 0 13-12 19 0 13-19 26-32 26s-19 0-25-13v13h0z m64-13l-13 13h0l13-13h0z m-51 0c19 13 25 13 44-12 0-13 0-19 13-19h0c-13 0-25-19-32-32h0c0 13 0 19 0 32h-6c-6 0 0 0 0 0h0q0-7-6-7c-7 7-13 7-19 13h0s0 0 19 19h-13z m-70-25h45c19 0 31-19 38-38 0-19 0-25-13-38 0 19 0 25-6 44h0s0 7-13 26h-6l12-19h0v-51h0s-6 13-12 6h0c-13 7-19 7-32 19l-13 19h0c0 19 0 32 0 38h7z m57-32v19q-6 0 0 0c7-12 13-19 7-19h-7z m-82-25c6 6 13 13 25 13 0-7 0-13 7-19h6c6-7 19-13 25-19h0v-32h-38s0 0-12 6c-19 13-13 32 0 45h-7z m82-133c-19 25-38 44-57 70h0c38 0 83 0 133 6h0c32 6 51 13 57 13h0c38 12 76 31 114 57 0 0 38 19 57 38l13 12v-57c0-31 0-82-26-120-12-31-25-38-31-63-13 0-25 0-25-6 0 0 0-13 0-13-13 0-13-6-13-13h-19c-19 0-38-12-57-19h-32c-57 26-69 45-114 95h0z m216-95h0c0 7 0 13 12 19h0s0 0 13 7c0 0 19-7 19-13h0c-13-6-19-13-38-13h0z m-7 7h0c-19 0-25 0-31-7 0 0 19 13 25 13h0z m-139-38q0 0 25 12c19 13 51 26 76 19h0c-12-6-31-12-44-19 0 0-13 0-13-6 0 0 0-13 13-13h38c-32 0-38 0-51-12 0 0 0-13 0-13 0-6 26-6 38-6h0s-12 0-12-13c-26 6-45 25-51 51h-19z m76-165h-32c13 32 26 63 32 101h13v-12h12s-25-76-31-83h6z m177 70c13-19 19-26-13-45-25-19-50-25-82-38-19 0-44-12-50 0s0 13 0 19v70c19 0 88 13 120 19 12-19 19-25 19-32h0z m-145 12h-13c0 13 32 19 38 19h19c0 7-13 7-13 7-25 0-50-13-57-13h-12s0 6 12 13c19 6 32 6 51 12 13 0 19 0 13 7h-89c13 6 19 0 82 12h-88 0c44 13 57 19 88 26 13 0 26 0 38 12h0c0 13-25 13-31 26s0 0 0 0c63 6 101-19 120-26v-101h-26c-57-13-145-25-158-25h0l19 31z m145 26c19 0 25 0 32 6v-32c-13 7-19 13-38 26h0z m487-64h0c0-12-25-12-38-12-37 0-164-19-335 0-19 0-32 0-51 6h-12c0 0 0 19 0 32 107-26 221-19 329-7 38 0 76 7 114 19v-38h0z m-12 285c6-6 0-19 0-25 6-70 6-139 6-209-32-13-69-13-107-13h0v171c0 13 6 26 12 38 38 0 57 13 57 19 13 6 19 13 19 25h13z m-266 456h0s-6 0-13-13h-38c-12 0 0 0 0 0h38c7 0 13 0 13 13h0z m0 69h19-19z m6-31s7 0 7 12 0 13-7 13-6 0-6-13 0-12 6-12z m-69 25s-7 0-7-13 0-12 7-12 6 0 6 12 0 13-6 13z m12-588h0l76 25h0v114h-139v-114h0l70-25h-7z m76 25l-69-25-70 25v107h0c13-6 25-12 38-12h63c13 0 32 12 38 12h0v-107h0z m-493 424c0-25 25-44 44-57l76-25c0 0 19 0 19 0 0 0 32 63 32 69 12 26 0 51 0 70s-45 25-70 0h0c-13 0-19-19-19-32h0c-13 13-38 13-51 0-12-12-25-25-25-44h0v13z m12 177h0c0 0-12-6-19-13h0c-12 26-57 19-50-19 0-19 12-25 19-31l25-25h13s31 25 38 31c12 13 19 25 12 38 0 13-19 25-38 19h0z m551-76h0c0 0 0-12 0 0s13 13 0 19c-6 0-6 19 0 19h0c0 0 0 13-13 13s-19-19-6-26h0l19-19z m-114-19h0c-19 0-25 0-25 25s0 19 6 32h0c0-13 0-19-6-32 0-25 6-25 25-25z" horiz-adv-x="892" />

<glyph glyph-name="header-i-yeni-profil" unicode="&#xe802;" d="M175 25c29-29 58-54 96-71l-21-37c-37 20-71 50-104 79l29 29z m-117 442l-41 8c-13-42-17-83-17-125h13 29c0 38 4 79 16 117z m-41-250c12-42 29-84 50-121l37 21c-21 33-37 71-46 108l-41-8z m158 454l-33 29c-29-29-54-67-75-104l37-21c17 38 42 67 71 96z m325 137c38 0 75-4 113-12l8 42c-38 8-79 12-121 12h-8v-42h8z m-125-16l-12 41c-42-12-84-29-121-50l21-37c37 21 75 33 112 46z m254-884l13-41c41 12 83 29 121 54l-21 37c-38-21-75-37-113-50z m-129-16c-42 0-79 4-117 16l-12-41c42-13 83-17 129-17h13v42h-13z m429 716l-37-20c21-38 37-71 50-113l41 13c-16 41-33 83-54 120z m71-250h-42v-8c0-37-4-75-12-108l42-9c8 38 12 75 12 117v8z m-171-325l29-29c30 33 55 67 75 104l-37 21c-13-33-38-66-67-96z m-83 755l-21-38c33-21 67-42 96-71l29 29c-33 30-67 59-104 80z m-67-455v42h-162v167h-42v-163h-162v-41h162v-163h42v163l162-5 0 0z" horiz-adv-x="1000" />

<glyph glyph-name="icon-siparis-teslim-v2" unicode="&#xe803;" d="M861 445c-13 19-26 32-44 38h-76v19h0c0 13-19 38-32 38h-6v95c38 0 69 25 50 82 0 13-12 25-19 44h7v38c0 19-13 32-32 38-13 0-25 0-38 13-32 0-70 6-108 0-12 0-19 0-25-19 0-19-6-25-13-32v-19c-38 0-76-12-114-19h-12c0 0-13-12 0-12 0-13 19-7 120 0 0 0 0-7-6-13 0-13-13-38-13-51s19-31 32-37v-26c0-25 19-44 38-50h25c0-19 0-32-6-45h-7c-6-12-12-19-19-31h0v-13h0c-25 0-44 0-38 0h0c-38 0-50-13-63-32 0-12-19-25-25-38h0s0 13-13 13c0 0-13 0-19 13 0 0-13 0-25 0v38c0 12-13 12-19 12 0 0 0 0-13-12 0 0-13-13-19-26h0s-12 0-19 0c-12 0-31 13-44 0s0-19-13-25c-12 0-19 0-25-13-13 13-19 19-25 26-13 0-19 12-32 0-13 0-13-13-19-19 0 0-13-19-13-26h0c-12 0-25 0-38-12h0v-19c-6 0-6 0-12-13h-38c-7 0 0-38 6-44-6 0-13-7-25-19 0 0 0-13-13-19 0-13 0-26 19-38h-25c0-7 0-13 0-19 44-44 82-114 120-139 19-13 38-26 51-26-19-6-26-12-38-19h0c12-25 31-50 57-57h12c0-44-19-76-31-107h38q0 12 19 50v-57c12-19 38-12 63 0 25 7 57 19 82 38 32 19 32 32 13 51 0 0 0 6-19 25 0 0 0 0 12 0 7 0 26-12 45-31v-26h0c0-6 12-6 19-12 69-13 133-13 126-13 152-6 228 0 266 0s25 0 32 19v44h0c0 171-7 197-7 222s0 19-6 25h0v108c0 44 6 95-13 133h7z m-44 32c12 0 31-13 37-32 19-38 13-89 13-133v-120s-6-13-13-13c0 0-12-12-50-19 0 7 0 13 6 19h7c6 13 12 25 18 38h0s0-6-18-38c-45 25-95 44-140 44 0 0 7 26 13 32 25 82 25 76 25 82 19 64 32 83 64 140h38 0z m-374-494c38 6 51 0 82 6 0 0 89 0 146 7h32c25 6 44 25 57 50 6 13 12 32 19 45v-159h-7c-107-6-221-19-329 7h0v31h0v13z m266 25h-32c-63 0-145-6-145-6-32 0-45 0-83-6v101h38c51 6 146 6 165 32 6 6 13 19 13 25 6 25 19 50 25 76h19c44-19 70-38 89-57-26-63-38-133-89-152h0v-13z m-291 95c0 13 0 26 0 38 0 7 0 7-13 0-19-12-32-19-38-25h-13c13 25 19 32 38 82 19-6 32-19 45-31l12-13c0-19 0-25-19-51h0z m-7 0c-12 0-31 13-44 13 38 19 38 25 38 19 0-13 0-19 0-32z m32 171v70c0 63 25 88 57 133h38c-6-13-25-51-32-70-12-32-19-57-19-82s51 0 178 0h0c6 0-13 25 25 120v13c25 25 38 31 44 38h0c13 0 19 0 32 0-70-133-57-127-101-260h0c-7-25-19-51-26-76 0-6 0-12-12-25-19-19-114-25-165-25h-38v177h0l19-19z m146 253c12 0 88 38 101 76h6v-31h0v-38h0c0-19 0-38-6-51h-13c-6 0-12 0-25-19h0s-13 0-13-13c0 0-12-12-12-19-7 0-13-25-13-31v57h0s-6 0 0 38v25h-25z m-45-101h0c19 0 26 0 45 0v-38h0c6 13 6 25 12 38 19 0 38-13 57-13s0 0 7 0h0c-13-31-26-69-26-107h-164c0 44 25 95 44 139v-32h0l25 13z m-107-272v-57c0 0-13 0-13 6 13 26 13 38 19 51h-6z m272 392c6 0 13-12 19-19 6-12 13-19 13-31v-13h0c0 0-7-13-13-19h-6c-19-25-13-25-26-38h0v13c-6 19-19 25-25 31h25s7 0 13 0c6 0 13 13 13 26v31h0l-13 13z m-177 260c0 12 6 31 19 38h50c32 0 83 0 95-13 13 0 26 0 32-13 13-12 19-44 19-57h0c-139 19-203 13-203 19v19h-12z m-89-57h-38s-13 0 0 6c0 0 13 0 13 6 38 7 76 13 114 19 0 0 25 0 95-6-57-25-76-19-178-25h0z m89-101v82h19-19v25h31c7-13 19-13 38-13h19c13 0 19 19 19 32h32c13-25 19-57 32-63 12 19 31 0 31-26s-12-31-25-25h0v-38c-6-12-38-38-57-44-19 0-51-13-76 0s-38 44-32 76h-12z m50-133c-6-13 0-32 0-38h0s-19-26-38-38c0 50 13 63 26 82h12z m-139-70c13 19 25 32 63 32-31-45-50-70-57-133v-83c-12-25-25-50-44-63h-13c19 63 19 101 19 139v26h0c0 19 0 12 13 25h0c13 25 19 38 32 51h-13z m-234-190h0c13 0 19 19 25 32 0-7 13-13 26-13-13-6-32-13-51-19z m-133-19h0v32h6c0-7 7-7 13-7h0c13 0 25 7 25 13h13c0-6 0-13 0-25-25 0-51-7-76 0h0l19-13z m95 101h32c0-6 0-12-13-19 0-6 0-19-32-38 0-6 0 0-19 0h-12s-13-12-26-12h0c13 12 26 19 38 31h19c0 7-25 7-25 7v-13h0c-13-6-19-13-32-25 13 25 19 50 45 63h25z m0 45l-13 12h0l13-12h0z m120 25h0l-12 13h0l12-13h0z m-57-13h13c13 0 32 0 38 0 19-12 13-25 19-38-13 13-19 26-38 26h-25c0 0 19 0 19 0h0c12 0 19-13 31-26v-12h0-38c-12 0-25 6-31 12h-13c0 0 0 0-13 19h0c0 13 26 19 32 26h-6z m32-12h-19c0 0 19 0 19 0 0 0 0-13 0 0h0z m-82-95v12h0c0 13 0 13 12 19 0 0 0 13 0 19 0 0 0 13 13 0 0 0 0 0 13-6h0v-32h0c0-12 0-25-13-25h0c0 13 0 19-25 25h0v-12z m44 50s0 0-13 7h13z m-6 13h0z m-7 0h-19q0 0 13 13h13c0 0-7-13-7-13z m-69-51h19-19z m-32 19h0v19h0v-19h0z m32-50c0 0 12 0 19 6 0 0 0 6 12 13h0c0 0 13 0 19-7 0 0 0-12 0-19h0c-12 0-19-12-50-19q0 13 0 26h0z m126 12c-12 0-25 0-31 13h0v44h25c13 0 19 0 32 7h0c0-7 0-13 19-26h0c-13-12-32-19-51-25h0v-13z m51 32c-25 6-19 19-25 32h12c0 0 25 6 25 19h0v12h13l13-12h0v-13c0-13-19-19-32-25 0 0-12-7-19-13h13z m57 44h12c0 0 0 0 0 0h0z m0 76s12 0 19 0c0 0 0-12 0-19h0c0 0-13-19-13-19l-19-19c-13 13-19 19-25 19 0 0 0 0 0 13v19s12 13 25 13h0z m-57 32s0 0 12 0 13 0 13 0v-13c0 0 0-19 0-50q0 0 0-13h0c0 0 0-25-13-32h0c0 19 0 38 13 51h0l13 13h0c0 0 0 0-13 0h0l-13-19h0c0-19 0-26 0-45 0 26-18 51 0 76h0s0 0 13 26h0z m6-57h0l13 19h0s0-19-13-19h0z m-95 25c0 0 0 13 0 19 0 0 19 0 26 0 12 0 19 0 31-12 0-13 0-32 0-45h0c0 0-12 19-12 19h-45v26h-6z m-25-19h0s13 0 19 13v-25c-13 0-25-13-32-26h0c0 0 0-12-12-25h0c0 25 0 51 19 63h6z m-76 19c0 13 13 19 25 13 13 0 32-19 38-32-12-12-19-31-19-44v13c0 12 0 0 0 0l-12 12h0v-12h0c-13 0-26 0-38 0 0 12 12 25 12 25h0v19z m-51-44c19 13 38 13 45 13h12c26 0 45-26 45-45s0 0 0-12h0c0 12 0 19-19 25h0c0 0-13 19-13 19h-13v-13h0c13-12 13-19 19-12 0 0 13-13 13-26h-13c0 7 0 13-12 19 0 13-19 26-32 26s-19 0-25-13v13h0z m64-13l-13 13h0l13-13h0z m-51 0c19 13 25 13 44-12 0-13 0-19 13-19h0c-13 0-25-19-32-32h0c0 13 0 19 0 32h-6c-6 0 0 0 0 0h0q0-7-6-7c-7 7-13 7-19 13h0s0 0 19 19h-13z m-70-25h45c19 0 31-19 38-38 0-19 0-25-13-38 0 19 0 25-6 44h0s0 7-13 26h-6l12-19h0v-51h0s-6 13-12 6h0c-13 7-19 7-32 19l-13 19h0c0 19 0 32 0 38h7z m57-32v19q-6 0 0 0c7-12 13-19 7-19h-7z m-82-25c6 6 13 13 25 13 0-7 0-13 7-19h6c6-7 19-13 25-19h0v-32h-38s0 0-12 6c-19 13-13 32 0 45h-7z m82-133c-19 25-38 44-57 70h0c38 0 83 0 133 6h0c32 6 51 13 57 13h0c38 12 76 31 114 57 0 0 38 19 57 38l13 12v-57c0-31 0-82-26-120-12-31-25-38-31-63-13 0-25 0-25-6 0 0 0-13 0-13-13 0-13-6-13-13h-19c-19 0-38-12-57-19h-32c-57 26-69 45-114 95h0z m216-95h0c0 7 0 13 12 19h0s0 0 13 7c0 0 19-7 19-13h0c-13-6-19-13-38-13h0z m-7 7h0c-19 0-25 0-31-7 0 0 19 13 25 13h0z m-139-38q0 0 25 12c19 13 51 26 76 19h0c-12-6-31-12-44-19 0 0-13 0-13-6 0 0 0-13 13-13h38c-32 0-38 0-51-12 0 0 0-13 0-13 0-6 26-6 38-6h0s-12 0-12-13c-26 6-45 25-51 51h-19z m76-165h-32c13 32 26 63 32 101h13v-12h12s-25-76-31-83h6z m177 70c13-19 19-26-13-45-25-19-50-25-82-38-19 0-44-12-50 0s0 13 0 19v70c19 0 88 13 120 19 12-19 19-25 19-32h0z m-145 12h-13c0 13 32 19 38 19h19c0 7-13 7-13 7-25 0-50-13-57-13h-12s0 6 12 13c19 6 32 6 51 12 13 0 19 0 13 7h-89c13 6 19 0 82 12h-88 0c44 13 57 19 88 26 13 0 26 0 38 12h0c0 13-25 13-31 26s0 0 0 0c63 6 101-19 120-26v-101h-26c-57-13-145-25-158-25h0l19 31z m145 26c19 0 25 0 32 6v-32c-13 7-19 13-38 26h0z m487-64h0c0-12-25-12-38-12-37 0-164-19-335 0-19 0-32 0-51 6h-12c0 0 0 19 0 32 107-26 221-19 329-7 38 0 76 7 114 19v-38h0z m-12 285c6-6 0-19 0-25 6-70 6-139 6-209-32-13-69-13-107-13h0v171c0 13 6 26 12 38 38 0 57 13 57 19 13 6 19 13 19 25h13z m-266 456h0s-6 0-13-13h-38c-12 0 0 0 0 0h38c7 0 13 0 13 13h0z m0 69h19-19z m6-31s7 0 7 12 0 13-7 13-6 0-6-13 0-12 6-12z m-69 25s-7 0-7-13 0-12 7-12 6 0 6 12 0 13-6 13z m12-588h0l76 25h0v114h-139v-114h0l70-25h-7z m76 25l-69-25-70 25v107h0c13-6 25-12 38-12h63c13 0 32 12 38 12h0v-107h0z m70 525h0c0 0 0-12 0 0s13 13 0 19c-6 0-6 19 0 19h0c0 0 0 13-13 13s-19-19-6-26h0l19-19z m-114-19h0c-19 0-25 0-25 25s0 19 6 32h0c0-13 0-19-6-32 0-25 6-25 25-25z" horiz-adv-x="892" />

<glyph glyph-name="iletisim-bilgileri" unicode="&#xe804;" d="M892 460c0-80-25-155-60-225-55-104-125-199-205-279-29-35-64-65-99-95-15-15-35-15-50 0l0 0c-105 85-195 190-270 300-45 69-80 149-94 229-35 215 104 414 319 454 199 35 394-90 444-289 10-25 15-60 15-95l0 0m-394-524c70 65 139 135 194 210 40 55 75 114 100 179 25 60 30 125 20 190-35 175-200 289-374 254-150-30-255-154-260-304 0-70 20-140 50-200 45-84 105-164 170-234 35-30 70-60 100-95m5 739c119 0 214-95 214-215s-95-215-214-215-215 95-215 215l0 0c0 120 95 215 215 215m139-215c0 80-59 145-139 145s-145-65-145-140 65-145 140-145l0 0c80 0 144 65 144 140" horiz-adv-x="1000" />

<glyph glyph-name="input-saat" unicode="&#xe805;" d="M499 850c276 0 501-223 501-499 1-276-223-501-499-501-276 0-500 223-501 499-1 276 223 500 499 501 0 0 0 0 0 0m429-464c-17 208-183 374-392 390v-12c0-20 0-39 0-58-1-20-18-35-37-35-16 1-30 13-33 28-1 5-2 11-2 16 0 20 0 41 0 61-208-17-373-182-390-390h68c12 0 24-6 30-16 8-11 9-25 3-36-6-12-18-20-32-20-23 0-46 0-68 0 15-208 180-374 388-392 1 1 1 2 1 3 0 22 0 44 0 66 0 14 7 26 18 33 17 10 39 4 49-13 3-6 5-12 5-18 0-24 0-47 0-71 209 16 375 182 391 392 0 0 0 0-1 0-22 0-45 0-68 0-15 0-29 9-34 23-7 18 1 39 19 46 5 2 10 3 15 3 23 0 46 0 70 0m-464 71c0 34 0 69 0 104-1 19 13 37 33 39 19 2 37-13 39-32 0-3 0-5 0-7 0-62 0-124 0-185 0-8 2-15 8-20 30-29 59-58 88-88 12-10 14-27 8-41-7-14-21-22-36-20-8 2-16 6-22 11-36 35-71 71-107 106-7 7-11 17-11 28 0 35 0 70 0 105" horiz-adv-x="1000" />

<glyph glyph-name="input-tarih" unicode="&#xe806;" d="M286 779h178c0 11 0 23 0 34 0 19 16 35 36 35 20 0 36-16 36-35 0 0 0 0 0 0 0-12 0-23 0-34h178c0 10 0 21 0 31-1 20 13 37 33 39 20 2 37-13 39-32 0-3 0-5 0-7 0-10 0-20 0-32h12c31 0 62 0 93 0 58 2 107-45 109-104 0-1 0-3 0-5 0-236 0-473 0-709 2-59-44-108-103-110-2 0-4 0-6 0-261 0-521 0-781 0-59-2-108 45-110 104 0 1 0 3 0 5 0 237 0 473 0 710-1 59 45 108 104 109 2 0 4 0 6 0 34 0 68 0 104 0 0 12 0 23 0 34-1 20 14 37 34 38 20 1 37-14 38-34 0-1 0-2 0-4 0-11 0-21 0-33m-72-72h-100c-30 0-43-13-43-44v-698c0-30 13-44 44-44h770c31 0 44 13 44 44 0 230-1 459 0 689 0 40-14 55-53 53-30-2-59 0-90 0 0-12 0-23 0-35 0-19-16-35-36-35-20 0-36 16-36 35 0 12 0 23 0 34h-178c0-11 0-22 0-33 1-19-14-36-34-38-19-1-36 14-38 34 0 1 0 2 0 4 0 11 0 22 0 33h-178c0-12 0-23 0-34 1-20-15-37-34-37s-37 14-37 34c-1 1-1 2 0 3 0 11 0 22 0 34m286-178c12 0 23 0 35 0 19 0 35-15 35-35 0-20-16-36-35-36 0 0 0 0 0 0-24 0-47 0-71 0-19 0-35 16-35 36s16 35 35 35c0 0 0 0 0 0 12 0 24 0 36 0m249-71c-12 0-24 0-36 0-19 0-35 16-35 35-1 20 15 36 34 36 1 0 1 0 1 0 24 1 48 1 72 0 20 0 36-15 36-35 0-20-16-36-35-36-13 0-25 0-37 0m-500-214c-12 0-24 0-36 0-19 0-35 16-35 35 0 20 15 36 35 36 0 0 0 0 0 0 24 0 48 0 73 0 19-1 35-17 34-37-1-18-16-33-34-34-13 0-25 0-37 0m250 0c-12 0-23 0-35 0-20-1-36 14-37 34-1 20 15 36 34 37 1 0 2 0 3 0 23 0 47 0 70 0 19 0 35-16 35-36 0-19-16-35-36-35-11 0-23 0-34 0m251 71c12 0 23 1 35 0 20 0 36-16 36-36 0-19-16-35-35-35-25 0-49 0-74 0-19 1-34 18-34 37 1 19 16 34 35 34 12 1 24 0 37 0m-501-285c-12 0-24-1-36 0-19 0-35 16-35 35 0 20 16 36 35 36 24 0 48 0 72 0 19 0 35-16 35-36 0-19-16-35-35-35-12-1-24 0-36 0m249 0c-11 0-22 0-33 0-20 0-36 15-36 35-1 20 15 36 35 36 23 0 47 0 70 0 20 0 36-16 36-36-1-20-17-35-36-35-12 0-24 0-36 0" horiz-adv-x="1000" />

<glyph glyph-name="input-week-indicator" unicode="&#xe807;" d="M500 68c-9 1-17 4-23 10l-467 451c-12 11-13 30-3 42 1 1 2 2 3 3l50 48c13 13 33 13 46 0 0 0 0 0 0 0l394-380 394 380c12 13 33 13 46 0 0 0 0 0 0 0l50-48c12-11 13-30 3-42-1-1-2-2-3-3l-467-451c-6-6-14-10-23-10" horiz-adv-x="1000" />

<glyph glyph-name="kart-etiketler" unicode="&#xe808;" d="M717 850c57 0 113 0 170 0 56 0 113-44 113-100 0-6 0-6 0-12 0-119 0-231 0-350 0-13-6-25-13-31-157-156-314-313-471-469-44-50-119-50-170-6l-6 6c-100 100-201 200-301 300-51 44-51 119-7 169l7 6c157 156 314 312 471 468 6 13 19 19 31 19 57 0 113 0 176 0m214-275c0 56 0 106 0 163 0 18-13 37-32 37h-6c-107 0-220 0-327 0-6 0-12 0-18-6-158-150-308-300-465-450-19-19-26-50-7-75l7-6 301-300c19-25 50-25 76-6l6 6c151 150 302 300 459 456 6 6 6 13 6 13 0 56 0 112 0 168m-289 25c0 56 50 106 107 106s106-50 106-106-50-106-106-106-107 50-107 106m107 38c-19 0-38-19-38-38s19-37 38-37 37 18 37 37l0 0c0 19-18 38-37 38" horiz-adv-x="1000" />

<glyph glyph-name="kart-gorsel-yukle-alan" unicode="&#xe809;" d="M70 295c4 4 7 7 10 10 34 34 70 70 104 107 13 16 33 20 50 6 3-3 3-3 6-6 27-27 54-54 80-80 4 3 7 7 10 7l177 176c13 16 33 19 50 9 3-3 7-6 10-9 57-57 113-113 173-173 17-13 17-37 3-50-3-7-10-10-20-10-13-3-26 0-36 13-47 47-94 93-140 140-4 3-7 6-10 10-4-4-7-7-10-10l-177-176c-13-17-33-20-50-10-3 3-7 7-10 10-23 26-50 53-76 76-4-3-4-3-7-6-43-44-87-87-130-130-3-3-7-10-7-17 0-26 0-53 0-79-3-20 13-37 33-40 4 0 7 0 7 0 140 0 280 0 420 0 20 3 37-13 40-33 0-7 0-10-3-17-4-13-17-23-30-23-4 0-7 0-7 0-140 0-280 0-420 0-60-3-110 43-110 103 0 3 0 6 0 10 0 216 0 425 0 637-3 57 43 107 103 110 4 0 7 0 10 0 210 0 420 0 634 0 60 3 110-43 110-103 0-3 0-7 0-7 0-139 0-282 0-421 0-20-14-37-34-37-16 0-33 10-36 30 0 3 0 10 0 13 0 136 0 276 0 412 0 30-14 43-44 43h-629c-20 3-40-10-44-30 0-3 0-6 0-13 0-143 0-286 0-428v-14z m717-229c0 37 0 73 0 107 0 16 10 29 23 33 13 6 30 0 37-10 6-7 6-17 10-27 0-33 0-70 0-103 3 0 6 0 10 0h90c26 0 43-13 43-36s-17-37-43-37h-100v-13c0-30 0-60 0-90 3-20-14-36-34-39-20-4-36 13-40 33 0 3 0 3 0 6 0 30 0 60 0 90v13h-53c-17 0-33 0-50 0-20-3-37 14-40 33-3 20 13 37 33 40 4 0 4 0 7 0 30 0 60 0 90 0l17 0m-467 429c-60 0-106 49-106 106 0 60 50 106 106 106s107-50 107-106l0 0c0-60-47-106-107-106m-33 106c0-20 13-37 33-37 20 0 37 14 37 34s-14 36-34 36l0 0c-20 3-36-13-36-33" horiz-adv-x="1000" />

<glyph glyph-name="kart-menu-arsivle" unicode="&#xe80a;" d="M216-144c-25 6-32 25-32 50 0 13 0 19 0 31-6 7-18 13-25 19-31 25-50 57-50 94 0 231 0 463 0 688 0 62 50 112 113 112 181 0 369 0 550 0 62 0 112-50 119-119 0-112 0-231 0-343-7-13-19-32-44-32-219 0-431 0-650 0-6 0-6 0-13 0 0-6 0-6 0-12 0-94 0-194 0-288 0-31 13-43 44-43 181 0 356 0 538 0 31 0 43 12 43 43 0 63 0 119 0 182 0 25 25 43 50 37 13-6 25-19 25-37 0-69 0-132 0-200 0-44-25-82-68-101-7 0-7-6-7-12 0-6 0-19 0-25 0-25-6-44-31-50-6 0-12 0-12 0-25 6-32 25-32 50 0 12 0 19 0 31-156 0-312 0-468 0 0-12 0-19 0-31 0-25-7-44-32-50-6 6-12 6-18 6z m-32 582c207 0 419 0 625 0 0 6 0 6 0 12 0 94 0 188 0 281 0 32-12 44-43 44-182 0-357 0-538 0-31 0-44-12-44-44 0-93 0-187 0-293l0 0z m313-319c-25 0-44 0-69 6-50 13-87 63-87 113 0 25 18 37 37 37 19 0 38-19 38-37 0-25 18-38 43-38 25 0 50 0 75 0s38 13 44 38c0 25 19 37 38 37s37-19 37-37c0-63-50-113-112-113-13-6-32 0-44-6l0 0z m0 425c-25 0-50 0-69 6-50 13-87 56-87 106 0 25 12 44 37 44s38-12 44-37c0-25 19-38 37-38 25 0 50 0 75 0s38 19 38 38c0 25 19 37 44 37 18 0 37-19 37-44 0-62-50-112-112-112-13 0-32 0-44 0l0 0z" horiz-adv-x="1000" />

<glyph glyph-name="kart-menu-arsivle-v2" unicode="&#xe80b;" d="M0 744c0 7 0 7 0 13 13 50 63 93 119 93s107 0 163 0c63 0 113-50 113-118 0-255 0-509 0-758 0-56-44-105-100-112 0 0 0 0-7 0h-181c0 0 0 0-7 0-50 7-87 44-94 87 0 7 0 13-6 19l0 776m313-391v379c0 19-12 44-37 44h-6c-51 0-101 0-151 0-19 0-44-13-44-38v-6c0-248 0-503 0-752 0-18 13-43 38-43h6 144c25-6 44 12 44 31 0 6 0 6 0 12v373m420-497c-12 0-19 6-31 6-32 13-50 38-63 62-56 137-113 280-175 417-7 18 0 43 18 49 19 7 44 0 51-18 0 0 0 0 0-6 56-137 112-274 169-410 6-19 25-38 50-32 6 0 6 0 12 7l132 56c19 6 38 24 31 49 0 6 0 6-6 13-94 230-182 459-276 689-6 19-25 31-50 31-6 0-6 0-12-6-13-6-32-12-57-19-19-12-37 0-50 19-6 19 0 44 19 50 0 0 0 0 6 0 19 6 44 18 63 25 56 25 125 0 150-62 0 0 0 0 0-7 44-93 88-192 126-292 50-130 106-267 156-397 25-56 0-131-56-155 0 0-6 0-6-7-44-18-88-37-138-55-13-7-25-7-38-13l-25 6z m56 180c-18 0-31 13-37 25-25 56-44 112-69 168-6 19-13 31-19 50s0 43 19 49c19 6 44 0 50-18 31-69 56-143 88-212 6-18 0-43-19-49 0-13-6-13-13-13m-263 597c0 18 19 37 38 37l0 0c19 0 37-19 37-37s-12-38-31-38c-25 0-44 19-44 38l0 0m-282-472c0-38 0-69 0-106 0-19-12-37-37-43 0 0 0 0-7 0-18 0-37 18-37 37l0 0c0 68 0 143 0 211 0 19 19 37 37 37s38-12 38-31c0-6 0-12 0-12 6-25 6-62 6-93m0 496c0-18-19-37-37-37l0 0c-19 0-38 19-38 37l0 0c0 19 19 38 38 38s31-19 37-38l0 0" horiz-adv-x="1000" />

<glyph glyph-name="kart-menu-duzenle" unicode="&#xe80c;" d="M0 677c0 13 6 19 6 31 25 80 101 142 189 142 126 0 252 0 377 0 19 0 38-12 44-37 0-19-12-37-37-43h-7c-125 0-251 0-371 0-63 0-119-50-126-111 0-7 0-7 0-13v-592c0-62 51-118 114-124 6 0 6 0 12 0 201 0 403 0 604 0 63 0 119 50 119 111v7c0 123 0 246 0 364 0 18 13 37 38 43l0 0c19 0 38-12 38-37l0 0c0-130 0-259 0-389-6-93-75-167-170-179h-6-648-6c-76 12-145 62-164 142 0 25-6 31-6 43v642m302-617c-19 0-38 6-57 6s-31 12-31 31c-25 99 6 197 75 265 132 136 271 266 403 395 12 13 25 25 38 31 44 44 113 56 169 31 57-24 101-80 95-142 0-37-13-74-38-105-6-6-6-6-13-12-138-136-276-272-408-401-44-50-107-81-170-93-25 0-44 0-63-6m384 580c-7 0-7 0 0 0-120-111-233-222-340-333-44-43-63-99-63-161 0-6 0-12 13-12 63 0 125 25 169 68 139 136 283 278 422 413l6 7c25 30 25 80-6 111-25 18-57 24-88 12-19-12-44-31-57-55 13-13 19-19 25-25 19-13 19-37 0-56-12-18-37-18-56 0l0 0c-13 13-19 25-25 31" horiz-adv-x="1000" />

<glyph glyph-name="kart-menu-kopya-olustur" unicode="&#xe80d;" d="M371-150c0 0-5 0-5 6-18 6-30 29-18 52 6 12 18 24 35 24 6 0 6 0 12 0h456c23-6 41 12 47 35 0 6 0 6 0 12 0 169 0 345 0 514 0 12-6 30-18 41-17 18-35 35-47 47-17 12-17 41-6 53 12 17 41 17 53 6 0 0 6 0 6-6 17-18 35-35 53-53 23-23 35-58 35-88 0-128 0-257 0-380v-140c0-59-41-111-100-123 0 0 0 0-6 0h-497z m-345 579c0 99 0 199 0 298 0 65 47 123 111 123 6 0 6 0 12 0 129 0 252 0 380 0 35 0 65-12 94-35 23-23 47-47 70-70 23-29 35-59 35-94 0-175 0-351 0-526 0-64-53-117-117-117h-6c-152 0-310 0-462 0-64 0-117 47-117 117v6c0 99 0 199 0 298m76 0v-298c0-24 12-41 35-41h6c152 0 304 0 462 0 24 0 41 11 41 35v6c0 175 0 351 0 520 0 12-6 24-11 35-24 24-47 47-71 70-11 12-23 18-35 18-128 0-251 0-380 0-23 0-41-12-47-35 0-6 0-6 0-12v-298m275 111c-52 0-105 0-158 0-17 0-29 12-35 29-6 18 0 35 18 41 6 6 12 6 23 6 105 0 205 0 310 0 18 0 35-17 35-35 0-23-17-41-35-41 0 0 0 0-6 0-47 0-99 0-152 0m0-82c53 0 105 0 158 0 18 0 35-11 35-29 6-18-6-35-17-41-6-6-12-6-24-6-99 0-204 0-310 0-17 0-35 18-35 35 0 18 18 41 35 41 0 0 0 0 6 0 47 0 100 0 152 0m-76-234c-23 0-47 0-76 0-23 0-41 12-41 35 0 24 12 41 35 41h6c53 0 100 0 152 0 24 0 41-11 41-35s-11-41-35-41h-6c-29 0-52 0-76 0" horiz-adv-x="1000" />

<glyph glyph-name="kart-menu-kunye-yazdir" unicode="&#xe80e;" d="M254-150c-18 6-37 12-56 25-31 25-49 56-49 93 0 150 0 305 0 454 0 44 12 81 43 119 75 87 143 174 218 267 50 56 130 56 180 0 75-87 143-174 218-267 31-38 44-75 44-125 0-149 0-299 0-448 0-56-38-106-100-118 0 0 0 0-6 0-162 0-324 0-492 0z m249 75c75 0 149 0 230 0 31 0 44 12 44 43 0 150 0 293 0 442 0 31-6 56-31 81-69 87-143 168-212 255-18 25-43 25-68 0-69-81-137-168-205-249-19-25-32-50-32-81 0-149 0-292 0-442 0-31 13-43 44-43 81-6 155-6 230-6z m0 305c-50 0-106 0-155 0-19 0-38 12-38 37 0 19 13 37 31 43h7c105 0 205 0 311 0 18 0 37-12 37-37 0-19-12-37-31-43-6 0-6 0-12 0-50 0-100 0-150 0z m0-156c-50 0-106 0-155 0-19 0-31 12-38 31-6 19 7 31 19 44 6 6 12 6 19 6 105 0 205 0 311 0 25 0 37-19 37-37 0-25-19-38-37-38-50-6-106-6-156-6z m37 498c0-19-18-38-37-38-25 0-37 19-37 38 0 25 19 37 37 37 19 0 37-12 37-37z" horiz-adv-x="1000" />

<glyph glyph-name="kart-menu-tumu-teslim-edildi" unicode="&#xe80f;" d="M0 638c0 12 6 31 13 43 25 100 118 169 218 169 182 0 357 0 538 0 125 0 231-106 231-231 0-63 0-125 0-188 0-18-12-43-37-43-19 0-44 12-44 37v6c0 63 0 119 0 182 0 75-50 137-125 156-13 0-19 0-31 0-175 0-350 0-525 0-88 0-157-69-157-156 0 0 0 0 0-7 0-175 0-350 0-531 0-87 69-156 157-156l0 0c62 0 131 0 193 0 19 0 38-12 44-37 0-7 0-13-6-19-13 0-19-6-31-13h-225-7c-93 13-168 75-193 169-7 13-13 31-13 44v575m738-788c-119-6-225 75-257 194-37 137 44 287 188 325 6 0 19 6 25 6 50 13 106 0 150-19 19-12 25-31 19-50-13-18-32-25-50-18-25 12-50 18-75 18-100 0-188-81-188-187 0-6 0-13 0-25 6-69 50-125 113-150 93-38 200 0 243 94v6c0 6 0 6 7 12 6 19 31 25 50 19 18-6 31-31 25-50-32-87-107-150-194-169-6 0-19 0-25-6-13 0-25 0-31 0m25 182c-25 0-50 6-63 25-19 18-44 43-62 62-13 13-13 38 0 56 12 13 37 13 56 0 19-18 31-37 50-50 12-12 25-12 37 0 50 50 94 100 144 150 13 6 31 13 44 6 19 0 31-25 31-43 0-7-6-13-12-19-7-6-19-19-25-25-44-44-82-81-125-125-19-25-44-37-75-37m-263 643c31 0 63 0 94 0 19 0 37-12 44-37s-13-38-38-44h-6c-63 0-131 0-194 0-19 0-37 12-44 37 0 7 0 13 0 13 13 19 32 31 44 31 38 0 69 0 100 0" horiz-adv-x="1000" />

<glyph glyph-name="kart-menu-whatsapp-listesi" unicode="&#xe810;" d="M0-129c0 6 0 11 0 16 1 2 2 3 2 5 18 73 36 145 54 217 1 5 0 11-2 16-22 44-38 91-46 140-3 18-5 36-8 54 0 21 0 41 0 62 1 12 3 24 4 36 14 93 49 176 109 249 79 95 179 154 301 176 18 4 36 6 55 8 21 0 41 0 62 0 3-1 6-1 9-2 38-2 75-9 110-21 188-66 303-197 342-392 4-18 6-36 8-54 0-21 0-41 0-62-1-3-1-5-2-8-4-26-6-52-12-78-44-190-207-343-400-375-18-3-36-6-55-8-21 0-41 0-62 0-3 1-5 1-8 2-66 5-128 22-187 52-5 2-11 3-16 1-50-11-99-24-148-36-24-6-49-13-73-19-5 0-10 0-16 0-9 5-16 12-21 21z m70 49c3 1 5 1 6 1 59 15 117 29 175 44 16 4 29 2 44-5 133-68 269-71 402-4 179 89 271 277 237 474-35 199-213 354-414 361-110 4-208-27-294-95-107-87-163-200-167-339-2-76 16-148 53-216 6-11 7-22 4-34-10-40-20-79-30-119-5-22-10-44-16-68z m141 573c0 61 37 120 92 143 39 16 74 10 104-18 21-20 40-41 53-66 22-42 15-80-21-110-11-9-21-18-33-25-7-5-8-10-3-17 13-20 26-41 41-60 26-33 59-61 96-82 19-11 19-11 32 6 8 10 16 20 24 29 25 29 58 37 93 23 38-15 68-41 91-75 24-34 19-78-9-115-40-52-93-71-157-64-57 7-108 31-156 61-106 65-181 156-228 271-13 30-20 61-19 99z m58 1c0-36 8-63 19-89 52-119 138-207 256-262 32-15 66-26 102-23 37 2 65 19 84 51 9 14 10 30-2 42-16 16-33 32-52 44-17 12-27 9-40-7-11-13-21-27-32-41-13-15-30-22-49-18-16 4-32 9-46 18-54 31-98 74-134 124-14 19-26 39-32 61-7 26-1 47 21 63 12 9 24 19 35 28 17 13 20 24 8 42-10 15-21 28-33 41-22 24-42 24-66 3-27-22-39-50-39-77z" horiz-adv-x="1000" />

<glyph glyph-name="kart-organizasyon-sahibi" unicode="&#xe811;" d="M104 133v176c-13 0-25 0-32 0-19 0-37 19-37 38 0 19 12 38 31 38l0 0c13 0 25 0 31 0v176h-25c-19 0-37 12-37 31 0 19 12 38 31 38h6 32v19c0 31 0 63 0 94 0 57 50 107 107 107h6c189 0 384 0 572 0 101 0 176-82 176-176 0-214 0-434 0-648 0-101-81-176-176-176-188 0-383 0-572 0-57 0-107 44-107 107 0 0 0 0 0 6 0 38 0 69 0 107-12 0-25 0-31 0-26-12-44 6-44 25 0 19 12 38 31 38 0 0 0 0 6 0 13 0 19 0 32 0m75-75c0-38 0-70 0-107 0-19 13-38 32-38 0 0 0 0 6 0 189 0 384 0 572 0 57 0 107 50 107 107l0 0c0 214 0 434 0 648 0 56-44 107-107 107l0 0c-188 0-383 0-572 0-19 0-38-13-38-32v-6c0-32 0-63 0-94 0 0 0-7 0-13 13 0 25 0 32 0 19 0 37-13 37-31s-12-38-31-38c0 0 0 0-6 0-13 0-25 0-32 0v-183c13 0 19 0 32 0 19 0 37-12 37-31 0-19-12-38-31-38h-6-32v-182h13c38 0 56-13 56-38s-18-38-56-38l-13 7m397 0h-214c-19 0-38 12-44 31 0 6 0 6 0 13 0 31 0 56 6 88 25 75 94 119 170 125 50 0 100 0 144 0 101 0 177-81 177-176 0-12 0-25 0-31 0-19-13-38-32-38h-6c-63-12-132-12-201-12m-183 75h359c0 57-44 107-101 107-50 0-107 0-157 0-57-6-101-50-101-107m183 503c81 0 144-63 144-144 0-82-69-145-144-145-82 0-145 63-145 145l0 0c0 75 63 144 145 144m69-144c0 37-32 69-70 69s-75-32-75-69 31-70 69-70c44-6 76 32 76 70l0 0" horiz-adv-x="1000" />

<glyph glyph-name="kart-organizasyon-turu" unicode="&#xe812;" d="M234 143c-56 50-112 106-161 162-13 6-19 13-32 25-12 13-12 37 0 50l0 0c25 25 56 56 81 81 63 56 150 62 218 19 7 0 7-7 13 0 74 56 149 105 224 161 0 0 6 0 0 7-6 12-13 31-13 49-6 32 0 63 25 81 19 19 38 44 63 63 12 12 37 12 49 0l0 0c19-19 44-44 63-63l218-218c18-12 18-37 6-49 0-7-6-7-6-7-19-18-31-31-50-49-38-44-100-50-143-13 0 0 0 0-7 0l-162-230c13-19 19-44 25-69 13-56 0-118-43-162-25-25-50-49-75-81-12-12-37-18-50-6 0 0 0 0-6 6-56 56-118 119-174 175-7 6-7 6-13 12 0-6-6-6-6-12-68-69-143-144-212-212-12-12-37-19-50-6s-18 37-6 50c0 0 0 0 6 6 57 56 113 112 169 168l49 62m268-168l44 50c43 44 43 112 6 156l-6 6-106 106c-37 37-75 74-118 112-38 43-106 43-150 6 0 0-6 0-6-6-13-13-25-31-44-44v-6l380-380m231 517l-100 100-230-162 161-162 169 224m174 37l-237 237c-6-6-18-19-25-25-12-12-18-37-6-50 0 0 0-6 6-6 19-19 44-44 63-62 37-44 74-81 118-119 12-12 37-18 50-6l0 0c12 6 19 19 31 31" horiz-adv-x="1000" />

<glyph glyph-name="kart-teslimat-adres" unicode="&#xe813;" d="M253 206c-19 25-37 50-50 75-37 63-62 138-62 213 0 200 162 356 362 356 175 0 325-131 350-306 6-69 0-144-31-206-19-44-44-88-75-125l-6-7c18 0 37 0 56 0 12 0 25 0 37-6 32-6 57-31 69-62 25-57 44-113 69-176 19-43-6-100-50-112-13 0-25 0-38 0-256 0-512 0-768 0-50 0-94 37-94 87 0 13 0 25 6 32 19 56 44 112 63 169 12 37 56 68 93 62 25 6 50 6 69 6m244-137c31 25 62 50 87 75 63 56 119 125 163 206 31 63 44 131 31 200-31 156-181 256-337 225-132-31-225-137-225-275 0-62 12-119 43-169 63-100 144-187 238-262m0-150h381c19 0 25 12 19 31-19 50-38 106-56 156-7 19-19 32-38 25-37 0-75 0-112 0-7 0-13 0-19-6-44-44-94-87-144-125-12-13-37-13-50 0-56 38-100 81-150 125-6 6-6 6-12 6-38 0-82 0-119 0-13 0-31-6-31-25-19-56-44-112-63-169-6-6 0-18 6-18h7c6 0 6 0 12 0h369m0 394c-100 0-175 81-175 181s75 175 175 175 181-81 181-181l0 0c0-94-81-175-181-175m106 181c0 56-44 106-106 106-56 0-106-50-106-106s50-106 106-106l0 0c62 0 106 43 106 106" horiz-adv-x="1000" />

<glyph glyph-name="ks-sil" unicode="&#xe814;" d="M105 637c-12 0-25 0-37 0s-32 13-32 31 19 38 38 38c69 0 131 0 200 0h12v31c-6 56 38 106 100 113 7 0 7 0 13 0 62 0 131 0 200 0 56 6 112-44 112-100 0-7 0-7 0-13v-31h13c68 0 131 0 199 0 13 0 32-6 38-25 6-13 0-31-6-38-7-6-19-6-25-12-13 0-25 0-38 0 0-19-6-38-6-63-6-100-19-193-25-293-6-88-13-175-25-256 0-32-6-57-6-88-13-44-57-81-106-81-150 0-300 0-450 0-56 0-100 50-106 106-7 106-19 206-25 313-13 106-19 206-32 306 0 18 0 43-6 62m75 0c0-6 0-12 0-19 6-75 13-143 19-212s12-137 19-206c6-81 18-163 25-238 0-31 12-43 43-43h425c19 0 38 12 44 31v6c6 50 6 106 12 156l19 238c6 68 13 137 19 212 0 25 6 44 6 69l-631 6z m462 69c0 12 0 25 0 37 0 19-18 32-37 32-75 0-144 0-219 0-18 0-31-13-31-32 0-12 0-25 0-43l287 6z m-249-637c0-19-13-38-32-38l0 0c-18 0-37 13-37 31l0 0-31 325c-7 31-7 69-7 100 0 19 7 31 25 38 19 6 38 0 44-19v-6c6-88 13-169 19-250l19-181c0 6 0 0 0 0m212 0c6 56 12 112 12 175 7 68 13 137 19 199 0 19 0 38 6 57 0 18 19 31 38 31 19 0 31-19 31-38 0-31-6-62-6-93-6-69-13-131-19-200-6-44-6-88-12-138 0-18-19-37-38-31-19 6-31 19-31 38m-75 212c0-69 0-144 0-212 0-19-19-38-38-38-18 0-37 19-37 38 0 62 0 118 0 181 0 81 0 162 0 243 0 19 12 38 31 38 6 0 13 0 13 0 25-13 37-25 31-44v-206" horiz-adv-x="1000" />

<glyph glyph-name="kart-yok" unicode="&#xe815;" d="M500-150h-369c-18 0-37 0-56 12h-12c-19-12-38-12-50 0-13 19-13 38 0 50 156 157 312 313 468 469 150 150 300 300 450 450 0 0 0 0 7 7 12 12 31 12 43 0 13-13 19-32 0-44 0 0 0-6 0-19 0-19 7-31 7-44v-756c0-69-57-125-125-125h-375 0z m-144 306h382c18 0 31-18 31-31s-6-31-25-37h-450c-6 0-13 0-19-7-50-50-94-94-144-144 0 0 0 0-6-6h756c32 0 57 19 57 56v732h0c-113-106-225-219-338-331h138c18 0 25 0 31-19 12-25 0-50-31-50h-207c-6 0-12 0-18-6-44-50-94-94-144-144 0 0 0 0-6-6h-7z m-356 257v306c0 81 50 131 131 131h632c25 0 43-12 43-37s-12-32-31-32h-644c-37 0-56-18-56-56v-631c0-25-12-44-37-44s-38 19-38 38v325h0z m400 206h125c25 0 44-13 44-38s-19-37-38-37h-256c-25 0-44 19-37 37 0 19 18 32 37 32h131 0z m-119-231h19c19 0 31-13 31-32s-6-37-31-37h-44c-18 0-31 19-25 37 0 19 19 32 32 32h18z" horiz-adv-x="1000" />

<glyph glyph-name="ks-duzenle" unicode="&#xe816;" d="M999 638c0-31-13-69-38-87-56-56-112-113-168-169-143-143-287-286-430-436-13-13-25-19-38-25-87-19-174-44-268-69-18-6-37 0-50 19-6 12-6 25-6 31 25 94 44 187 69 275 0 6 6 18 12 25 206 205 406 405 611 611 50 49 125 49 175 0l0 0c31-32 56-57 87-88 31-25 44-56 44-87m-680-624c162 163 324 325 480 481l-162 162-480-480c56-57 112-113 162-163m536 530c19 19 44 38 63 57 19 18 19 49 0 68-31 31-63 63-94 94-18 18-50 18-74 0l0 0c-13-13-19-19-32-32-6-6-18-12-25-24l162-163m-767-604l156 37c-37 38-81 81-118 119-13-50-25-100-38-156" horiz-adv-x="1000" />

<glyph glyph-name="ks-tamamlandi" unicode="&#xe817;" d="M875 850h-750c-69 0-125-56-125-125v-750c0-69 56-125 125-125h750c69 0 125 56 125 125v750c0 69-56 125-125 125z m-50-362l-375-382 0 0 0 0 0 0 0 0 0 0 0 0 0 0 0 0 0 0 0 0 0 0 0 0 0 0 0 0 0 0 0 0 0 0 0 0 0 0h-19l0 0 0 0 0 0 0 0 0 0 0 0 0 0 0 0 0 0 0 0 0 0c0 0 0 0-6 0l-231 232c-6 6-6 18 0 31l81 81c6 6 19 6 31 0l0 0 132-144 281 288c6 6 19 6 31 0l0 0 81-81c0-7 0-19-6-25z" horiz-adv-x="1000" />

<glyph glyph-name="login-kullaniciadi" unicode="&#xe818;" d="M463-150c-113 0-232 0-344 0-63 0-113 44-119 106 0 6 0 13 0 25 6 125 88 238 206 282 32 12 69 18 107 18 100 0 200 0 300 0 162 0 293-125 312-287 0-19 0-38 0-57-12-50-56-81-106-81h-356m0 69h350c18 0 37 12 37 31 0 0 0 0 0 6 0 19 0 32 0 51-25 118-125 200-244 200h-281c-12 0-19 0-31 0-125-13-213-119-219-238 0-31 13-44 44-44h350m-256 669c0 138 112 250 250 250 137 0 250-112 250-250 0-137-113-250-250-250-138 0-250 113-250 250 0 0 0 0 0 0m75 0c0-100 81-181 175-181 100 0 181 81 181 175 0 100-81 181-175 181 0 0 0 0 0 0-100 0-175-81-175-175" horiz-adv-x="925" />

<glyph glyph-name="login-sifre" unicode="&#xe819;" d="M144 456c0 50 0 94 0 144 0 69 25 138 81 181 63 69 163 88 250 50 88-31 150-106 163-200 0-12 0-31 0-43 0-44 0-88 0-138h106c19 0 37-12 37-31 0 0 0 0 0-6v-457c0-56-43-106-106-106 0 0 0 0 0 0h-569c-56 0-106 44-106 106 0 0 0 0 0 0v457c0 18 13 37 31 37 0 0 0 0 7 0h106m-75-62v-419c0-32 12-44 44-44h556c31 0 44 12 44 44v419h-644z m150 68h356v157c0 6 0 18 0 25-19 87-94 143-181 137-88 0-156-69-169-156 0-56 0-113 0-169m206-344v-75c0-18-12-37-31-37-19 0-37 12-37 31 0 0 0 0 0 6v75c-50 19-82 75-69 125 12 57 75 94 131 75 38-12 69-37 75-81 13-56-19-106-69-125m0 106c0 19-18 38-37 38s-38-19-38-38c0-18 19-37 38-37 0 0 0 0 0 0 19 0 37 19 37 37" horiz-adv-x="788" />

<glyph glyph-name="sm-i-kampanyalar" unicode="&#xe81a;" d="M694 738c-19 12-50 18-75 12l-463-169h-81c-44 0-81-37-81-81v-206c0-44 37-81 81-81h69v-213c0-44 31-75 75-75h69c43 0 75 31 75 75v138l250-94c6 0 18 0 25 0 18 0 31 0 43 12 19 13 32 38 32 63v550c0 25-13 50-32 62z m-625-450v206c0 6 6 12 12 12h69v-237h-69c-6 0-12 6-12 12z m231-301c0 0 0-6-6-6h-69c0 0-6 0-6 6v182l81-31v-157z m363 119c0 0 0-6 0-12s-7 0-13 0l-425 156v275l425 156c0 0 13 0 13 0s0 0 0-12v-563z m306 319h-88c-18 0-31-12-31-31 0-19 13-31 31-31h88c19 0 31 12 31 31 0 19-12 31-31 31z m-156 119l181 187c12 13 12 32 0 50-13 13-31 13-50 0l-181-187c-13-13-13-31 0-50 12-13 31-13 50 0z m0-313c-13 13-32 13-50 0-13-12-13-31 0-50l181-187c12-13 31-13 50 0 12 12 12 31 0 50l-181 187z" horiz-adv-x="1000" />

<glyph glyph-name="sm-i-partner" unicode="&#xe81b;" d="M994 463l-25 25-44-44h0s-62-69-62-69c-19-19-25-44-25-69s0-37-13-50l-137 138c25 19 50 37 68 69 7 18 0 37-12 43-6 0-19 0-25 0-6 0-13-6-19-18-12-32-44-50-69-57 0 0 0 0 0 0-25 0-50 0-68 7-38 18-88 6-119-25-13-19-38-25-56-32-13 0-25 0-32 0l132 157c12 0 18 0 31 0h87c25 0 50 12 63 25l237 231h0s-18 25-18 25c0 0-13 12-25 12s-19 0-25-12l-219-213c0 0-13-6-19-6h-175c-6 0-12 0-19 6l-225 232c-6 12-12 12-18 12s-19 0-25-12l-25-25 218-225 13-13c12-12 31-25 50-25l-125-150c-13-12-13-31 0-44 31-25 69-37 106-31 38 0 75 25 100 50 13 13 25 13 38 6 31-12 62-18 93-18l194-200c13-13 13-32 0-38 0 0-12-6-19-6h0c-6 0-12 0-18 6l-57 56c0 0-12 13-25 13h0c-6 0-18 0-25-13 0 0-12-12-12-25 0-6 0-18 12-25l57-56c12-12 12-31 0-37-13-13-25-13-38 0l-56 56c-13 12-31 12-44 0-12-13-12-31 0-44l56-56c13-13 13-32 0-38 0 0-12-6-18-6s-13 0-19 6c-25 25-38 38-44 44-12 13-12 13-19 19-12 12-31 19-50 19 0 18-12 43-25 56-6 6-18 12-25 19 19 37 13 81-18 106-32 31-75 37-107 19 0 12-12 18-18 25-19 18-38 25-63 25s-50-13-62-25h0c0 0 0 12 0 18 0 38-13 69-38 94l-25 25-75 69-19-19c-12-12-12-31 0-44l75-75c13-12 19-31 19-50s6-50 19-68c-31-38-25-88 6-119 13-13 38-25 56-25 0-19 13-44 25-56 13-13 38-26 57-26 0-18 12-43 25-56 25-25 62-31 93-25 0-12 13-25 19-31 19-19 38-25 63-25s50 12 62 25l13 12c6 7 12 13 18 25 38-31 88-25 125 7 13 12 25 37 25 56 19 0 44 12 57 25 12 13 25 38 25 56 18 0 43 13 56 25 31 32 37 88 6 119 19 31 31 63 31 100s0 13 7 19l87 87c13 13 13 32 0 44z m-650-444l44 44c0 0 12 6 18 6s13 0 19-6c13-13 13-25 0-38h0s0 0-12-12l-32-32c0 0-12-6-18-6s-13 0-19 6c-13 13-13 32 0 38z m37 125l-81-88c0 0-12-6-19-6s-12 0-18 6c-13 13-13 32 0 38l81 87c0 0 12 7 19 7s12 0 18-7c13-12 13-31 0-37z m-125 44l-43-44c-13-13-25-13-38 0-12 12-12 31 0 37l44 44c12 13 25 13 37 0 13-12 13-31 0-37z m250-251l-12-12c-13-13-25-13-38 0-12 12-12 25 0 37l13 13c0 0 0 0 0 0 0 0 12 0 19 0s12 0 18-6c13-13 13-32 0-38z" horiz-adv-x="1000" />

<glyph glyph-name="bildirim-ac" unicode="&#xe81c;" d="M501 850h385c56 6 112-44 112-100 0-7 0-7 0-13v-768c7-57-43-113-99-113-6 0-6 0-13 0h-348c-19-6-37 7-37 25 0 19 12 38 31 38 0 0 0 0 6 0 25 0 50 0 75 0h273c19 0 38 12 44 31 0 6 0 6 0 13 0 256 0 518 0 774 0 19-12 38-31 44-6 0-6 0-13 0h-771c-19 0-38-13-44-31 0-7 0-7 0-13 0-112 0-231 0-343 0-7 0-7 0-13 0-19-19-31-37-31s-31 19-31 31v6c0 119 0 231 0 350 0 63 43 113 99 113 7 0 7 0 13 0 130 0 255 0 386 0m18-432h-193c-6 0-12 0-12 0-19 7-31 25-25 44 6 19 19 25 31 25 13 0 31 0 44 0h236c19 0 38-12 44-31 0-6 0-6 0-13 0-93 0-187 0-274 0-19-13-38-31-38-7 0-13 0-19 0-12 6-25 19-25 38 0 62 0 125 0 181v18c0 0-6-6-6-6-162-162-330-331-492-493-12-19-31-19-43-19-19 6-32 25-25 44 0 6 6 6 6 12 6 6 6 6 12 13l492 493 6 6" horiz-adv-x="1000" />

<glyph glyph-name="btn-musteri-wp-sablon" unicode="&#xe81d;" d="M0 774c2 5 3 10 5 16 11 35 44 60 81 60 139 0 277 0 415 0 48 0 86-39 87-87 0-46 0-92 0-138 0-3 0-7 0-11 4 0 7 0 11 0 65 0 131 0 196-1 95 0 178-66 200-159 26-112-49-226-163-247-14-2-29-3-43-3-63-1-126-1-190-1-3 0-7 0-11 0 0-4 0-8 0-11 0-82 0-163 0-245 0-53-24-83-75-96 0 0-1-1-1-1-145 0-291 0-436 0-2 1-5 1-7 2-32 8-54 28-65 59-1 5-2 10-4 15 0 283 0 565 0 848z m529-162c0 49 0 96 0 144 0 24-11 35-35 35-133 0-267 0-400 0-24 0-35-11-35-35 0-271 0-541 0-812 0-24 11-35 35-35 133 0 267 0 400 0 24 0 35 10 35 34 0 84 0 168 0 252 0 4 0 7 0 10-7 4-12 3-18-3-15-16-31-31-46-46-10-10-21-14-35-9-13 6-18 17-18 31 0 26 1 53 0 79 0 5-2 12-6 15-84 94-64 240 41 309 25 16 52 26 82 31z m-58-364c1-1 2-1 3-2 3 4 6 7 9 11 10 13 24 15 40 11 13-3 27-5 41-6 75 0 149 0 224 0 9 0 19 1 28 2 68 9 124 73 125 141 2 80-65 149-145 150-80 1-160 0-240 0-23 0-44-6-64-16-89-46-107-164-35-234 10-10 15-20 14-34-1-8 0-16 0-23z m-176-222c10 0 20 0 29 0 17-1 30-14 30-30 0-16-13-28-30-29-19 0-39 0-59 0-16 1-29 14-29 30 1 16 13 28 29 29 10 0 20 0 30 0z m29 677c0-15-13-29-29-29-16 0-30 14-29 30 0 16 14 29 29 29 16 0 29-14 29-30z m234-265c16 0 30-13 30-29 0-16-13-30-30-30-15 0-29 14-29 30 0 15 14 29 29 29z m147-30c0-15-13-29-29-29-16 0-30 14-29 30 0 16 13 29 29 29 16 0 29-14 29-30z m88 30c16 0 29-14 29-29 0-17-14-30-30-30-16 1-29 14-28 30 0 16 14 29 29 29z" horiz-adv-x="1000" />

<glyph glyph-name="baglantili-siparisler" unicode="&#xe81e;" d="M3 115c0 68 31 124 69 174 50 50 100 100 150 150 12 18 31 18 50 0 19-13 19-31 0-50 0 0 0 0-13-13-37-24-87-74-137-124-69-81-69-199 12-268 19-19 38-37 69-50 69-31 150-12 200 38 50 49 100 99 150 137 13 12 38 18 50 0 0 12 0 12 13 0 0-13 0-31-13-38l-162-149c-32-31-63-50-100-62-138-38-288 37-332 180 0 19-12 31-12 38 0 6 6 24 6 37m1000 473c0-68-19-131-69-180-50-63-100-113-150-162-18-13-37-13-50 0-12 12-18 37 0 49l0 0c50 50 100 100 150 150 82 68 82 199 0 268s-200 81-268 0c-50-44-100-94-150-144-13-12-32-18-50 0-13 13-13 13-13 13-12 19-12 31 0 37 50 50 113 112 163 162 81 69 181 87 268 50 88-31 163-118 169-212 0-6 0-18 0-31m-281-56c0-12-13-19-19-31-31-31-69-68-100-100-81-81-169-168-250-249-12-12-31-18-37-12-19 0-32 19-19 37 0 0 0 13 12 13 0 0 0 0 13 12 112 118 219 231 337 349 13 12 32 19 38 12 19 0 25-25 25-31" horiz-adv-x="1000" />

<glyph glyph-name="btn-kapat" unicode="&#xe81f;" d="M585 356l415-406-75-88-428 407-421-419-76 87 415 407-415 419 76 87 427-419 422 419 75-87-415-407z" horiz-adv-x="1000" />

<glyph glyph-name="bilgi" unicode="&#xe820;" d="M500 850c-275 0-500-225-500-500s225-500 500-500 500 225 500 500-225 500-500 500z m94-694c0-6 0-18 0-25h-6c-19-12-44-18-57-25-31-6-56 0-81 7-19 6-31 31-25 56 0 31 19 75 25 106 6 25 6 44 19 69 0 25-6 31-31 31-19 0-25 0-44 0 0 6 0 19 0 25 0 0 0 0 0 0 31 19 69 19 100 25 31 0 56-19 69-44 0-18 0-31 0-56-7-44-19-75-32-119 0-6 0-25 0-31s0-25 19-25h0c19 0 31 0 50 0-6 0 0 0 0 0h0z m6 375c0-18-19-43-31-50-25-6-56 0-75 19-19 19-19 56 0 75h0c31 25 69 19 94-12 0 0 6-7 6-19 0 0 0 0 0-6h0z" horiz-adv-x="1000" />

<glyph glyph-name="btn-yeni-kart" unicode="&#xe821;" d="M168-150c-17 7-23 20-23 38 0 258 0 517 0 775 0 25 6 33 30 40 172 48 343 96 514 144 2 1 4 1 6 2 20 5 37-8 38-29 0-35 0-71 0-107 0-4 0-7 0-12 19 0 37 0 55 0 12 0 24 1 36 0 18 0 29-11 31-29 0-3 0-6 0-9 0-258 0-517 0-775 0-18-6-31-23-38-221 0-443 0-664 0z m37 59c197 0 394 0 590 0 0 131 0 261 0 392-32 0-63 0-95 0 0-5 0-8 0-11 0-19 0-38 0-57-1-25-23-38-45-26-14 8-27 16-41 23-2 2-4 2-7 4 1-5 2-8 4-11 12-32 18-65 15-100-1-19-14-30-31-29-16 1-27 13-27 32 0 9 0 19-1 28-5 50-29 92-62 129-1 2-3 3-5 5-36-36-71-98-68-159 0-7-1-15-5-22-5-11-19-16-32-13-12 4-20 14-21 29-3 35 3 68 16 101 1 3 2 6 3 10-5-2-8-4-11-5-13-8-25-16-39-23-16-9-37 0-41 17-2 5-2 11-2 16 0 20 0 41 0 61-32 0-64 0-95 0 0-130 0-260 0-391z m590 451c0 95 0 188 0 282-197 0-394 0-590 0 0-94 0-188 0-282 32 0 63 0 95 0 0 5 0 8 0 12 0 19 0 38 0 57 1 19 17 32 35 28 5-1 11-4 16-7 47-27 94-54 142-82 5-3 9-3 15 0 11 7 23 14 34 20 36 21 73 41 108 63 24 15 53 2 50-29-1-17 0-35 0-52 0-3 0-6 0-10 32 0 63 0 95 0z m-400 344c0-1 0-1 0-2 93 0 186 0 279 0 0 27 0 53 0 80-94-26-186-52-279-78z m-36-421c28 16 55 31 82 47-28 17-54 32-82 48 0-32 0-63 0-95z m282 95c-28-16-55-32-82-48 28-16 54-31 82-47 0 32 0 62 0 95z" horiz-adv-x="1000" />

<glyph glyph-name="btn-yeni-musteri" unicode="&#xe822;" d="M0 828c8 17 21 22 39 22 56-1 111 0 166 0 25 0 39-24 27-44-6-11-16-15-28-15-44 0-89 0-133 0-4 0-7 0-12 0 0-4 0-7 0-11 0-44 0-88 0-132 0-19-8-30-24-34-13-3-25 4-34 20 0 0 0 1-1 1 0 64 0 129 0 193z m941-37c-4 0-8 0-11 0-46 0-91 0-136 0-19 0-32 12-32 29 0 17 13 30 32 30 58 0 116 0 173 0 21 0 33-12 33-32 0-58 0-115 0-173 0-18-12-31-29-32-17 0-30 14-30 32 0 48 0 97 0 146z m-941-726c1 1 2 2 2 3 7 14 20 21 33 18 15-4 24-15 24-31 0-45 0-90 0-135 0-3 0-7 0-11 4 0 7 0 11 0 45 0 90 0 135 0 23-1 37-20 29-40-4-12-13-19-26-19-60 0-120 0-179 0-15 0-23 10-29 21 0 65 0 129 0 194z m941-156c0 4 0 8 0 11 0 45 0 89 0 134 0 19 12 32 30 32 17 0 29-13 29-32 0-57 0-114 0-172 0-20-12-32-33-32-57 0-114 0-171 0-19 0-32 12-32 29-1 17 13 30 32 30 48 0 96 0 145 0z m-556 435c-56 63-53 161 13 217 63 57 161 54 217-12 54-60 54-148 0-208l44-31c10-7 22-16 32-22 19-13 31-32 34-54 7-19 10-41 16-60 10-31-6-63-38-72-6-3-12-3-22-3-123 0-242 0-365 0-31 0-60 22-60 53 0 6 0 13 3 19 7 22 10 44 16 66 6 22 19 38 35 51 22 15 44 34 69 50 3 3 6 3 6 6m117-195h182c10 0 13 3 10 13-6 18-10 41-16 59-3 10-9 19-19 26-25 18-53 37-78 59-4 4-10 4-13 0-41-22-91-22-136 0-3 4-9 4-12 0-25-18-54-40-79-59-9-7-16-16-16-26-6-18-9-37-15-59-3-13 0-16 12-16l180 3m0 195c57 0 104 47 104 104s-48 104-104 104-104-47-104-104 44-104 104-104l0 0" horiz-adv-x="1000" />

<glyph glyph-name="disa-aktar-excel" unicode="&#xe823;" d="M969 718h-406v101c0 12-7 18-13 25-6 6-12 6-25 6l-500-101c-12-6-25-18-25-31v-736c0-13 13-31 25-31l500-101h6c7 0 13 0 19 6 6 0 13 13 13 19v101h406c19 0 31 12 31 31v673c0 19-12 38-31 38z m-906-711v680l437 88v-88c0 0 0 0 0-7l0 0v-126c0 0 0 0 0-6l0 0v-126c0 0 0 0 0-6l0 0v-126c0 0 0 0 0-6l0 0v-126c0 0 0 0 0-6l0 0v-126c0 0 0 0 0-6l0 0v-89l-437 76z m875 38h-375v69h93c19 0 32 19 32 38 0 19-13 31-32 31h-93v63h93c19 0 32 19 32 38 0 19-13 31-32 31h-93v63h93c19 0 32 19 32 38 0 19-13 32-32 32h-93v69h93c19 0 32 19 32 37 0 19-13 32-32 32h-93v63h375v-604z m-157 472h63c19 0 31 19 31 37 0 19-12 32-31 32h-63c-18 0-31-19-31-38 0-19 13-31 31-31z m0-139h63c19 0 31 19 31 38 0 19-12 32-31 32h-63c-18 0-31-19-31-38 0-13 13-32 31-32z m63-63h-63c-18 0-31-18-31-37 0-19 13-32 31-32h63c19 0 31 19 31 38 0 13-12 31-31 31z m0-138h-63c-18 0-31-19-31-38 0-19 13-31 31-31h63c19 0 31 19 31 38 0 18-12 31-31 31z m-419 365c-12 12-31 6-44-6l0 0-93-126-75 94c-13 13-32 13-44 6l0 0c-13-18-19-37-6-50l87-107-87-119c-13-13-7-38 6-44 6-7 12-7 19-7 12 0 18 7 25 13l81 113 94-113c12-13 31-13 43-6l0 0c13 12 13 31 0 50l-100 113 100 139c13 18 7 37-6 50z" horiz-adv-x="1000" />

<glyph glyph-name="dashboard-disa-aktar" unicode="&#xe824;" d="M594 261c-82 0-163 0-244-13-137-25-244-137-256-275 0-12 0-25 0-37 0-25-19-44-44-44s-50 25-50 50l0 0c0 94 0 194 0 287 6 194 150 356 337 388 25 6 50 6 82 6 56 0 112 0 168 0 0 19 0 31 0 50 0 31 0 56 0 87 0 19 13 38 32 44 18 6 37 6 50-6 6 0 6-6 12-13l300-300c19-18 25-50 13-75-7-6-7-12-13-12l-306-300-6-6c-13-13-32-19-50-6-19 6-25 25-25 43 0 38 0 82 0 119v13m-500-63l6 6c69 82 162 131 269 138 87 6 181 6 268 6 25 0 44-19 44-44 0-19 0-37 0-62v-7l200 200c-69 69-137 138-200 200 0-18 0-37 0-62s-12-50-37-50c-7 0-7 0-13 0-75 0-150 0-219 0-62 0-124-19-174-56-101-50-150-157-144-269" horiz-adv-x="1000" />

<glyph glyph-name="ekler" unicode="&#xe825;" d="M311 850c-144 6-270-113-276-258 0-6 0-25 0-31 6-57 31-120 75-158 107-119 227-226 333-339 51-51 101-101 151-157 76-76 208-76 283 0 25 25 44 50 51 81 25 70 0 145-51 189-119 132-232 251-352 358-50 51-132 51-182 0 0 0-7 0-7-6-37-56-37-126 7-176l6-6c107-107 214-214 327-327 0 0 6-7 19-7 19 0 25 0 31 19 7 7 7 25 0 32l-6 6c-107 107-214 214-314 327-25 19-32 32-32 57 0 31 25 56 57 56 6 0 6 0 19 0 6 0 25-6 31-19 120-119 233-226 352-339 57-51 57-132 7-189-51-56-145-69-189-19l-6 7c-126 125-239 251-365 364-44 51-88 88-120 126-75 82-69 208 13 283 76 63 195 63 270 0 120-107 227-226 334-333 37-44 88-88 132-132 6-19 31-19 50 0 0 6 6 6 6 19 0 6 0 25-6 31-50 50-101 101-157 151-101 107-208 201-308 302-51 50-120 88-183 88" horiz-adv-x="1000" />

<glyph glyph-name="dashboard-filtrele" unicode="&#xe826;" d="M1000 781c-6 12-12 25-19 37-12 19-37 32-56 32h-844l-13 0c-7 0-12 0-18 0-19-13-37-32-44-57l-6-6v-125-6c6-19 19-44 38-56l312-288c6-6 13-18 13-31v-125c0-81 0-162 0-244-7-25 12-50 37-62h25l6 6c7 0 7 6 13 6l56 44c31 19 69 44 100 63 31 18 44 50 44 81v237c0 13 6 25 12 32 100 93 200 187 300 274 19 19 38 38 44 63v119 6z m-456-725l-81-56v81c0 69 0 138 0 206 0 44-19 81-50 106-107 94-207 188-313 288v6 69h800v-81l-100-88c-69-62-137-125-206-193-38-25-56-69-56-113 0-50 0-100 0-150l6-75z" horiz-adv-x="1000" />

<glyph glyph-name="disa-aktar-yazdir" unicode="&#xe827;" d="M181 26c-25 0-43 0-68 0-57 0-107 44-113 101v6c0 94 0 189 0 277 0 63 44 113 100 119h6c25 0 44 0 69 0v13c0 88 0 176 0 270 0 13 13 32 31 38 7 0 7 0 13 0 125 0 256 0 381 0 13 0 25-6 38-13 56-56 112-119 168-176 13-6 13-19 13-37 0-32 0-70 0-101 25 0 44 0 69 0 12 0 25 0 37-6 44-13 75-51 75-95 0-94 0-195 0-289 0-57-50-107-106-107-25 0-50 0-75 0v-12c0-45 0-89 0-126 0-19-13-38-31-38h-7c-187 0-375 0-562 0-19 0-38 12-38 31v7c0 44 0 81 0 126v12m0 69v13c0 57 0 107 0 163 0 19 13 38 32 44 6 0 6 0 12 0h563c18 0 37-12 43-31v-6c0-57 0-107 0-164v-19h63c19 0 37 13 44 32 0 6 0 6 0 12 0 88 0 183 0 271 0 31-13 44-44 44h-781-7c-18 0-31-13-31-32 0-94 0-195 0-289 0-19 13-38 31-38 25 0 50 0 75 0m569 145h-500v-321h500v321z m-500 289h500v69c-50 0-94 0-137 0-25 0-38 13-44 32v6c0 38 0 76 0 113v26h-319v-246z m444 139l-50 50v-50h50z" horiz-adv-x="1000" />

<glyph glyph-name="ekle-buton" unicode="&#xe828;" d="M384 850v-387h-384v-232h384v-381h232v381h384v232h-384v387h-232z" horiz-adv-x="1000" />

<glyph glyph-name="hamburger-menu" unicode="&#xe829;" d="M167 850h583 583v-42-41h-583-583v41 42z m708-542h458v42 50h-458-458v-50-42h458z m-208-458h666v50 50h-666-667v-50-50h667z" horiz-adv-x="1333" />

<glyph glyph-name="header-i-bildirimler" unicode="&#xe82a;" d="M644-13c-6-75-75-137-150-131-75 6-131 63-138 138h-12c-81 0-156 0-238 0-18 0-37 12-37 31 0 6 0 13 0 19 6 6 6 12 19 19 37 18 56 56 50 93 0 63 0 125 0 194 0 163 100 306 256 350 0 0 6 0 6 0-19 44-6 106 38 138 37 25 87 25 125 0 43-32 56-88 31-138 6 0 12-6 19-6 137-44 231-163 243-306 0-44 7-82 0-125 0-38 0-75 0-113 0-37 19-75 50-87 19-7 25-25 19-44-6-19-19-25-37-25l-244-7m162 76c-18 31-25 68-18 100 0 62 0 118 0 181 0 19 0 37-7 56-25 156-175 263-331 231-137-18-237-143-237-281 0-56 0-119 0-175 6-37 0-75-19-106l612-6z m-237-76h-138c0-37 32-68 69-68s69 31 69 68m-69 794c-19 0-37-18-37-37 0-19 18-31 37-31 19 0 38 18 38 37 0 0 0 0 0 0 0 19-19 31-38 31m444-193c0-19-13-32-25-38-13-6-31 0-44 13-12 18-31 43-44 62-31 38-68 69-112 94-13 6-19 25-19 37 0 13 13 25 25 32 13 0 19 0 25-7 81-37 144-100 188-181 0 0 6-6 6-12m-888 0c7 6 7 12 7 18 43 75 106 138 181 182 19 12 37 6 50-7s12-43-6-56c0 0 0 0-7 0-62-37-118-94-156-156-6-19-25-25-37-19-19 6-32 19-32 38" horiz-adv-x="1000" />

<glyph glyph-name="musteri-detay-eposta" unicode="&#xe82b;" d="M0-55c0 174 0 343 0 517 6 6 13 13 19 19 12 12 25 19 31 25 6 12 13 12 13 18 0 38 0 75 0 113 0 43 31 74 75 74 50 0 100 0 156 0 6 0 12 0 12 7 44 37 82 68 125 106s100 37 144 0c44-32 81-69 125-100 6-6 13-6 19-6 50 0 100 0 156 0 44 0 75-31 75-75 0-37 0-75 0-112 0-6 0-13 6-13 13-12 25-25 44-37-6-12 0-19 0-31 0-162 0-330 0-492 0-50-31-88-81-100-6 0-6 0-13-6-268 0-543 0-812 0h-6c-32 6-57 25-75 50-7 18-7 31-13 43z m500 710c-119 0-244 0-362 0-13 0-19 0-19-18 0-69 0-144 0-212 0-6 0-13 6-13 113-93 225-187 338-280 25-19 43-19 68 0 113 93 225 187 338 280 6 7 6 7 6 13 0 68 0 137 0 212 0 18 0 18-19 18-112 0-237 0-356 0z m-94-548c-93-62-187-131-287-193 256 0 506 0 762 0-93 68-187 131-287 193-25-25-56-50-94-50s-69 25-94 50z m-50 37c-100 81-200 162-300 250-6-63 0-437 7-449 100 62 193 131 293 199z m288 0c100-68 200-137 300-205 0 149 0 299 0 448-100-81-200-162-300-243z m-31 567c-32 25-57 50-88 69-19 12-44 12-62 0-19-19-44-31-63-50 0-6-6-12-12-19 75 0 150 0 225 0z m-113-274c69 0 138 0 213 0 18 0 31-12 31-31 0-12-13-25-25-25h-6c-138 0-282 0-419 0-19 0-31 6-31 19-13 25 6 37 25 37 62 0 125 0 193 0 7 0 13 0 19 0z m-75 63c-44 0-94 0-137 0-13 0-25 6-32 18s0 25 13 31c6 7 12 7 19 7 93 0 181 0 275 0 18 0 31-13 31-31s-13-32-31-32c-50 7-94 7-138 7z" horiz-adv-x="1000" />

<glyph glyph-name="musteri-detay-telefon" unicode="&#xe82c;" d="M1000 381c0-18 0-43 0-62 0-6 0-13 0-19-12-106-50-200-119-275-75-88-175-144-293-163-19-6-38-12-57-12s-43 0-62 0h-6c-32 6-57 6-88 12-187 50-337 213-369 401 0 18-6 37-6 56s0 44 0 62v7c6 25 6 56 13 81 43 194 206 344 400 375 18 0 37 6 56 6s44 0 62 0h7c56-6 112-19 162-37 163-75 263-200 294-375 0-19 6-38 6-57z m-500 413c-244 0-444-200-444-444s200-444 444-444 444 200 444 444-200 444-444 444z m119-713c-38 0-69 13-100 32-113 56-200 143-256 256-19 31-25 69-32 100 0 25 7 44 19 56 25 25 44 50 69 69 25 25 62 19 81-13 19-31 38-62 50-93 19-32 19-57-12-82-7-6-7-12 0-18 25-44 62-75 106-107 6-6 6-6 12 0 0 7 7 13 7 19 18 19 43 25 68 13 19-7 38-19 50-32 19-12 32-18 50-31 25-19 38-56 13-81-25-25-50-50-75-69-13-12-31-19-50-19z m81 125c-25 19-56 32-81 50h-6c-13-6-25-18-32-25-12-12-25-12-37-12-13 6-25 12-38 19-31 18-62 50-87 81-19 19-38 44-44 69-6 18 0 37 13 50 6 6 12 12 12 12s6 6 0 6c-12 32-25 63-44 94-18-19-31-37-50-56-12-6-18-25-12-38 6-31 19-56 31-87 44-69 94-131 163-175 31-25 68-38 106-50 25-6 44-6 56 19 19 18 31 31 50 43z" horiz-adv-x="1000" />

<glyph glyph-name="organizasyon-sahibi" unicode="&#xe82d;" d="M500 350c142 0 250 108 250 250s-108 250-250 250-250-108-250-250 117-250 250-250z m0 425c100 0 175-83 175-175s-83-175-175-175-175 75-175 175l0 0c0 100 83 175 175 175z m108-500h-208c-183 0-325-142-325-317l0 0v-75c0-16 17-33 33-33l0 0h784c16 0 33 17 33 33l0 0v75c8 175-133 317-317 317l0 0z m250-350h-708v33c0 142 108 250 250 250h217c141 0 250-108 250-250l-9-33z" horiz-adv-x="1000" />

<glyph glyph-name="musteri-logosu-yazisi" unicode="&#xe82e;" d="M913-150h-769c-81 0-144 62-144 144v712c0 82 63 144 144 144h812c25 0 44-19 44-37 0-13-6-19-12-32l-438-437 394-425c12-19 12-44 0-57-13-6-25-12-31-12m-769 919c-31 0-63-25-63-63v-719c0-31 25-62 63-62h675l-356 388c-13 18-13 43 0 56l400 400h-693-26z" horiz-adv-x="1000" />

<glyph glyph-name="mobile-rotate" unicode="&#xe82f;" d="M484 732c-20 20-47 31-83 31s-51-11-73-31c-68-68-136-134-202-202-44-44-44-111 0-155 136-135 272-271 407-407 44-44 111-44 155 0 68 67 135 134 202 204 44 44 44 110 0 154-134 136-270 270-406 406z m-164-114q19-30-6-55c-13-11-24-24-36-36-5-3-8-5-13 0-8 4-17 8-25 12 27 27 53 54 80 81z m513-402c-63-63-128-128-193-192-20-21-41-21-61 0-133 132-265 265-398 397-17 19-20 39-4 57 4 5 8 6 14 3l47-24c30-14 62-9 85 15s43 41 63 63c15 15 23 31 23 58-2 5-4 17-10 27l-24 47c-3 6 0 10 4 14 15 14 37 14 53 0 27-25 52-50 78-75 108-109 216-217 323-325 22-22 22-41 0-63z m-483-295c-101 8-189 95-192 196 11-10 22-19 33-27 14-11 33-11 46 0 17 12 20 39 3 53-33 29-66 57-100 84-12 9-30 9-42-2-30-26-60-55-88-82-15-14-13-34 0-48 12-15 34-16 48-4 8 7 16 15 27 24 5-55 22-102 52-145 51-70 120-109 207-118 24-4 42 11 44 31 2 21-14 38-38 40z m658 688c-14 15-36 15-54 0-8-7-14-13-22-21 0 13-3 24-6 35-25 123-129 218-256 227-23 2-41-13-42-33 0-21 14-36 36-38 101-8 186-88 194-188v-8c-11 10-20 18-30 26-17 14-39 14-54 0-14-16-11-38 7-52 30-26 60-51 90-76 17-14 36-14 52 2 27 25 53 50 80 74 18 15 19 38 5 53z m-319-384c-19-17-38-36-55-55-11-11-11-25-5-39 7-13 18-19 34-22 7 3 17 6 23 12 19 18 36 35 54 54 12 14 11 36-2 49-12 12-34 14-49 0z" horiz-adv-x="1017" />

<glyph glyph-name="musteri-vergi-kimlik-bilgiler" unicode="&#xe830;" d="M927 575c-35 0-70 0-105 0s-70 15-90 45c-15 20-20 40-20 60 0 30 0 65 0 95 0 5 0 5 0 10h-385c-30 0-40-15-40-45 0-70 0-135 0-205 0-15-10-30-20-35-15-5-30-5-40 5-5 5-10 15-10 25 0 75 0 145 0 220 0 55 50 100 105 100 60 0 120 0 180 0 80 0 165 0 245 0 15 0 25-5 35-15 70-70 135-135 205-205 10-10 15-25 15-35 0-210 0-420 0-630 5-60-40-110-100-115-5 0-10 0-15 0-90 0-185 0-275 0-20 0-35 15-40 35 0 20 15 35 35 40h5c60 0 120 0 180 0 35 0 65 0 100 0 20 0 35 15 40 35v5c0 200 0 400 0 600-5 5-5 5-5 10m-145 160c0-20 0-35 0-55 0-20 15-30 30-35 20 0 40 0 60 0l-90 90m-500-305c160 0 285-130 285-285 0-155-130-285-285-285-155 0-285 130-285 285 0 0 0 0 0 5 0 155 130 280 285 280m215-285c0 120-95 215-215 215s-215-95-215-215 95-215 215-215l0 0c120 0 215 95 215 215m0 430c-35 0-70 0-105 0-20 0-35 10-40 30s10 35 30 40h5c70 0 140 0 205 0 20 0 35-15 40-35 0-20-15-35-35-40h-5c-25 5-60 5-95 5m215-110c35 0 70 0 105 0 20 0 35-15 40-30 0-20-15-35-30-40h-5c-70 0-140 0-210 0-20 0-35 15-40 35 0 20 15 35 35 40h5c30-5 65-5 100-5m35-175c25 0 45 0 70 0 20 0 35-15 40-35 5-20-15-35-35-40h-5c-45 0-90 0-135 0-20 0-35 15-40 35 0 20 15 35 35 40h5c20 0 40 0 65 0m0-250c-25 0-45 0-70 0-20 0-35 15-40 35 0 20 15 35 35 40h5c45 0 95 0 140 0 20 0 35-15 40-35 0-20-15-35-35-40 0 0 0 0-5 0-25 0-45 0-70 0m-530 0c-15 0-30 5-40 20-5 15-5 30 10 40 25 25 55 55 80 80 20 20 40 40 60 60 15 15 35 15 50 5 15-15 15-35 5-50 0 0 0 0-5-5-45-45-95-95-140-140-5-5-15-10-20-10m-5 215c20 0 35-15 35-35 0-20-15-35-35-35-20 0-35 15-35 35l0 0c0 15 15 35 35 35m140-145c20 0 35-15 35-35s-15-35-35-35c-20 0-35 15-35 35l0 0c0 20 15 35 35 35" horiz-adv-x="1000" />

<glyph glyph-name="resim-yukle" unicode="&#xe831;" d="M715 136c-21 0-50 0-71 0-21 0-36 15-36 36 0 21 15 36 36 36 50 0 92 0 142 0 78 0 142 56 149 142 0 78-56 142-142 142-28 0-42 14-42 43 0 135-114 249-249 249-135 0-249-114-249-249l0 0c0-22-14-36-36-43h-7c-78 0-142-64-142-142s64-142 142-142c43 0 93 0 142 0 22 0 36-15 36-36 0-21-14-36-36-36-42 0-92 0-135 0-121 0-213 93-213 214 0 99 71 192 171 213 7 0 7 0 7 7 21 178 185 299 355 278 142-22 256-128 278-271 0-7 0-14 14-14 114-28 185-142 163-256-21-85-85-149-170-163-43-8-78-8-107-8l0 0m-185 235v-477c0-7 0-7 0-14 0-21-21-35-43-28-14 0-28 14-28 35 0 7 0 7 0 15v476c-7 0-7-7-7-7-21-21-50-50-71-71-14-14-36-14-50 0-14 14-14 28-7 43 0 7 7 7 7 7 43 42 92 92 135 135 14 14 36 14 50 7 0 0 0 0 7-7 50-43 92-93 135-135 14-14 14-36 0-50-14-14-35-14-50 0-21 21-49 50-71 71 0-7-7-7-7 0" horiz-adv-x="1000" />

<glyph glyph-name="rapor-bilgi-en-cok-satilan-urun" unicode="&#xe832;" d="M178 351c0 100 0 200 0 299 0 19 13 38 35 38s34-13 37-31c0-4 0-7 0-7 0-199 0-395 0-594 3-16-6-32-18-38-16-9-38-3-47 16-3 6-3 9-3 15 0 25 0 50 0 75l-4 227m263 0c0-99 0-199 0-295 0-10-3-19-7-25-6-13-21-19-34-16-16 3-25 13-28 28 0 3 0 9 0 13 0 196 0 395 0 591-3 19 9 34 25 41s34-3 41-22c0-3 0-6 3-9 0-10 0-16 0-25v-281m-441 274c0 38 0 75 0 116-3 56 44 106 103 109 4 0 7 0 7 0 78 0 156 0 231 0 19 3 37-13 40-31v-4c0-18-15-37-37-34h-3c-75 0-153 0-228 0-19 0-38-12-41-34 0-3 0-6 0-9 0-78 0-153 0-231 0-15-9-31-25-37-15-6-31 0-40 15-3 7-7 16-7 22 0 41 0 81 0 118m1000 4c0-41 0-78 0-119 3-18-13-37-32-40-18-3-37 12-40 31 0 3 0 6 0 9 0 75 0 153 0 227 3 19-10 41-31 44-4 0-7 0-13 0-78 0-153 0-231 0-19 0-37 13-37 34 0 7 0 10 3 16 9 9 22 19 37 19 78 0 156 0 234 0 7 0 13 0 19-4 53-6 91-49 91-102 0-38 0-78 0-115l0 0z m-778-776c-37 0-75 0-112 0-60-3-110 44-110 103 0 3 0 3 0 6 0 78 0 153 0 231-3 18 13 37 32 40h3c19 0 37-15 34-37v-3c0-75 0-153 0-228-3-18 13-37 31-40 4 0 7 0 10 0 78 0 156 0 231 0 15 0 31-10 34-28 3-16-3-31-15-41-7-3-16-6-22-6-35 3-75 3-116 3m556 0c-41 0-78 0-119 0-18-3-37 13-40 31-3 19 12 38 31 41 3 0 6 0 9 0 75 0 153 0 228 0 19-3 38 12 41 31 0 3 0 6 0 9 0 78 0 153 0 231 0 18 12 37 34 37 6 0 10 0 16-3 12-3 22-19 22-34 0-63 0-125 0-184 0-22 0-47-3-69-7-49-53-90-103-90-38 0-79 0-116 0m44 604c0-65 0-127 0-193 0-18-16-37-35-37-9 0-18 3-28 12-6 10-12 19-9 31 0 106 0 209 0 315 0 25 0 47 0 72 0 18 12 34 31 34 19 3 34-10 38-25 0-6 3-9 3-16 0-65 0-130 0-193m-263 0c0 66 0 128 0 193 0 19 16 38 35 38 18 0 34-13 37-31 0-4 0-7 0-13 0-124 0-249 0-377 0-6 0-15-3-21-6-19-28-28-47-22-12 6-22 18-22 34 0 44 0 87 0 131v68m263-377c0-12 0-24 0-34 0-18-16-34-35-37-18 0-34 15-37 34l0 0c0 25 0 50 0 75 0 19 19 34 37 34 19 0 35-15 35-34 0-16 0-28 0-38m-263 0c0 13 0 25 0 38 0 19 16 34 32 34 18 3 34-12 37-28 3-28 3-56 0-84-3-19-19-31-37-28l0 0c-19 0-32 16-32 34 0 10 0 22 0 34" horiz-adv-x="1000" />

<glyph glyph-name="org-line" unicode="&#xe833;" d="M139-150h-139v1000h139v-1000z m389 611h-139v-611h139v611z m833 111h-139v-722h139v722z m-444 167h-139v-889h139v889z" horiz-adv-x="1361" />

<glyph glyph-name="sm-i-raporlar" unicode="&#xe834;" d="M1000 350v-331c0-82-56-150-137-163-13 0-25 0-32 0-218 0-443 0-662 0-94-6-169 63-169 157 0 6 0 6 0 6v662c0 94 69 169 163 169 0 0 0 0 6 0h662c94 0 169-69 169-162 0 0 0 0 0-7 0-112 0-218 0-331m-500 431h-325c-56 0-100-37-106-93 0 0 0-7 0-13v-656c0-57 37-100 94-107 0 0 6 0 12 0h656c57 0 100 38 107 94 0 0 0 7 0 13v656c0 56-38 100-94 106 0 0-6 0-13 0h-325m-106-431c0 69 0 131 0 200 0 56 44 100 100 100 56 0 100-44 100-100 0-56 0-112 0-169s0-156 0-237c0-56-50-100-106-94-50 0-94 44-94 94 0 69 0 137 0 200m131 6v194c0 0 0 6 0 12 0 19-25 32-37 25-13 0-25-18-25-31v-394c0-12 0-18 12-25 13-6 25-12 38 0 12 0 19 19 19 32v200m-407-113c0 31 0 69 0 100 0 56 44 100 100 100 44 0 82-25 94-69 0-12 0-25 0-31 0-62 0-131 0-194 0-56-44-100-100-100s-100 44-100 100h0v100h0z m69 0v-94c0-18 13-37 31-37s38 12 38 31c0 0 0 0 0 6v194c0 19-13 31-31 31s-32-12-32-31h0v-94m463-37c0 25 0 56 0 81 6 50 56 88 106 81 50 0 88-43 94-93 0-50 0-94 0-144 0-56-50-100-106-94-50 0-94 44-94 94 0 25 0 50 0 69h0m62 6v-63c0-18 13-31 32-31 18 0 31 13 31 31v125c0 19-13 32-31 32-19 0-32-13-32-32h0c0-18 0-43 0-62" horiz-adv-x="1000" />

<glyph glyph-name="sp-kart-detay-btn-yeni-siparis" unicode="&#xe835;" d="M168-150c-17 7-23 20-23 38 0 258 0 517 0 775 0 25 6 33 30 40 172 48 343 96 514 144 2 1 4 1 6 2 20 5 37-8 38-29 0-35 0-71 0-107 0-4 0-7 0-12 19 0 37 0 55 0 12 0 24 1 36 0 18 0 29-11 31-29 0-3 0-6 0-9 0-258 0-517 0-775 0-18-6-31-23-38-221 0-443 0-664 0z m37 59c197 0 394 0 590 0 0 131 0 261 0 392-32 0-63 0-95 0 0-5 0-8 0-11 0-19 0-38 0-57-1-25-23-38-45-26-14 8-27 16-41 23-2 2-4 2-7 4 1-5 2-8 4-11 12-32 18-65 15-100-1-19-14-30-31-29-16 1-27 13-27 32 0 9 0 19-1 28-5 50-29 92-62 129-1 2-3 3-5 5-36-36-71-98-68-159 0-7-1-15-5-22-5-11-19-16-32-13-12 4-20 14-21 29-3 35 3 68 16 101 1 3 2 6 3 10-5-2-8-4-11-5-13-8-25-16-39-23-16-9-37 0-41 17-2 5-2 11-2 16 0 20 0 41 0 61-32 0-64 0-95 0 0-130 0-260 0-391z m590 451c0 95 0 188 0 282-197 0-394 0-590 0 0-94 0-188 0-282 32 0 63 0 95 0 0 5 0 8 0 12 0 19 0 38 0 57 1 19 17 32 35 28 5-1 11-4 16-7 47-27 94-54 142-82 5-3 9-3 15 0 11 7 23 14 34 20 36 21 73 41 108 63 24 15 53 2 50-29-1-17 0-35 0-52 0-3 0-6 0-10 32 0 63 0 95 0z m-400 344c0-1 0-1 0-2 93 0 186 0 279 0 0 27 0 53 0 80-94-26-186-52-279-78z m-36-421c28 16 55 31 82 47-28 17-54 32-82 48 0-32 0-63 0-95z m282 95c-28-16-55-32-82-48 28-16 54-31 82-47 0 32 0 62 0 95z" horiz-adv-x="1000" />

<glyph glyph-name="siparis-liste-duzenle" unicode="&#xe836;" d="M1000 637c0-33-16-66-41-91-59-50-109-109-167-167-150-142-292-292-434-434-8-8-25-17-41-25-92-25-176-42-267-67-17-8-42 0-50 17 0 8 0 17 0 25 25 92 41 183 66 275 9 17 9 25 17 34 200 208 409 408 617 608 50 51 125 51 175 0l0 0c34-33 59-58 92-91 17-17 33-50 33-84m-683-625c158 158 325 325 483 484l-158 166-484-483 159-167m542 534c16 25 41 41 58 58s17 50 0 67c-33 33-67 66-92 100-25 16-58 16-75 0l0 0c-8-17-25-25-33-34-8-8-17-16-25-25l167-166m-776-609l158 41c-41 42-83 84-116 117-17-50-25-100-42-158" horiz-adv-x="1000" />

<glyph glyph-name="sp-kart-detay-btn-musteri-ekle" unicode="&#xe837;" d="M0 828c8 17 21 22 39 22 56-1 111 0 166 0 25 0 39-24 27-44-6-11-16-15-28-15-44 0-89 0-133 0-4 0-7 0-12 0 0-4 0-7 0-11 0-44 0-88 0-132 0-19-8-30-24-34-13-3-25 4-34 20 0 0 0 1-1 1 0 64 0 129 0 193z m941-37c-4 0-8 0-11 0-46 0-91 0-136 0-19 0-32 12-32 29 0 17 13 30 32 30 58 0 116 0 173 0 21 0 33-12 33-32 0-58 0-115 0-173 0-18-12-31-29-32-17 0-30 14-30 32 0 48 0 97 0 146z m-941-726c1 1 2 2 2 3 7 14 20 21 33 18 15-4 24-15 24-31 0-45 0-90 0-135 0-3 0-7 0-11 4 0 7 0 11 0 45 0 90 0 135 0 23-1 37-20 29-40-4-12-13-19-26-19-60 0-120 0-179 0-15 0-23 10-29 21 0 65 0 129 0 194z m941-156c0 4 0 8 0 11 0 45 0 89 0 134 0 19 12 32 30 32 17 0 29-13 29-32 0-57 0-114 0-172 0-20-12-32-33-32-57 0-114 0-171 0-19 0-32 12-32 29-1 17 13 30 32 30 48 0 96 0 145 0z m-556 435c-56 63-53 161 13 217 63 57 161 54 217-12 54-60 54-148 0-208l44-31c10-7 22-16 32-22 19-13 31-32 34-54 7-19 10-41 16-60 10-31-6-63-38-72-6-3-12-3-22-3-123 0-242 0-365 0-31 0-60 22-60 53 0 6 0 13 3 19 7 22 10 44 16 66 6 22 19 38 35 51 22 15 44 34 69 50 3 3 6 3 6 6m117-195h182c10 0 13 3 10 13-6 18-10 41-16 59-3 10-9 19-19 26-25 18-53 37-78 59-4 4-10 4-13 0-41-22-91-22-136 0-3 4-9 4-12 0-25-18-54-40-79-59-9-7-16-16-16-26-6-18-9-37-15-59-3-13 0-16 12-16l180 3m0 195c57 0 104 47 104 104s-48 104-104 104-104-47-104-104 44-104 104-104l0 0" horiz-adv-x="1000" />

<glyph glyph-name="sk-siparis-veren" unicode="&#xe838;" d="M789 850h-573c-60 0-111-50-111-105v-106h-35c-20-5-35-20-35-40s15-35 35-35h35v-181h-35c-20 0-35-15-35-35s15-36 35-36h35v-181h-35c-20 0-35-15-35-35s15-35 35-35h35v-105c0-61 51-106 106-106h573c100 0 181 80 181 181v638c5 101-76 181-176 181z m110-824c0-60-50-106-105-106h-578c-20 0-35 15-35 36l0 0v105h35c20 0 35 15 35 35s-15 35-35 35l0 0h-35v181h35c20 0 35 15 35 36s-15 35-35 35h-35v181h35c20 0 35 15 35 35s-15 35-35 35h-35v111c0 20 15 35 35 35l0 0h573c60 0 105-51 105-106v-648h5z m-326 322c80 0 146 65 146 145s-66 141-146 141-146-65-146-146l0 0c5-75 70-140 146-140z m0 216c40 0 70-31 70-71s-30-70-70-70c-40 0-71 30-71 70l0 0c0 35 31 71 71 71l0 0z m75-252h-146c-100 0-180-80-180-181v-35c0-20 15-35 35-35l0 0h432c20 0 35 15 35 35l0 0v35c0 101-80 181-176 181l0 0z m-251-181c0 61 50 106 105 106h146c60 0 106-50 106-106 0 0-357 0-357 0z" horiz-adv-x="1000" />

<glyph glyph-name="sk-ucret" unicode="&#xe839;" d="M500 850c-275 0-500-225-500-500s225-500 500-500 500 225 500 500-225 500-500 500m0-930c-235 0-430 190-430 430 0 235 190 430 430 430 235 0 430-190 430-430l0 0c0-235-195-430-430-430m170 430c0-125-85-230-210-250-5 0-5 0-10 0 0 0-5 5-5 10v255c5 5 5 10 10 10l180 65c5 0 10 5 10 10v30c0 5-5 10-10 10h-5l-170-60c-5 0-10 5-10 10 0 0 0 0 0 5v0c0 5 0 10 5 10l180 65c5 0 10 5 10 10v30c0 5-5 10-10 10h-5l-170-60c-5 0-10 0-10 10 0 0 0 0 0 5v135c0 5-5 10-10 10h-45c-5 0-10-5-10-10v-170c0-5-5-10-5-10l-110-40c-5 0-10-5-10-10v-30c0-5 5-10 10-10h5l90 35c5 0 5 0 10 0s5-5 5-10v-5c0-5 0-10-5-10l-105-40c-5 0-10-5-10-10v-25c0-5 5-10 10-10h5l90 35c5 0 5 0 10 0s5-5 5-10v-295c0-5 5-10 10-10 10 0 15 0 25 0 180 0 320 145 320 325l0 0-65-10 0 0z" horiz-adv-x="1000" />

<glyph glyph-name="search" unicode="&#xe83a;" d="M984-64l-171 171 0 0c64 79 100 179 100 286 0 236-179 428-414 457-14 0-28 0-43 0-14 0-28 0-42 0-236-29-414-221-414-457 0-250 207-457 456-457 107 0 207 35 286 100l0 0 171-172c7-7 21-14 35-14s29 7 36 14c21 22 21 50 0 72z m-884 457c0 193 157 357 356 357 193 0 357-157 357-357s-157-357-357-357c-192 0-356 157-356 357z" horiz-adv-x="1000" />

<glyph glyph-name="sp-kart-detay-btn-musteri-wp-sablon" unicode="&#xe83b;" d="M0 774c2 5 3 10 5 16 11 35 44 60 81 60 139 0 277 0 415 0 48 0 86-39 87-87 0-46 0-92 0-138 0-3 0-7 0-11 4 0 7 0 11 0 65 0 131 0 196-1 95 0 178-66 200-159 26-112-49-226-163-247-14-2-29-3-43-3-63-1-126-1-190-1-3 0-7 0-11 0 0-4 0-8 0-11 0-82 0-163 0-245 0-53-24-83-75-96 0 0-1-1-1-1-145 0-291 0-436 0-2 1-5 1-7 2-32 8-54 28-65 59-1 5-2 10-4 15 0 283 0 565 0 848z m529-162c0 49 0 96 0 144 0 24-11 35-35 35-133 0-267 0-400 0-24 0-35-11-35-35 0-271 0-541 0-812 0-24 11-35 35-35 133 0 267 0 400 0 24 0 35 10 35 34 0 84 0 168 0 252 0 4 0 7 0 10-7 4-12 3-18-3-15-16-31-31-46-46-10-10-21-14-35-9-13 6-18 17-18 31 0 26 1 53 0 79 0 5-2 12-6 15-84 94-64 240 41 309 25 16 52 26 82 31z m-58-364c1-1 2-1 3-2 3 4 6 7 9 11 10 13 24 15 40 11 13-3 27-5 41-6 75 0 149 0 224 0 9 0 19 1 28 2 68 9 124 73 125 141 2 80-65 149-145 150-80 1-160 0-240 0-23 0-44-6-64-16-89-46-107-164-35-234 10-10 15-20 14-34-1-8 0-16 0-23z m-176-222c10 0 20 0 29 0 17-1 30-14 30-30 0-16-13-28-30-29-19 0-39 0-59 0-16 1-29 14-29 30 1 16 13 28 29 29 10 0 20 0 30 0z m29 677c0-15-13-29-29-29-16 0-30 14-29 30 0 16 14 29 29 29 16 0 29-14 29-30z m234-265c16 0 30-13 30-29 0-16-13-30-30-30-15 0-29 14-29 30 0 15 14 29 29 29z m147-30c0-15-13-29-29-29-16 0-30 14-29 30 0 16 13 29 29 29 16 0 29-14 29-30z m88 30c16 0 29-14 29-29 0-17-14-30-30-30-16 1-29 14-28 30 0 16 14 29 29 29z" horiz-adv-x="1000" />

<glyph glyph-name="rapor-bilgi-en-cok-siparis-veren-musteri" unicode="&#xe83c;" d="M0 348c0 129 0 257 0 389-3 56 41 110 101 113 3 0 9 0 12 0 257 0 517 0 774 0 60 3 110-41 113-100 0-4 0-10 0-13 0-257 0-517 0-774 3-60-41-110-100-113-3 0-10 0-13 0-257 0-517 0-774 0-60-3-110 41-113 100 0 3 0 10 0 13 0 128 0 257 0 385m931-354v743c3 19-9 38-31 41-4 0-7 0-13 0h-774c-28 0-41-13-41-44v-740c28 60 69 110 116 154 47 44 104 75 166 97-116 82-141 241-62 354s241 144 354 63c9-6 19-16 28-22 47-44 75-104 81-169 7-88-34-173-103-223 63-22 119-53 166-97 44-44 85-97 113-157m-50-75c-63 210-285 326-495 263-126-37-226-137-264-263 0 0 759 0 759 0z m-379 351c100 0 181 82 181 182s-81 182-181 182-182-82-182-182c0-97 81-182 182-182l0 0" horiz-adv-x="1000" />

<glyph glyph-name="sk-karti-duzenle" unicode="&#xe83d;" d="M984 674c-19 29-47 66-75 94-28 28-66 47-94 66-47 28-103 18-140-19l-562-562c-10 0-10 0-10-10l-103-346c0-10 0-10 0-19 5-9 9-16 16-20 8-8 17-8 31-8l347 103 9 9 562 563c21 20 32 47 34 75 3 25-1 51-15 74z m-47-56c0-9 0-9 0-19s0-18-9-28l-534-524v28l543 543z m-721-656c-29 47-66 75-104 104l29 93 46-65c0-10 19-10 29-10l112 10 19-94-131-38z m534 834c9 0 28 0 37-9 8-8 15-10 23-15l-604-603-37 56 552 552c0 10 19 19 29 19z" horiz-adv-x="1000" />

<glyph glyph-name="siparis-liste-sil" unicode="&#xe83e;" d="M107 633h-34c-25 0-41 17-41 34s16 33 33 41c0 0 0 0 8 0h209v25c0 59 41 117 100 117 8 0 8 0 16 0 67 0 134 0 200 0 59 0 109-42 117-100v-8-34h17c66 0 133 0 200 0 16 0 33-8 33-25 8-16 0-25-8-41-9-9-17-9-25-9-9 0-25 0-34 0 0-16 0-41-8-58-17-92-25-192-33-292-9-83-17-175-25-258 0-25-9-58-9-83-8-50-50-92-100-92-150 0-300 0-450 0-58 0-100 50-100 100-16 108-25 217-33 317-8 108-17 208-25 308-8 25-8 42-8 58m75 0c0-8 0-16 0-16 8-67 8-142 16-209 9-75 17-141 17-208 8-75 17-158 25-233 0-25 17-42 42-42h425c16 0 41 8 41 33v9c9 50 17 100 17 150l25 233c8 67 17 142 17 208 0 25 0 42 8 67l-633 8z m458 75c0 17 0 25 0 42s-17 33-33 33c-75 0-142 0-217 0-17-8-33-16-33-33s0-25 0-42h283z m-250-641c0-17-8-42-33-42l0 0c-17 0-34 17-42 33l0 0-25 334c0 33-8 66-8 100 0 16 8 33 25 41s41-8 41-25v-8c9-83 17-158 17-242l17-175c8-8 8-8 8-16m217 0c0 58 8 116 8 175 8 66 8 133 17 200 0 16 0 33 8 58 0 17 17 33 42 33 16 0 33-16 33-33-8-42-8-67-17-100 0-67-8-133-16-200 0-42-9-92-9-133 0-17-16-34-41-34-25 0-34 17-25 34m-75 208c0-67 0-142 0-208 0-17-17-34-34-34-16 0-33 9-41 34l0 0c0 58 0 116 0 183 0 83 0 167 0 242 0 16 16 33 33 33 8 0 8 0 17 0 16-8 25-17 25-33v-217" horiz-adv-x="1000" />

<glyph glyph-name="sk-teslim-kisisi" unicode="&#xe83f;" d="M503 351c140 0 251 110 251 251 0 141-111 251-251 251-141 0-252-110-252-251 0-141 111-251 252-251z m0 432c100 0 180-81 180-181s-80-181-180-181c-101 0-181 80-181 181l0 0c0 100 80 181 181 181z m105-503h-216c-181 0-322-145-322-321l0 0v-71c0-20 15-35 36-35l0 0h789c20 0 35 15 35 35l0 0v71c0 176-141 321-322 321l0 0z m251-362h-718v36c0 140 110 251 251 251h216c141 0 251-111 251-251v-36z" horiz-adv-x="1000" />

<glyph glyph-name="sk-urun-yazisi" unicode="&#xe840;" d="M97-150c-20 10-20 20-10 35 35 55 70 115 99 170 0 5 5 5 5 10-5 0-5 5-10 5-29 10-59 20-84 30-10 5-15 10-15 19s5 20 15 20c60 25 119 55 179 80 5 0 5 5 10 5-15 10-35 20-50 30-35 20-35 15-35 60 0 70 0 145 0 215 0 15 5 25 20 30 220 94 439 189 654 284 5 0 5 0 10 5 10 5 15 0 20-5s5-15 5-20-5-5-5-10l-100-170c0-5-5-5-5-10l40-15c20-5 40-15 60-20 10 0 15-10 20-19 0-10-5-15-15-20-60-25-120-55-180-80l-10-5c25-15 45-25 65-40 10-5 15-15 15-30 0-80 0-160 0-235 0-10-5-25-20-30-224-94-439-189-658-284-5 0-5-5-10-5h-10z m648 529l-584-255 65-25c20-5 25-19 15-39l-79-135c0-5-5-5-5-10 5 0 10 5 10 5l139 60c145 65 290 124 429 189 5 0 10 10 10 15 0 25 0 50 0 75v120z m95 404c-5 0-5 0-10-5-190-85-384-170-574-254-5 0-10-5-5-10 0-65 0-125 0-190 0 0 0-5 0-10l584 254-70 30c-20 5-25 20-15 35 20 35 45 70 65 105 10 15 15 30 25 45m-120-369c-20 10-40 25-55 35-5 5-10 5-15 0-89-40-174-75-264-115l-115-50c20-10 40-25 60-35 5-5 10-5 15 0 85 35 165 75 250 110l124 55" horiz-adv-x="1000" />

<glyph glyph-name="saat" unicode="&#xe841;" d="M500 850c275 0 500-225 500-500s-225-500-500-500-500 225-500 500 225 500 500 500l0 0m425-467c-17 209-183 375-392 392v-8c0-17 0-42 0-59 0-25-16-41-33-33-17 0-33 8-33 25 0 8 0 8 0 17 0 16 0 41 0 58-209-17-375-183-392-392h67c8 0 25-8 33-16 8-9 8-25 0-34-8-8-17-16-33-16-25 0-50 0-67 0 17-209 183-375 392-392l0 0c0 25 0 42 0 67 0 16 8 25 16 33 17 8 42 0 50-17 0-8 9-8 9-16 0-25 0-50 0-67 208 17 375 183 391 392l0 0h-66c-17 0-25 8-34 25-8 16 0 41 17 50 8 0 8 0 17 0 16-9 33-9 58-9m-458 75c0 34 0 67 0 100-9 25 8 42 33 42 17 0 33-8 42-33v-9c0-58 0-125 0-183 0-8 0-17 8-17 25-33 50-58 83-91 9-9 17-25 9-42-9-8-25-17-34-17s-16 0-25 9c-33 33-75 75-108 108-8 8-8 17-8 25 0 33 0 75 0 108" horiz-adv-x="1000" />

<glyph glyph-name="sm-i-dashboard" unicode="&#xe842;" d="M235 382c-42 0-83 0-129 0-54-4-100 42-104 96 0 4 0 4 0 8 0 87 0 170 0 257-4 54 42 100 96 104 4 0 4 0 8 0 87 0 170 0 257 0 54 4 100-42 104-96 0-4 0-4 0-8 0-87 0-170 0-257 4-54-42-100-96-104-4 0-4 0-8 0-41 0-87 0-128 0m0 398h-129c-17 5-33-12-37-29 0-4 0-4 0-8 0-87 0-170 0-257 0-17 12-33 29-37 4 0 4 0 8 0h257c17 0 33 12 37 29 0 4 0 4 0 8 0 87 0 174 0 257 5 17-12 33-29 37-4 0-4 0-8 0h-128m763-165c0-42 0-88 0-129 4-54-42-100-96-104-4 0-4 0-8 0-87 0-170 0-257 0-54-4-100 42-104 96 0 4 0 4 0 8 0 87 0 170 0 257-4 54 42 100 96 104 4 0 4 0 8 0 87 0 170 0 257 0 54 4 100-42 104-96 0-4 0-4 0-8 0-41 0-87 0-128m-232 165h-129c-17 5-33-12-37-29 0-4 0-4 0-8 0-87 0-170 0-257 0-17 12-33 29-37 4 0 4 0 8 0h257c17-5 33 12 37 29 0 4 0 4 0 8 0 87 0 170 0 257 0 17-12 33-29 37-4 0-4 0-8 0h-128m-531-929c-42 0-83 0-129 0-54-4-100 42-104 96 0 4 0 4 0 8 0 87 0 170 0 257 0 54 42 100 96 104 4 0 4 0 8 0 87 0 174 0 257 0 54 0 100-42 104-96 0-4 0-4 0-8 0-87 0-174 0-261 0-54-42-100-96-104h-4c-45 4-91 4-132 4m0 398h-129c-17 5-37-8-37-29 0-4 0-8 0-8 0-87 0-170 0-257-4-17 12-37 29-37 4 0 4 0 8 0h257c17-5 37 12 37 29 0 4 0 4 0 8 0 87 0 170 0 257 5 17-12 33-29 37-4 0-4 0-8 0l-128 0m298-165c0 128 104 232 233 232s232-104 232-232-104-233-232-233-233 104-233 233l0 0m233-166c91 0 165 74 165 166s-74 166-165 166-166-75-166-166 74-166 166-166" horiz-adv-x="1000" />

<glyph glyph-name="partner-siparis" unicode="&#xe843;" d="M0 513c7 8 14 15 21 22 78 79 156 158 234 236 19 19 33 19 52 0 26-25 51-50 76-76 9-9 19-13 32-13 56 0 111 0 167 0 13 0 23 4 31 13 26 27 53 53 79 79 17 18 33 18 50 1 82-83 164-166 246-249 16-16 16-32 0-48-26-26-52-52-78-78-9-9-14-19-14-33-1-32-10-63-29-90-3-5-2-8 1-12 26-41 19-89-18-120-13-11-28-17-44-18-6-1-7-3-8-9-6-41-35-70-76-76-6-1-8-4-9-9-8-50-45-80-95-77-15 1-29 6-41 14-4 2-7 5-10 7-13-23-29-41-51-53-46-25-101-7-123 40-1 2-3 5-4 8-19-5-37-7-55-1-35 12-56 35-62 71-1 7-3 11-12 12-34 4-66 34-72 69-1 4-2 9-2 13-13 4-25 6-36 12-49 26-63 84-33 130 2 3 3 8 1 11-12 22-17 45-18 70-1 21-10 37-24 52-22 21-44 43-65 65-4 4-7 8-11 12 0 8 0 17 0 25z m437-331c1-1 1-1 2-2 29-15 46-38 51-71 0-2 3-5 5-6 28-3 48-18 66-37 14-15 29-29 44-43 17-17 44-9 50 14 3 13-1 23-10 32-17 17-34 34-51 51-7 7-11 15-10 25 1 12 8 20 19 24 11 5 22 3 31-6 18-18 35-35 53-53 7-8 16-12 28-10 12 2 20 8 24 20 4 12 1 23-8 32-17 18-34 34-51 52-4 5-9 11-10 18-4 13 3 25 14 31 12 7 25 5 35-5 17-17 34-35 52-52 5-5 13-9 20-11 13-3 25 4 31 16 6 12 4 26-7 37-65 65-129 130-193 195-3 2-8 4-12 4-31-2-59 3-87 16-5 2-11 3-16 4-16 1-26-8-36-19-50-54-134-62-193-18-22 16-24 32-7 52 41 48 81 96 121 145 2 2 3 4 6 8-25 3-43 15-59 31-17 18-34 34-51 52-2 2-5 4-5 4-72-71-143-140-215-211 17-17 33-33 49-49 26-25 41-56 42-92 1-10 3-20 4-32 25 24 52 35 83 30 32-5 54-24 68-53 40 18 77 16 107-15 32-31 34-68 16-108z m-103 274c16-6 30-7 45-4 24 3 41 17 57 34 20 21 45 32 73 29 16-2 32-8 48-13 22-7 45-9 68-3 32 9 55 29 71 57 9 16 27 21 41 12 15-9 18-26 9-42-15-26-34-47-59-63-3-1-5-3-8-5 48-47 96-94 144-141 9 15 14 32 14 51 0 32 14 57 37 79 19 17 37 36 57 55-73 71-145 141-216 211-16-16-36-33-53-52-24-27-53-39-89-37-27 1-54-1-81-1-13 0-23-5-32-16-20-26-42-50-63-76-21-24-41-49-63-75z m-90-309c0-18 6-27 18-33 12-6 24-4 33 6 29 28 58 57 86 86 12 13 11 32-1 43-12 12-30 12-43-1-28-27-56-55-83-83-5-6-8-14-10-18z m19 118c-1 18-7 27-19 33-11 5-23 3-32-6-15-14-29-28-44-43-12-13-11-33 1-44 12-12 30-12 43 1 14 14 28 27 41 41 5 6 8 14 10 18z m100-239c3 1 11 3 16 8 16 15 31 30 46 46 10 11 9 30-2 41-10 10-28 13-39 3-17-15-34-32-49-50-9-9-9-21-3-32 6-10 15-16 31-16z m110-55c15 0 38 20 42 36 5 22-12 41-34 37-12-2-34-22-37-34-5-20 9-39 29-39z" horiz-adv-x="1000" />

<glyph glyph-name="rapor-bilgi-en-cok-satis-yapilan-gun" unicode="&#xe844;" d="M458 566v68h-13c-43 0-87 0-131 0-59 0-106 50-106 110 3 59 50 106 109 106l0 0c119 0 234 0 353 0 6 0 16 0 22-3 59-9 97-66 88-125-10-44-41-78-85-84-9 0-19-4-28-4-44 0-91 0-134 0v-71h12c66 0 131 0 197 0 59 3 109-44 113-104 0-3 0-6 0-9 0-25 0-50 0-75 0-9 3-22 9-31 37-69 78-138 116-203 12-22 18-44 18-69 0-38 0-75 0-113 3-59-43-109-103-109-3 0-6 0-6 0-259 0-519 0-778 0-59-3-109 44-109 103 0 3 0 3 0 6 0 38 0 79 0 116 0 22 6 44 15 63 41 68 78 137 119 206 6 9 6 19 9 31 0 25 0 50 0 75-3 59 41 109 100 113 3 0 10 0 13 0 65 0 131 0 194 0l6 3z m-391-503c0-35 0-69 0-107 0-18 16-37 35-37h3c259 0 522 0 781 0 19 0 37 12 37 34 0 3 0 3 0 6 0 32 0 63 0 94 0 3 0 7 0 10h-856z m831 72c0 3-3 6-3 6-31 56-62 109-94 165-3 7-9 7-15 7-194 0-388 0-581 0-7 0-13-3-16-10-31-53-59-106-91-159-3-3-3-6-6-9l806 0z m-687 253h572c0 21 0 43 0 65 3 19-10 38-31 44-4 0-7 0-13 0h-487c-4 0-7 0-10 0-19 0-31-16-34-34 0-29 3-50 3-75m284 390c-56 0-115 0-172 0-6 0-9 0-15 0-16-6-28-22-25-40 3-19 19-32 37-32 116 0 235 0 350 0 19-3 38 13 41 32 3 18-13 37-31 40-4 0-7 0-10 0-59 0-115 0-175 0m35-784c0-19-16-35-38-35-19 0-34 16-34 38 0 19 15 34 37 34l0 0c19-3 35-18 35-37m-250 269c6 0 12 0 18 0 19 0 32-16 35-32 3-18-10-34-28-37-19-3-35-3-53 0-19 3-32 19-29 37 4 19 16 32 35 32 9 0 15 0 22 0l0 0m215 0c7 0 13 0 19 0 16 0 31-16 31-32 3-18-9-34-25-37-18-3-37-3-56 0-16 3-28 22-25 37 3 19 16 32 34 32 10 0 16 0 22 0l0 0m216 0c6 0 12 0 19 0 18 0 31-16 34-32 3-15-9-34-25-37-19-3-38-3-56 0-19 3-28 19-25 37 3 19 15 32 34 32 3 0 13 0 19 0" horiz-adv-x="1000" />

<glyph glyph-name="sm-i-ayarlar" unicode="&#xe845;" d="M855 251l-34-84c17-17 34-29 55-50 29-25 33-67 8-96-4 0-8-5-13-5-12-12-25-25-41-42-26-29-67-29-97-4l-4 4c-17 17-33 34-50 51-4 4-8 4-13 4-21-8-41-17-62-25-5 0-9-9-9-13 0-25 0-46 0-71 0-38-29-67-67-67 0 0 0 0-4 0-21 0-42 0-63 0-37 0-67 29-67 67v4c0 25 0 50 0 76l-79 33c-17-17-38-38-54-54s-42-25-67-17c-13 4-21 8-30 17-16 12-29 29-46 46-25 25-29 67-4 92l4 4c17 17 34 33 50 50 5 4 5 9 5 13-9 21-17 42-25 62-5 5-5 9-13 9-25 0-46 0-71 0-38 0-67 29-67 67l0 0c0 21 0 42 0 67 0 37 29 67 67 67l0 0c25 0 54 0 79 0l34 79-50 46c-30 25-34 67-13 96 4 5 8 9 13 13 12 13 25 25 41 42 26 25 67 29 97 4l4-4c17-17 33-34 50-50 4-5 8-5 13-5 21 9 41 17 62 26 5 0 9 4 9 12 0 25 0 46 0 71 0 38 29 67 67 67h4c21 0 42 0 63 0 37 0 67-29 71-63v-4c0-25 0-50 0-75l79-34c17 17 34 34 55 51 25 29 67 29 96 8-8-4-4-8-4-13 12-12 25-25 42-37 29-25 33-67 8-97-4 0-8-4-8-4-17-16-34-33-46-46-5-4-5-8-5-12 9-21 17-42 25-63 0-4 5-8 9-8 25 0 46 0 71 0 38 0 67-30 67-67 0 0 0 0 0-5 0-20 0-41 0-66 0-38-29-67-67-67l0 0c-21 0-50 0-75 0l0 0m-791 67h75c34 0 63-21 71-51 9-21 13-37 25-58 17-29 13-67-16-88-17-17-34-34-51-50 17-17 34-34 46-46l0 0c17 17 34 33 55 54 21 25 54 29 84 13 20-9 41-21 66-25 30-9 46-34 46-63 0-25 0-46 0-71v-9h67c0 0 0 0 0 4 0 26 0 51 0 80 0 29 21 54 46 63 21 8 47 16 67 29 26 13 59 8 80-13 17-16 33-33 46-46 4-4 4-4 8-8l46 46c-16 17-37 38-54 54-21 21-25 51-13 80 13 21 21 46 30 71 8 21 25 38 50 46 8 0 12 0 21 0 25 0 46 0 71 0v67c0 0 0 0-4 0-25 0-46 0-71 0-34-4-63 21-71 50-9 21-17 38-26 59-12 17-8 54 21 75l51 50-46 46c-17-16-38-37-55-54-21-21-54-25-79-13-21 9-42 21-67 30-30 8-46 37-46 67 0 21 0 46 0 67v12h-67c0-25 0-50 0-79s-21-59-50-67c-26-9-47-17-67-25-30-17-59-9-80 12-17 17-33 30-50 46-4 4-4 4-4 9l-51-51c21-16 38-33 55-54 21-21 25-50 12-79-8-21-16-47-25-67-8-30-33-46-62-46-21 0-38 0-59 0h-25v-67z m435-134c-92 0-167 75-167 167s75 167 167 167 167-75 167-167-75-167-167-167l0 0m-100 167c0-54 46-100 100-100s100 46 100 100-46 100-100 100l0 0c-54 0-100-46-100-100" horiz-adv-x="1000" />

<glyph glyph-name="sm-i-musteriler" unicode="&#xe846;" d="M350 344c-75 81-69 212 13 287s212 69 287-12c69-75 69-194 0-275l56-44c13-12 25-19 44-31 25-19 44-44 50-75 6-25 13-56 19-81 12-38-6-82-50-94-6 0-19 0-25 0h-481c-44 0-75 31-82 75 0 6 0 19 0 25 7 31 13 56 19 87 6 25 25 50 44 69 31 25 62 44 87 69 0 0 0 0 7 6m162-269h238c12 0 18 0 12 19-6 25-12 56-19 81 0 13-12 25-25 38-37 25-68 50-106 75 0 0-12 0-19 0-56-25-125-25-181 0 0 0-12 0-19 0-37-25-68-50-106-81-12-7-19-19-25-32-6-25-12-50-19-75 0-18 0-18 19-18h238m12 256c75 0 138 62 138 137s-63 138-138 138-137-63-137-138c0-75 62-137 137-137h0m-500 344c0 25 0 56 0 81 13 44 50 81 94 81 44 0 94 0 137 0 19 0 32-19 32-37 0-13-13-25-32-32-43 0-87 0-125 0-18 0-37-12-37-31 0 0 0 0 0-6v-125c0-19-13-38-31-38 0 0 0 0 0 0-19 0-32 13-32 32 0 0 0 0 0 0v62h0m994 13v-69c0-19-12-31-31-31-19 0-31 12-31 31v125c0 19-13 37-32 37 0 0 0 0-6 0h-125c-19 0-37 13-37 32 0 0 0 0 0 0 0 18 12 31 31 31 0 0 0 0 0 0h125c56 0 100-44 106-94 0 0 0 0 0-6v-63m-837-831c-25 0-57 0-82 0-50 6-81 44-81 94 0 43 0 94 0 137 0 19 13 38 31 38 19 0 38-13 38-31 0 0 0 0 0 0 0-44 0-88 0-126 0-18 12-37 31-37 0 0 0 0 6 0h119c25 0 38-13 44-31s-13-32-44-32h-62m837 151c0-26 0-57 0-82-6-44-44-81-94-81-43 0-93 0-137 0-19 0-38 12-38 31s13 38 32 38c0 0 0 0 0 0 43 0 87 0 125 0 18 0 37 12 37 31 0 0 0 0 0 6v125c0 19 13 32 31 32 19 0 32-13 32-32h0v-62h0" horiz-adv-x="1000" />

<glyph glyph-name="siparis-tasi" unicode="&#xe847;" d="M0 524h417 583v-42-41h-583-417v41 42z m542-342h458v50 42h-458-42v-50-42h42z" horiz-adv-x="1000" />

<glyph glyph-name="sk-urun-bilgisi" unicode="&#xe848;" d="M899 744h-793c-56 0-106-50-106-110l0 0v-573c0-60 50-105 106-105h788c60 0 106 50 106 105v573c5 60-46 110-101 110z m35-683c0-20-15-35-35-35l0 0h-793c-21 0-36 15-36 35l0 0v573c0 20 15 35 36 35l0 0h788c20 0 35-15 35-35l0 0v-573h5z m-432 538c-20 0-35-15-35-35v-252c0-20 15-35 35-35 20 0 36 15 36 35v252c0 20-16 35-36 35l0 0z m146 0c-20 0-35-15-35-35l0 0v-252c0-20 15-35 35-35s35 15 35 35v252c0 20-15 35-35 35l0 0z m141 0c-20 0-35-15-35-35l0 0v-432c0-21 15-36 35-36 20 0 35 15 35 36v432c0 20-15 35-35 35l0 0z m-432 0c-20 0-35-15-35-35v-252c0-20 15-35 35-35 20 0 35 15 35 35l0 0v252c5 20-15 35-35 35l0 0z m291-397c-20 0-35-15-35-35l0 0v-36c0-20 15-35 35-35s35 15 35 35v36c0 20-15 35-35 35l0 0z m-146 0c-20 0-35-15-35-35l0 0v-36c0-20 15-35 35-35 20 0 36 15 36 35v36c0 20-16 35-36 35l0 0z m-145 0c-20 0-35-15-35-35l0 0v-36c0-20 15-35 35-35 20 0 35 15 35 35l0 0v36c5 20-15 35-35 35l0 0z m-141 397c-20 0-35-15-35-35l0 0v-432c0-21 15-36 35-36 20 0 35 15 35 36v432c0 20-15 35-35 35l0 0z" horiz-adv-x="1000" />

<glyph glyph-name="sp-kart-detay-btn-partner-siparis-ekle" unicode="&#xe849;" d="M0 513c7 8 14 15 21 22 78 79 156 158 234 236 19 19 33 19 52 0 26-25 51-50 76-76 9-9 19-13 32-13 56 0 111 0 167 0 13 0 23 4 31 13 26 27 53 53 79 79 17 18 33 18 50 1 82-83 164-166 246-249 16-16 16-32 0-48-26-26-52-52-78-78-9-9-14-19-14-33-1-32-10-63-29-90-3-5-2-8 1-12 26-41 19-89-18-120-13-11-28-17-44-18-6-1-7-3-8-9-6-41-35-70-76-76-6-1-8-4-9-9-8-50-45-80-95-77-15 1-29 6-41 14-4 2-7 5-10 7-13-23-29-41-51-53-46-25-101-7-123 40-1 2-3 5-4 8-19-5-37-7-55-1-35 12-56 35-62 71-1 7-3 11-12 12-34 4-66 34-72 69-1 4-2 9-2 13-13 4-25 6-36 12-49 26-63 84-33 130 2 3 3 8 1 11-12 22-17 45-18 70-1 21-10 37-24 52-22 21-44 43-65 65-4 4-7 8-11 12 0 8 0 17 0 25z m437-331c1-1 1-1 2-2 29-15 46-38 51-71 0-2 3-5 5-6 28-3 48-18 66-37 14-15 29-29 44-43 17-17 44-9 50 14 3 13-1 23-10 32-17 17-34 34-51 51-7 7-11 15-10 25 1 12 8 20 19 24 11 5 22 3 31-6 18-18 35-35 53-53 7-8 16-12 28-10 12 2 20 8 24 20 4 12 1 23-8 32-17 18-34 34-51 52-4 5-9 11-10 18-4 13 3 25 14 31 12 7 25 5 35-5 17-17 34-35 52-52 5-5 13-9 20-11 13-3 25 4 31 16 6 12 4 26-7 37-65 65-129 130-193 195-3 2-8 4-12 4-31-2-59 3-87 16-5 2-11 3-16 4-16 1-26-8-36-19-50-54-134-62-193-18-22 16-24 32-7 52 41 48 81 96 121 145 2 2 3 4 6 8-25 3-43 15-59 31-17 18-34 34-51 52-2 2-5 4-5 4-72-71-143-140-215-211 17-17 33-33 49-49 26-25 41-56 42-92 1-10 3-20 4-32 25 24 52 35 83 30 32-5 54-24 68-53 40 18 77 16 107-15 32-31 34-68 16-108z m-103 274c16-6 30-7 45-4 24 3 41 17 57 34 20 21 45 32 73 29 16-2 32-8 48-13 22-7 45-9 68-3 32 9 55 29 71 57 9 16 27 21 41 12 15-9 18-26 9-42-15-26-34-47-59-63-3-1-5-3-8-5 48-47 96-94 144-141 9 15 14 32 14 51 0 32 14 57 37 79 19 17 37 36 57 55-73 71-145 141-216 211-16-16-36-33-53-52-24-27-53-39-89-37-27 1-54-1-81-1-13 0-23-5-32-16-20-26-42-50-63-76-21-24-41-49-63-75z m-90-309c0-18 6-27 18-33 12-6 24-4 33 6 29 28 58 57 86 86 12 13 11 32-1 43-12 12-30 12-43-1-28-27-56-55-83-83-5-6-8-14-10-18z m19 118c-1 18-7 27-19 33-11 5-23 3-32-6-15-14-29-28-44-43-12-13-11-33 1-44 12-12 30-12 43 1 14 14 28 27 41 41 5 6 8 14 10 18z m100-239c3 1 11 3 16 8 16 15 31 30 46 46 10 11 9 30-2 41-10 10-28 13-39 3-17-15-34-32-49-50-9-9-9-21-3-32 6-10 15-16 31-16z m110-55c15 0 38 20 42 36 5 22-12 41-34 37-12-2-34-22-37-34-5-20 9-39 29-39z" horiz-adv-x="1000" />

<glyph glyph-name="teslim-tarihi-ve-saati" unicode="&#xe84a;" d="M534 780v-75c88-6 175-43 237-99 19 18 38 37 56 56 13 12 38 12 50 0 7-6 7-13 13-19 6-12 0-25-13-37-6-7-18-19-25-25-6-6-18-19-25-25 81-94 113-218 94-343-13-94-56-175-125-243-162-162-436-162-598 6s-162 436 6 605c68 68 162 112 262 124v69c-6 0-6 0-13 0-18 0-43 0-62 0s-37 19-37 37c6 19 18 38 37 38l0 0c75 0 143 0 218 0 19 0 38-19 31-38 0-18-12-37-37-37-19 6-44 6-69 6m-31-860c200 0 356 156 356 355s-156 356-356 356c-199 6-355-156-355-350-6-199 156-355 355-361m-37 467c0 38 0 69 0 106 0 19 12 38 31 38s37-13 37-31v-7c0-62 0-124 0-187 0-6 0-12 7-18 37-31 62-63 93-94 13-12 13-25 6-43-6-13-18-19-37-19-6 0-19 6-25 12-31 38-69 75-100 106-6 13-12 19-12 32 0 31 0 68 0 105" horiz-adv-x="1000" />

<glyph glyph-name="sp-kart-detay-btn-wp-listesi-paylas" unicode="&#xe84b;" d="M0-129c0 6 0 11 0 16 1 2 2 3 2 5 18 73 36 145 54 217 1 5 0 11-2 16-22 44-38 91-46 140-3 18-5 36-8 54 0 21 0 41 0 62 1 12 3 24 4 36 14 93 49 176 109 249 79 95 179 154 301 176 18 4 36 6 55 8 21 0 41 0 62 0 3-1 6-1 9-2 38-2 75-9 110-21 188-66 303-197 342-392 4-18 6-36 8-54 0-21 0-41 0-62-1-3-1-5-2-8-4-26-6-52-12-78-44-190-207-343-400-375-18-3-36-6-55-8-21 0-41 0-62 0-3 1-5 1-8 2-66 5-128 22-187 52-5 2-11 3-16 1-50-11-99-24-148-36-24-6-49-13-73-19-5 0-10 0-16 0-9 5-16 12-21 21z m70 49c3 1 5 1 6 1 59 15 117 29 175 44 16 4 29 2 44-5 133-68 269-71 402-4 179 89 271 277 237 474-35 199-213 354-414 361-110 4-208-27-294-95-107-87-163-200-167-339-2-76 16-148 53-216 6-11 7-22 4-34-10-40-20-79-30-119-5-22-10-44-16-68z m141 573c0 61 37 120 92 143 39 16 74 10 104-18 21-20 40-41 53-66 22-42 15-80-21-110-11-9-21-18-33-25-7-5-8-10-3-17 13-20 26-41 41-60 26-33 59-61 96-82 19-11 19-11 32 6 8 10 16 20 24 29 25 29 58 37 93 23 38-15 68-41 91-75 24-34 19-78-9-115-40-52-93-71-157-64-57 7-108 31-156 61-106 65-181 156-228 271-13 30-20 61-19 99z m58 1c0-36 8-63 19-89 52-119 138-207 256-262 32-15 66-26 102-23 37 2 65 19 84 51 9 14 10 30-2 42-16 16-33 32-52 44-17 12-27 9-40-7-11-13-21-27-32-41-13-15-30-22-49-18-16 4-32 9-46 18-54 31-98 74-134 124-14 19-26 39-32 61-7 26-1 47 21 63 12 9 24 19 35 28 17 13 20 24 8 42-10 15-21 28-33 41-22 24-42 24-66 3-27-22-39-50-39-77z" horiz-adv-x="1000" />

<glyph glyph-name="tl-simge" unicode="&#xe84c;" d="M730 701c0-27 0-54 0-81l-14-13c-94-27-189-68-270-95-27-13-27-13-27-40l311 108c0-27 0-54 0-81l-14-14c-94-40-189-67-270-94-14 0-14-14-14-27 0-136 0-257 0-392v-14c95 14 176 54 244 135 67 68 94 163 94 257h108c0-270-216-500-500-500-13 0-40 0-54 0v487l-202-68c0 27 0 54 0 81l13 14c54 13 95 40 149 54 27 13 27 13 27 40l-189-67c0 40 0 54 0 81l13 13c54 14 95 41 149 54 13 0 27 14 27 41l0 0c0 81 0 162 0 243 0 27 13 27 27 27 27 0 54 0 81 0v-257l311 108" horiz-adv-x="1000" />

<glyph glyph-name="telefon" unicode="&#xe84d;" d="M708-150c-58 0-116 17-166 50-159 117-300 250-425 400-34 33-59 75-84 117-16 50-33 100-33 150 0 58 25 125 67 166l58 67c42 58 117 67 158 25 9-8 17-8 17-17 42-50 83-100 117-141 41-50 33-117-17-159 0 0 0 0 0 0 0-16-8-16-17-25-16-16-25-41-8-66 0 0 0 0 0 0 58-67 117-125 175-175l17-17c16-17 50-17 66 0 0 0 0 8 9 8 16 34 50 59 83 59 25 8 58 0 83-25 50-42 100-84 150-125 50-42 50-117 17-159 0 0-8-8-8-8-34-33-67-58-100-83-42-25-100-42-159-42m0 67c42 0 92 16 125 41 25 25 59 50 84 67 16 17 25 50 8 67 0 0 0 8-8 8-50 42-100 83-150 117-17 16-42 16-59-9 0 0 0 0 0 0-8-8-16-16-25-25-41-50-116-50-166-8 0 0 0 0 0 0-67 58-125 125-192 192-42 50-33 125 8 166 9 9 17 17 25 17 25 17 25 50 9 67 0 0 0 0 0 0-34 50-75 100-117 150-8 16-42 25-67 8 0 0-8-8-8-8-17-25-33-50-58-75-67-75-67-184-9-259 59-75 117-150 175-216 92-100 192-184 300-267 42-25 84-33 125-33" horiz-adv-x="1000" />

<glyph glyph-name="tl-simge-fill" unicode="&#xe84e;" d="M500 850c-279 0-500-221-500-500s221-500 500-500 500 221 500 500-221 500-500 500z m-57-793c-7 0-22 0-29 0v257l-107-35c0 14 0 28 0 42l7 8c29 7 57 21 79 28 14 7 14 7 14 22l-100-36c0 14 0 28 0 43l7 7c29 14 50 21 79 28 7 0 14 8 14 22l0 0c0 43 0 86 0 128 0 8 0 15 15 15 14 0 28 0 42 0v-136l158 57 0 0c0-14 0-28 0-43l-8-7c-43-21-93-36-135-50-15-7-15-14-15-21l157 57c0-14 0-29 0-43l-7-7c-43-22-93-36-135-50-7 0-7-7-7-14 0-72 0-136 0-208v-7c50 7 92 29 128 72 29 35 43 85 43 135h57c0-150-114-264-257-264z" horiz-adv-x="1000" />

<glyph glyph-name="toplam-siparis" unicode="&#xe84f;" d="M833 850h-666c-92 0-167-75-167-167v-666c0-92 75-167 167-167h666c92 0 167 75 167 167v666c0 92-75 167-167 167z m-75-358l-308-309 0 0 0 0 0 0 0 0 0 0h-8l0 0 0 0 0 0 0 0 0 0 0 0-192 192c-8 0-8 17 0 25l67 67c8 8 16 8 25 0l100-117 225 233c8 9 16 9 25 0l66-66c9-9 9-17 0-25z" horiz-adv-x="1000" />

<glyph glyph-name="urun-yazisi" unicode="&#xe850;" d="M0 661c0 6 6 13 6 19 13 18 31 31 56 31 112 0 261 0 366 0 19 0 44 0 62 0 13 0 25-6 31-19 25-62 56-118 81-167 0-7 6-13 12-7 112 0 211 0 323 0 31 0 62-24 62-56v-6c0-130 0-273 0-403 6-31-18-62-49-62-7 0-7 0-13 0h-434c-19-6-31 6-38 25l0 0c-18 56-43 111-62 161 0 6-6 12-12 12-93 0-230 0-323 0-31-18-62 7-68 38v434m670-422c0 6 0 6 0 0-68 137-124 273-192 403 0 7-6 13-13 7-117 0-279 0-397 0h-12v-416l614 6 0 0z m267-198v415h-310l6-12c37-75 74-143 105-223 7-13 7-31-6-44l0 0-118-105c-18-13-31-25-49-44l372 13 0 0z m-434 18l136 118h-180l44-118" horiz-adv-x="1000" />

<glyph glyph-name="kart-dosya-yukle-alan" unicode="&#xe851;" d="M963 63h-107v106c0 19-18 37-37 37s-38-18-38-37v-106h-106c-19 0-37-19-37-38s18-38 37-38h106v-106c0-19 19-37 38-37s37 18 37 37v106h107c18 0 37 19 37 38s-19 38-37 38z m-425 0h-432c-18 0-37 18-37 37v94l144 144 81-82c12-12 37-12 50 0 0 0 0 0 0 0l187 188 157-156c12-13 37-13 50 0s12 37 0 50l-182 181c-12 12-37 12-50 0 0 0 0 0 0 0l-187-188-81 82c-13 12-38 12-50 0 0 0 0 0 0 0l-119-119v450c0 19 19 37 37 37h644c19 0 38-18 38-37v-431c0-19 18-38 37-38s38 19 38 38v431c0 56-50 106-107 106h-650c-56 0-106-50-106-106v-644c0-56 50-106 106-106h432c18 0 37 19 37 37s-19 38-37 38z m-325 537c0-56 50-106 106-106s106 50 106 106-50 106-106 106-106-50-106-106z m143 0c0-19-18-37-37-37s-38 18-38 37 19 38 38 38 37-19 37-38z" horiz-adv-x="1000" />
</font>
</defs>
</svg>
