<?xml version="1.0" encoding="UTF-8"?>
<svg id="Group_3031" xmlns="http://www.w3.org/2000/svg" version="1.1" viewBox="0 0 109 20">
  <!-- Generator: Adobe Illustrator 29.3.1, SVG Export Plug-In . SVG Version: 2.1.0 Build 151)  -->
  <defs>
    <style>
      .st0 {
        fill: #414c5a;
      }

      .st1 {
        fill: #ed145b;
      }
    </style>
  </defs>
  <g id="Group_5">
    <path id="Path_15" class="st1" d="M6.1,3.1h-.8c-.4,0-.7.2-1.1.4-.6.3-1,.8-1.4,1.3V1.4c0-.4,0-.7-.4-1C2.2.1,1.8,0,1.5,0H0v10.2c0,1.2.5,2.4,1.3,3.2,1,.9,2.3,1.4,3.6,1.3h1.5c.4,0,.7-.1,1.1-.3.7-.2,1.3-.6,1.7-1.2.9-1.2,1.3-2.7,1.3-4.3s-.4-3-1.3-4.3c-.7-1-2-1.7-3.3-1.6M7.1,11.4c-.4.6-1.1.9-1.8.9h0c-.7,0-1.4-.3-1.8-.9-.5-.8-.7-1.7-.6-2.6,0-.8.2-1.7.6-2.4.4-.6,1.1-.9,1.8-.8h0c.7,0,1.3.3,1.7.9.5.7.7,1.5.6,2.4,0,.9-.2,1.8-.6,2.6"/>
    <path id="Path_16" class="st1" d="M12.6,3.1h-1.5v2.3h3v-.9c0-.4-.1-.8-.4-1-.3-.3-.6-.4-1-.4"/>
    <path id="Path_17" class="st1" d="M12.6,6.4h-1.5v8.2h3V6.4h-1.5Z"/>
    <path id="Path_18" class="st1" d="M50.5,4.1c-1-.6-2.2-1-3.4-1s-2.3.4-3.3,1.1c-1,.6-1.5,1.9-1.5,3.8v6.6h3v-7.2c0-.6.2-1.1.6-1.5.4-.3.9-.5,1.4-.5s1,.2,1.4.5c.4.4.7.9.6,1.5v5.7c0,.8.6,1.4,1.3,1.4h1.6v-6.6c0-2-.5-3.3-1.6-3.9"/>
    <path id="Path_19" class="st1" d="M40.5,3.9s-.2,0-.3-.2c0,0,0,0-.2,0h-.2c-.9-.3-1.8-.4-2.8-.4h0c-.5,0-1,0-1.5,0-.7,0-1.3.4-1.8.8-.7.5-1.1,1.3-1.2,2.2h2.8c0-.3.4-.5.7-.6.2,0,.3,0,.5,0h.6c.4,0,.8,0,1.2.2.4,0,.7.4.6.8,0,.5-.5.8-1.4,1h-1.5c-.9,0-1.9.5-2.6,1-.6.4-.9,1.1-1,1.8v.7c0,1,.3,2.1,1.1,2.7.7.5,1.5.8,2.3.8h2c.7,0,1.3-.3,1.9-.6.6-.3,1.1-.8,1.5-1.4.4-.8.7-1.7.6-2.6v-3.8c0-.9-.4-1.8-1.2-2.4M39,10c0,.7-.2,1.4-.7,1.9,0,0-.2.2-.3.3h0s-.2,0-.3.1h0c0,0-.3,0-.4.1h-.6c-.4,0-.8,0-1.1-.3s-.4-.6-.4-1,0-.7.3-.9c.3-.3.7-.5,1.1-.5h.6c0-.1.3-.2.3-.2h.3c.5-.1.9-.3,1.3-.5v1.1h.1Z"/>
    <path id="Path_20" class="st1" d="M35.7,17.2c-.9-.4-1.9-.8-2.8-1.1h-.2c-.5-.1-1-.3-1.5-.4-.3,0-.6-.1-.9-.2-.5-.1-.9-.2-1.4-.3-.6-.2-1.3-.4-1.9-.6h-.1c-.2,0-.4-.2-.6-.3-1.2-.6-2.1-1.7-2.6-2.9v-.2h0c0-.2,0-.4-.1-.6-.3-1.1-.3-2.2,0-3.3h0v-.3c.2-.6.5-1.2.9-1.7.2-.3.5-.5.7-.7.5-.3,1-.5,1.5-.6h.2c.7,0,1.4,0,2,.2.9.4,1.7,1,2.2,1.9h0c.1.4.2.7.3,1v-.6c.2-.6.4-1.2.7-1.8.2-.3.5-.6.7-.9,0,0,.2,0,.2-.2.2-.2.4-.3.7-.5.5-.3,1.1-.5,1.6-.6.5,0,1.1-.2,1.7-.2h1.4c-.4-.4-.9-.7-1.5-.9-.3-.1-.5-.2-.8-.2h-1c-.7,0-1.4.3-2,.7h0c-.6.4-1,.9-1.4,1.5h0s0-.2-.1-.2h0c-.5-.7-1-1.1-1.7-1.4-.8-.4-1.6-.6-2.5-.6h-.3c-1.2,0-2.3.5-3.2,1.3-.3.2-.6.5-.8.8-1,1.1-1.7,2.3-2.1,3.7-.1.4-.2.8-.2,1.2h0v2.2c0,.5.2,1,.3,1.5.3.8.7,1.5,1.1,2.2,0,0,.1.1.2.2.6.7,1.3,1.4,2.1,1.9.3.2.6.4.9.5h0s.2,0,.3.1c.1,0,.3.1.4.2h0c.1,0,.2.1.4.1h0c.2,0,.4.1.6.2h0s.6.1,2.1.3h1.4c1.5.1,3,.4,4.5.7h.2c1.3.3,2.5.7,3.7,1.3l.5.2-.4-.4c-1-1-2.2-1.9-3.5-2.4"/>
    <path id="Path_21" class="st1" d="M21,3.3h-.4c-.7,0-1.5,0-2.2.3-.7.2-1.3.5-1.9.9-.6.5-1,1.1-1.3,1.8-.3.9-.5,1.8-.5,2.8v5.4h3v-5.8c0-.7.2-1.3.6-1.9.4-.4.9-.6,1.5-.6.3-1.1.8-2.1,1.5-3h-.3Z"/>
  </g>
  <g id="Group_6">
    <path id="Path_2" class="st0" d="M62.9,3.1h1c.2,0,.5,0,.7.3.2.2.3.4.3.7v.6h-1.9v-1.5h0ZM62.9,5.2h1c.3,0,.5,0,.7.3.2.2.3.4.3.7v6.4h-1.9v-7.4h0Z"/>
    <path id="Path_3" class="st0" d="M78,10.3h1.4c-.2.7-.6,1.3-1.2,1.8-.6.4-1.4.7-2.2.6-.9,0-1.8-.3-2.5-1-.6-.8-1-1.8-.9-2.8,0-1,.2-2,.9-2.8.6-.7,1.5-1.1,2.5-1,1,0,1.9.3,2.6,1,.6.8.9,1.8.9,2.8v.2h0v.3h-4.8c0,.5,0,.9.4,1.3.3.3.7.5,1.1.4.3,0,.6,0,.8-.2h.2l.2-.2s0-.2.2-.2c.2-.1.3-.1.5-.1M74.6,8.1h2.8c0-.4,0-.8-.4-1.1-.3-.3-.6-.4-1-.4s-.7,0-1,.4-.4.7-.4,1.1"/>
    <path id="Path_4" class="st0" d="M82.1,7.2v.7l2.3-2.7h2.3l-2.6,2.8,2.7,4.5h-2.3l-1.4-2.5c-.3-.5-.5-.7-.7-.6s-.3.2-.3.3v2.8h-1.9V3h1c.2,0,.5,0,.7.3.2.2.3.4.3.6v3.3h0Z"/>
    <path id="Path_5" class="st0" d="M94.2,3h1c.3,0,.5,0,.7.3.2.2.3.4.3.7v.6h-1.9v-1.5h0ZM94.2,5.2h1c.3,0,.5,0,.7.3.2.2.3.4.3.7v6.4h-1.9v-7.4h0Z"/>
    <path id="Path_6" class="st0" d="M96.9,3h1c.2,0,.5,0,.7.3.2.2.3.4.3.7v8.6h-1.9V3h0Z"/>
    <path id="Path_7" class="st0" d="M99.6,3h1c.2,0,.5,0,.7.3.2.2.3.4.3.7v.6h-1.9v-1.5h0ZM99.6,5.2h1c.3,0,.5,0,.7.3.2.2.3.4.3.7v6.4h-1.9v-7.4h0Z"/>
    <path id="Path_8" class="st0" d="M104.3,7.2v.7l2.3-2.7h2.3l-2.6,2.8,2.7,4.5h-2.3l-1.4-2.5c-.3-.5-.5-.7-.7-.6s-.3.2-.3.3v2.8h-2V3h1c.2,0,.5,0,.7.3.2.2.3.4.3.6v3.3Z"/>
    <path id="Path_9" class="st0" d="M60.8,10.3h1.4c-.2.7-.6,1.3-1.2,1.8-.6.4-1.4.7-2.2.6-.9,0-1.8-.3-2.5-1-.6-.8-1-1.8-.9-2.8,0-1,.2-2,.9-2.8.6-.7,1.5-1.1,2.5-1,1,0,1.9.3,2.6,1,.3.4.6.9.7,1.4h-1.9c0,0-.2-.3-.3-.4-.3-.3-.6-.4-1-.4s-.7,0-1,.4c-.4.5-.6,1.2-.5,1.8,0,.6,0,1.3.5,1.8.3.3.7.5,1.1.4.3,0,.6,0,.8-.2h.2l.2-.2s0-.2.2-.2c0-.1.3-.2.5-.1"/>
    <path id="Path_10" class="st0" d="M59,14.5h-.9v-1.5h1.5v.9c0,.3-.2.5-.4.6h0"/>
    <path id="Path_11" class="st0" d="M70.9,10.3h1.4c-.2.7-.6,1.3-1.2,1.8-.6.4-1.4.7-2.2.6-.9,0-1.8-.3-2.5-1-.6-.8-1-1.8-.9-2.8,0-1,.2-2,.9-2.8.6-.7,1.5-1.1,2.5-1,1,0,1.9.3,2.6,1,.3.4.6.9.7,1.4h-1.9c0,0-.2-.3-.3-.4-.3-.3-.6-.4-1-.4s-.7,0-1,.4c-.4.5-.6,1.2-.5,1.8,0,.6,0,1.3.5,1.8.3.3.7.5,1.1.4.3,0,.6,0,.8-.2h.2l.2-.2s0-.2.2-.2c0-.1.3-.2.5-.1"/>
    <path id="Path_12" class="st0" d="M69.1,14.5h-.9v-1.5h1.5v.9c0,.3-.2.5-.4.6h0"/>
    <path id="Path_13" class="st0" d="M92.1,10.3h1.4c-.2.7-.6,1.3-1.2,1.8-.6.4-1.4.7-2.2.6-.9,0-1.8-.3-2.5-1-.6-.8-1-1.8-.9-2.8,0-1,.2-2,.9-2.8.6-.7,1.5-1.1,2.5-1,1,0,1.9.3,2.6,1,.3.4.6.9.7,1.4h-1.9c0,0-.2-.3-.3-.4-.3-.3-.6-.4-1-.4s-.7,0-1,.4c-.4.5-.6,1.2-.5,1.8,0,.6,0,1.3.5,1.8.3.3.7.5,1.1.4.3,0,.6,0,.8-.2h.2l.2-.2s0-.2.2-.2c0-.1.3-.2.5-.1"/>
    <path id="Path_14" class="st0" d="M90.3,14.4h-.9v-1.5h1.5v.9c0,.3-.2.5-.4.6h0"/>
  </g>
</svg>
