<?xml version="1.0" encoding="UTF-8"?>
<svg id="Layer_1" data-name="Layer 1" xmlns="http://www.w3.org/2000/svg" viewBox="0 0 750.11 146.24">
  <defs>
    <style>
      .cls-1 { fill: #49b546; }
      .cls-2 { fill: #e54d42; }
      .cls-3 { fill: #0a5191; }
      .cls-4 { fill: #e27c32; }
      .cls-5 { fill: #175ba6; }
    </style>
  </defs>
  <path class="cls-1" d="M159.97,20.59c-.1,7.7-3.2,14.2-8.5,19.6-6,6-13.5,9.7-21.1,13.1-6.6,2.9-13.6,4.8-20.6,6.5-7.6,1.9-15.6,2.1-23.4,3-2.6.3-2.5-1.5-2-3.3,1.8-5.4,3.9-10.6,6.4-15.7,6.9-15,15.9-28.4,29.8-38,7.3-5.1,15.4-7.1,24.2-4.9,9.5,2.3,15.2,10,15.2,19.7Z"/>
  <path class="cls-2" d="M27.07,131.49c-8.6.4-15-2.9-19.1-10.2-5-8.8-3.1-17.2,2.2-25,5.8-8.7,14.3-14.3,23.6-18.7,12.2-5.7,25.1-9.1,38.3-11.4.6-.1,1.2-.2,1.8-.2,4.3-.4,5.1.7,3.9,4.8-2.5,8.8-6,17.1-9.7,25.4-4.2,9.4-10.4,17.4-17.3,24.9s-14.4,10.4-23.7,10.4Z"/>
  <path class="cls-4" d="M72.07,61.69c-9.3-1.3-18.7-1.6-28-3.6-8.5-1.9-16.8-4.9-24.6-9-7.9-4-14.5-9.6-17.8-18C-4.43,15.39,6.87.49,23.67,1.69c8.6.6,16,4.3,22.3,9.8,8.7,7.6,16,16.5,21.6,26.5,3.4,6,6.4,12.1,9.2,18.4,2.1,4.7,1.7,5.3-3.3,5.3h-1.4Z"/>
  <path class="cls-5" d="M175.87,126.49c.7,12.4-12.9,21.7-25.6,19.4-10.3-1.9-18-8-24.8-15.5-11.4-12.7-18.6-27.8-24.1-43.8-.8-2.4-.8-4,2.4-3.7,21.2,2.3,41.9,6.5,59.4,19.8,7.4,5.7,12.6,12.8,12.7,23.8Z"/>
  <path class="cls-3" d="M557.57,90.49c0-9.1-.5-18.2,1.2-27.2,1.6-8.5,7.9-18.6,20.5-20.8,11.6-2.1,22.1,1.6,28.1,10.6,8.2,12.4,6.9,31.2-2.9,42.3-6.8,7.8-20,9.1-28.4,2.9-.7-.5-1.3-1.7-2.3-1.3s-.6,1.7-.6,2.6c-.1,5.1-.1,10.2,0,15.3,0,2.8-.9,4-3.9,4-7.2.1-11.4-3.7-11.6-11.3-.2-5.7-.1-11.4-.1-17.1ZM597.37,72.89c0-4.5-.3-8.6-2.4-12.3-2.3-4.1-6.2-5.1-10.5-5.2-4,0-7.2,1.7-9,5.2-3.7,6.9-3.6,15.3.2,22.1,2.6,4.4,7.6,6.8,12.7,5.9,4-.6,7.3-4.2,8.4-9,.5-2.2.7-4.5.6-6.7Z"/>
  <path class="cls-3" d="M461.17,102.29c-3.5-.3-8.1-.5-12.5-2.3-6.8-2.7-10.4-10.2-8.4-17.3.7-2.3,1.9-.9,2.9-.2,5.6,4.3,12.5,6.4,19.6,6.1,1.9-.1,3.8-.4,5.6-.9,4.1-1.1,6.2-3.9,6.2-8s-1.1-5.8-5.8-7.3c-4.5-1.4-9.1-2.4-13.7-3.7-10.2-2.8-16.3-9-16.7-17-.4-9.6,5.2-18.5,14-22.4,9.1-3.7,18.4-4.1,27.6-.3,6.6,2.6,10.1,9.8,8.2,16.6-.4,1.6-1.1,1.5-2.2.6-7.1-6.4-15.6-6.7-24.4-5.3-2.3.3-4.3,1.5-5.8,3.2-3.3,3.8-2.4,8.4,2.1,10.5,3.5,1.7,7.3,2.8,11.1,3.5,4,.6,7.8,2,11.4,3.9,8.8,5,12.1,14.8,8.6,24.5-4.2,11.6-13.6,14.9-24.6,15.8-.8,0-1.5,0-3.2,0Z"/>
  <path class="cls-3" d="M396.57,66.49c3-3.8,5.4-6.8,7.9-9.8,1.4-1.7,3.1-3.3,4.4-5.1,5.1-7.4,12.3-9.4,20.8-8.5,1.1.1,2.7-.5,3.1.9.4,1.2-.9,2.1-1.7,2.9-6.4,6.3-12.2,13.2-18.1,20-2,2.2-2,3.8,0,6,5,5.6,9.3,11.9,15.2,16.7,1.3,1.2,2.8,2.2,4.5,2.8,2.8.9,2.7,2.4,1.5,4.5-2.9,4.9-10.2,5.9-16.1,1.9-4.3-2.9-7.2-7.2-10.4-11-3.5-4.1-6.7-8.5-10.1-12.8-1.4,1.3-.9,2.7-.9,3.9-.1,6.1-.1,12.3,0,18.5,0,2.4-.8,3.4-3.3,3.5-7.5.3-10.7-2.2-11.7-9.6-.1-1.2-.2-2.4-.2-3.5V29.29c0-5.1.2-5.3,5.1-5.2,6.8.1,10,3.3,10,10.1v32.3h0Z"/>
  <path class="cls-3" d="M352.17,89.29c5.1-.3,10.1-.8,14.5-3.8,2.4-1.6,3.3-1,3.3,1.9.1,7-3,11.5-10.6,13.5-9.1,2.4-18,1.8-26.2-3.5-8.9-5.8-12.7-14.3-12.7-24.4,0-8.9,2.1-17.3,8.9-23.9,9.2-9,25.3-10.1,35-1.7,5.6,4.6,8.4,11.8,7.4,19-.3,4.5-3.4,8.3-7.8,9.6-7.5,2.5-15.3,2.8-23.1,2.8-1.4,0-3.5-.8-4.1,1-.5,1.5.8,2.9,1.8,4,3.6,4.3,8.3,5.7,13.6,5.5ZM345.17,67.49c2.3-.1,5.2.2,8-.7,2.1-.7,4.5-1.2,4.7-4.1.2-2.7-1-5.2-3.3-6.6-6-3.9-15.4-.6-17.6,6.1-1.4,4-.6,5.2,3.6,5.2,1.2.1,2.6.1,4.6.1h0Z"/>
  <path class="cls-3" d="M649.47,89.39c7.1-.1,12-1,16.2-3.8,2.7-1.8,3.2-.5,3.3,2,.1,6.8-2.8,10.9-9.3,13-14.7,4.9-29.9-.5-36.8-13.2s-3.6-30.9,7.7-40c10.9-8.9,30.6-7.6,37.8,6.5,1.9,3.6,2.7,7.6,2.5,11.6-.4,6.8-4.9,10.8-12.7,12-6.4,1-12.9,1.4-19.4,1.3-1,0-2.3-.4-2.9.7s.3,2.3,1,3.2c2.7,4.3,7.5,6.9,12.6,6.7ZM644.37,67.39c2.7-.1,5.9.2,9-.9s3.9-3.2,3.1-6.2c-.5-2.5-2.4-4.5-4.9-5.2-6.5-1.5-12.9-.6-15.8,7.4-1.3,3.7-.6,4.8,3.2,4.9,1.6.1,3.3,0,5.4,0h0Z"/>
  <path class="cls-3" d="M528.27,89.29c5.9.1,10.9-.9,15.3-3.7,1.9-1.2,2.7-1,2.9,1.4.6,6.4-2,10.9-7.8,13.2-13.9,5.6-30,.8-37.4-12.2-6.4-11.2-5.3-22.9,1-33.8,5.6-9.7,15-12.9,25.8-12.4,12.8.6,22.6,13.1,20.4,25.7-.8,4.4-3.5,7.1-7.6,8.5-7.3,2.5-14.8,2.6-22.4,2.8-1.6,0-4.1-1-4.7,1.1-.5,1.9,1.2,3.7,2.7,5.1,3,3.1,7.3,4.6,11.8,4.3ZM521.37,67.39v.1c2.5,0,4.9-.2,7.4-.6,2.4-.4,5.2-.9,5.5-4.1.4-2.9-1-5.7-3.6-7.2-5.9-3.6-15.6.2-17.4,6.8-1,3.6-.2,4.8,3.5,4.8,1.6.3,3.1.2,4.6.2h0Z"/>
  <path class="cls-3" d="M171.87,64.29c.1-16.4,8.1-29.5,22.5-35,9.4-3.6,19.1-4.4,28.5.5,5.4,2.8,8.9,11,7.2,16.5-.7,2.4-1.9.8-2.8,0-5.4-4.9-12-6.6-19-6.1-15.6,1-22.5,12.9-20.9,27.5.4,5,2.4,9.7,5.6,13.6,6.1,7.1,14.2,7.4,22.5,6.2,4-.5,7.8-2.1,11-4.5.7-.6,1.4-1.5,2.5-.8,1,.6.7,1.7.8,2.6.4,7.5-2.7,12.2-10,14.8-20.9,7.4-47.4-5.6-47.8-33.1-.1-.7-.1-1.5-.1-2.2Z"/>
  <path class="cls-3" d="M314.87,57.19v2.3c0,.8.4,1.8-.5,2.3-1.1.7-1.6-.5-2.3-1.1-9-7.4-23.2-5.1-27.3,4.6-4.5,10.7,2.5,23.5,14.5,22.7,4.6-.3,8.9-1,12.6-3.8,1.9-1.5,2.6-.8,2.9,1.4,1,8.6-3.6,14.8-12.2,16.1-15.5,2.4-30.1-6.5-33.8-20.5-4.2-15.9,3.7-31.4,19-36.9,5.5-2.1,11.5-2.4,17.1-.9,5.6,1.6,11.2,7.2,10,13.8Z"/>
  <path class="cls-3" d="M680.37,63.09v-17.7c0-5.6,2.5-10,6.8-13.4,1.3-1,2.9-1.6,4.6-1.7,2.5-.2,3.9.6,3.7,3.3v.7q.2,8.8,8.9,8.8h8.2c1.1,0,2.2.1,2.5,1.4,1.2,5.5-.8,11.5-7.2,11.6-3,.1-5.9.1-8.9,0-2.3-.1-3.5.8-3.5,3.3.1,6.7-.1,13.5.1,20.2.2,5.7,3.1,8.2,8.9,8.3,2.6,0,5.2.1,7.7-1,2.2-1,3-.3,3.2,2,.6,6.6-2.4,11.1-9,12.3-4.9.9-10,.4-14.6-1.5-8.4-3.3-10.7-10.5-11.2-18.6-.5-5.9-.2-12-.2-18Z"/>
  <path class="cls-3" d="M237.97,66.09c0-6.1.1-12.3,0-18.4,0-2.8,1.3-3.7,3.9-3.6,7.7.3,11.1,3.8,11.2,11.5.1,8.5,0,17,0,25.5,0,5.8,1.5,7.5,7.3,7.5,3.1,0,4.1,1.4,4,4.3-.1,5.7-2.4,8.2-8.1,8.6-10.6.7-17.8-5.9-18.3-17-.2-6.1.1-12.3,0-18.4h0Z"/>
  <path class="cls-3" d="M738.77,68.19c0,4.8-.1,9.7,0,14.5.1,3.8,1.9,5.5,5.7,5.9,2.2.3,5.3-1,5.6,3,.3,4.7-1.6,8.6-5.3,9.3-9.6,1.7-20.1-1.6-20.9-14.3-.8-13.2-.2-26.5-.3-39.7,0-2,1-2.6,2.9-2.6,8.5-.3,12.2,3.1,12.2,11.7,0,4.1,0,8.1.1,12.2h0Z"/>
  <path class="cls-3" d="M731.27,39.79c-4.8,0-8.8-3.9-8.9-8.8-.1-4.8,3.9-8.6,9-8.5,4.7.1,8.5,3.9,8.5,8.6-.1,4.8-3.9,8.6-8.6,8.7Z"/>
  <path class="cls-3" d="M245.77,22.59c4.7.2,8.4,4,8.5,8.7,0,4.8-3.9,8.6-8.7,8.6h-.2c-5-.1-8.2-3.4-8.2-8.6-.2-4.6,3.3-8.4,7.8-8.7h.8Z"/>
  <path class="cls-3" d="M203.87,107.09c4.3-.1,7.8,3.2,7.9,7.5v.3c-.2,4.3-3.8,7.7-8.1,7.5-4.1-.2-7.4-3.5-7.5-7.6.2-4.2,3.5-7.5,7.7-7.7Z"/>
  <path class="cls-3" d="M286.97,114.79c0-4.2,3.4-7.3,7.8-7.4,3.1,0,6.5,3.7,6.6,7.1.1,4-3.1,7.3-7.1,7.3s-7.3-3-7.3-7h0Z"/>
</svg>
