<?xml version="1.0" encoding="UTF-8"?>
<svg id="Layer_1" data-name="Layer 1" xmlns="http://www.w3.org/2000/svg" viewBox="0 0 23.95 26.8">
  <defs>
    <style>
      .cls-1 {
        fill: #ec0972;
      }
    </style>
  </defs>
  <path class="cls-1" d="M22.53,1.42c-1.19-1.19-2.89-1.68-4.53-1.29-1.64.39-2.94,1.58-3.48,3.18l-1.15,3.45.79,2.35s.02.09.03.13l1.81-5.43c.36-1.09,1.24-1.89,2.36-2.15,1.11-.26,2.26.06,3.07.87s1.13,1.96.87,3.07c-.26,1.11-1.07,1.99-2.15,2.36l-7.16,2.38-.22-.64s-.04-.06-.05-.1l-.51-1.53-.95-2.72c-.55-1.64-1.88-2.86-3.57-3.26-1.69-.4-3.42.1-4.65,1.32-1.22,1.22-1.72,2.96-1.32,4.65.4,1.69,1.62,3.02,3.26,3.57l7.93,2.64,5.94,1.98c.78.26,1.35.89,1.54,1.69.19.8-.05,1.62-.63,2.2-.58.58-1.4.81-2.2.62-.8-.19-1.43-.77-1.69-1.54,0-.02-.01-.04-.02-.05l-.9-2.15-.65-1.66c-.12-.3-.41-.49-.73-.49,0,0-.01,0-.02,0-.33,0-.62.22-.72.53l-2.23,6.68c-.51,1.54-1.76,2.68-3.34,3.05-1.58.37-3.2-.09-4.35-1.24-1.15-1.15-1.61-2.77-1.24-4.35.37-1.58,1.51-2.82,3.02-3.33l4.87-1.42-2.61-.86-2.72.8c-2.05.68-3.58,2.35-4.07,4.46s.12,4.28,1.65,5.81c1.18,1.18,2.75,1.82,4.37,1.82.48,0,.96-.06,1.44-.17,2.11-.5,3.77-2.02,4.46-4.07l1.55-4.65.76,1.83c.44,1.28,1.48,2.23,2.8,2.54,1.33.31,2.7-.08,3.66-1.04.97-.96,1.35-2.33,1.04-3.66-.31-1.33-1.27-2.38-2.57-2.81l-5.94-1.98-7.93-2.64c-1.13-.38-1.96-1.29-2.23-2.45s.07-2.35.91-3.19c.84-.84,2.03-1.18,3.19-.9,1.16.27,2.07,1.11,2.45,2.24l1.1,3.19.9,2.55c.14.4.58.62.98.48l7.89-2.63c1.6-.53,2.79-1.83,3.18-3.48.39-1.64-.09-3.34-1.29-4.53Z"/>
</svg>