<?xml version="1.0" encoding="UTF-8"?>
<svg id="Layer_1" xmlns="http://www.w3.org/2000/svg" version="1.1" viewBox="0 0 277 143">
  <!-- Generator: Adobe Illustrator 29.3.1, SVG Export Plug-In . SVG Version: 2.1.0 Build 151)  -->
  <defs>
    <style>
      .st0 {
        fill: #92d6fb;
      }

      .st1 {
        fill: #82b378;
      }

      .st2 {
        fill: #fde4df;
      }

      .st3 {
        fill: #699dee;
      }

      .st4 {
        fill: #eb5e91;
      }

      .st5 {
        fill: var(--white);
      }

      .st6 {
        fill: #ed985f;
      }

      .st7 {
        fill: #b6b6b6;
        isolation: isolate;
        opacity: .2;
      }

      .st8 {
        fill: #ffb27d;
      }

      .st9 {
        fill: #78acea;
      }

      .st10 {
        fill: #6c52d8;
      }

      .st11 {
        fill: #322362;
      }

      .st12 {
        fill: #4b358b;
      }

      .st13 {
        fill: #342264;
      }

      .st14 {
        fill: #d7f3ff;
      }

      .st15 {
        fill: #dcddde;
      }

      .st16 {
        fill: #aecd60;
      }

      .st17 {
        fill: #b94b73;
      }

      .st18 {
        fill: #74637e;
      }
    </style>
  </defs>
  <path id="Path_1625" class="st7" d="M21.1,143s-31.7-34-5.3-70.9c23.4-32.8,50.6-30.6,70.7-17.3,8.5,5.6,33.1.7,54-32.6,28.5-45.3,127.4-17.8,109.3,52-8.7,33.8,26.5,35,8.6,68.8H21.1Z"/>
  <path id="Path_1626" class="st16" d="M82,77.1s-15.7-22.3-21.9-19.5c-6,2.9,21.9,19.5,21.9,19.5Z"/>
  <path id="Path_1627" class="st16" d="M81,71.1s-2.4-16.8-6.1-16.1,6.1,16.1,6.1,16.1Z"/>
  <g id="Group_2512">
    <path id="Path_1628" class="st1" d="M67.7,123.5s1.5-7.5-4.4-8.4c0,0-4,0-6.3,1.4,0,0,6.6,3.9,5.8,5s-7.1-4.8-7.1-4.8c0,0-7.1,3.2-8.7,5.3,0,0,8.4,1.5,7.3,2.5s-9.9-.2-9.9-.2c0,0-5.7,4.5-3.2,8.2s5.3,3.7,6.2,3c.9-.6,5.2-5.8,5.8-5.1s-1.4,5.1-3.7,6.5c0,0,7.1,2.4,9.3-.7s1.2-5.4,2.6-7.3,3-2.8,2.7-1.5-3.2,4-3.2,6.4-.3,4.3,2.6,2.1c2.8-2.2,6.5-7.1,5.3-9.8l-1.3-2.6h.2Z"/>
    <g id="Group_2511">
      <path id="Path_1629" class="st1" d="M44.5,130.9s16.7-10.2,23.2-7.4c1.7,1.4,3.8,2.4,6,2.9l1,.9s-4.7-1.5-5.8-1.1c0,0-1.7-7-24.4,4.7Z"/>
      <path id="Path_1630" class="st1" d="M73.9,126.4c3.3.6,6.2,2.5,8.1,5.3l-.6.4s-4-4.4-7.2-5.1-.3-.6-.3-.6Z"/>
    </g>
  </g>
  <g id="Group_2514">
    <path id="Path_1631" class="st16" d="M72.9,101.7s12.2-6.8,6.4-16c0,0-4.5-5.6-9.4-7.1,0,0,2.6,13.7,0,14s-1.8-15.5-1.8-15.5c0,0-12.8-6.1-17.8-5.6,0,0,7.9,13.4,5.3,13.2s-11.5-13.9-11.5-13.9c0,0-13.2-2.5-15.2,5.3s1.3,11.7,3.3,12.2,14.4.3,14,2c-.3,1.6-8.7,4.3-13.4,2.8,0,0,5.1,12.8,12,12.2,6.8-.7,8.9-4.8,13.2-5.1s7.3.8,5.1,2c-2.1,1.1-9.2.4-12.7,3.3-3.4,2.9-6.1,4.6.2,5.9s17.6.5,19.9-4.4l2.4-5v-.3Z"/>
    <g id="Group_2513">
      <path id="Path_1632" class="st1" d="M35,78.3s34,11,37.9,23.3c0,4.1,1.2,8.2,3.3,11.8v2.5s-3.6-8.2-5.5-9.4c0,0,7.6-10.7-35.6-28.2h-.1Z"/>
      <path id="Path_1633" class="st1" d="M76.1,113.4c3.2,5.3,4,11.7,2.3,17.6l-1.4-.4s1.3-10.7-1.4-16c-2.8-5.2.5-1.2.5-1.2Z"/>
    </g>
  </g>
  <path id="Path_1634" class="st17" d="M85.2,44.8l-18.2,93.8c-.3,1.7.8,3.3,2.4,3.6h10.2l5.5-97.5h0Z"/>
  <g id="Group_2516">
    <path id="Path_1635" class="st2" d="M205.9,71.7s-8.2-5.2-3.9-11.4c0,0,3.4-3.8,6.8-4.5,0,0-2.4,9.5-.6,9.8s1.9-10.8,1.9-10.8c0,0,9.1-3.8,12.6-3.3,0,0-6,9-4.3,8.9s8.5-9.2,8.5-9.2c0,0,9.2-1.2,10.4,4.4,1.2,5.4-1.4,8-2.8,8.3-1.4.3-10-.4-9.9.8.2,1.2,5.9,3.3,9.2,2.5,0,0-4.2,8.7-8.8,8-4.7-.7-6-3.8-8.9-4.2s-5.1.3-3.7,1.2c1.4.9,6.4.6,8.6,2.8,2.3,2.2,4.1,3.5-.4,4.2s-12.3-.4-13.6-3.9l-1.2-3.6h0Z"/>
    <g id="Group_2515">
      <path id="Path_1636" class="st2" d="M233.2,57s-24,6.3-27.3,14.7c-.2,2.9-1.2,5.7-2.8,8.1v1.7c-.1,0,2.7-5.6,4.1-6.3,0,0-4.7-7.7,26-18.2h0Z"/>
      <path id="Path_1637" class="st2" d="M203.2,79.7c-2.4,3.6-3.2,8-2.3,12.2l1-.2s-.5-7.5,1.7-11.1c2-3.6-.4-.9-.4-.9Z"/>
    </g>
  </g>
  <g id="Group_2518">
    <path id="Path_1638" class="st2" d="M183.9,49.1s-12.6-2.8-10-12.5c0,0,2.5-6.2,6.4-8.8,0,0,1.4,12.9,3.8,12.5s-2.6-14.2-2.6-14.2c0,0,9.7-8.9,14.2-9.8,0,0-3.4,14-1.2,13.1s6.4-15.4,6.4-15.4c0,0,11-5.6,14.8.7,4,6.3,2,10.7.4,11.6-1.6,1-12.7,4.2-12,5.5.7,1.4,8.9,1.4,12.7-1.2,0,0-1.2,12.7-7.3,13.9-6.2,1.3-9.2-1.9-13-1.1-3.8.9-6.2,2.7-4.1,3.1s8.2-2.2,12.1-.5c3.8,1.7,6.7,2.5,1.5,5.3s-15.4,5.1-18.8,1.5l-3.5-3.7h.2Z"/>
    <g id="Group_2517">
      <path id="Path_1639" class="st2" d="M211.1,18.3s-27.1,18.8-27.2,30.8c1,3.7,1.1,7.5.3,11.3l.7,2.2s.9-8.2,2.4-9.8c-.1,0-9.7-7.4,23.8-34.4h0Z"/>
      <path id="Path_1640" class="st2" d="M184.2,60.3c-1.3,5.6-.3,11.4,2.8,16.2l1.1-.7s-4.1-9.1-3.1-14.5-.8-1-.8-1Z"/>
    </g>
  </g>
  <path id="Path_1641" class="st9" d="M85.4,44.4l-12.1,92.2c-.4,2.8,1.6,5.3,4.4,5.7h18.4l-10-98.2s-.7.3-.7.3Z"/>
  <path id="Path_1642" class="st3" d="M85.4,44.4l-5.3,91.6c-.2,3.3,2.4,6.1,5.7,6.3h26.7l-27-97.9h0Z"/>
  <path id="Path_1643" class="st10" d="M85.2,45.2l2.6,90.9c-.2,3.3,2.4,6.1,5.7,6.3h26.7l-34.9-97.2h0Z"/>
  <path id="Path_1644" class="st14" d="M211.3,142.4h-103.8c-2.6,0-4.8-1.9-5.2-4.4l-15.8-86.4c-.6-3.5,1.7-6.8,5.1-7.4.4,0,.8,0,1.2,0h102.7c2.6,0,4.8,1.9,5.2,4.5l16,87.6c.5,3-1.6,5.8-4.5,6.3h-.9Z"/>
  <path id="Path_1645" class="st4" d="M88.4,62.8h114.8l-3-16.3c-.3-1.4-1.5-2.5-3-2.5h-111.1c-.6,0-1,.5-1,1.1h0c0,0,3.2,17.7,3.2,17.7h0Z"/>
  <g id="Group_2533">
    <g id="Group_2520">
      <g id="Group_2519">
        <path id="Path_1646" class="st9" d="M91.2,39.1c-2.7,0-4.9,2.2-4.9,4.9h1c0-2.2,1.8-4.1,4-4.1s4.1,1.8,4.1,4h0c0,.5,0,1-.2,1.4-.4,1.2-1.3,2.1-2.5,2.6-.4,0-.7.2-1.1.2v1c.4,0,.9,0,1.3-.2,1.6-.5,2.9-1.8,3.3-3.5,0-.4.2-.9.2-1.3-.2-2.8-2.4-4.9-5.1-5h-.1Z"/>
      </g>
      <path id="Path_1647" class="st9" d="M92.7,48.6v.3c0,.5-.6.8-1.1.8s-1.1-.5-1.1-1.1.5-1.1,1.1-1.1.7.2.9.4c0,.2.2.4.2.7Z"/>
    </g>
    <g id="Group_2522">
      <g id="Group_2521">
        <path id="Path_1648" class="st9" d="M109,39.1c-2.7,0-4.9,2.2-4.9,4.9h1c0-2.2,1.9-4,4.1-4s4,1.8,4,4,0,.9-.2,1.3c-.4,1.2-1.3,2.1-2.5,2.6-.4,0-.7.2-1.1.2v1c.4,0,.9,0,1.3-.2,1.6-.5,2.9-1.8,3.4-3.5,0-.4.2-.9.2-1.3-.2-2.8-2.5-4.9-5.2-5h-.1Z"/>
      </g>
      <path id="Path_1649" class="st9" d="M110.6,48.6v.3c0,.5-.6.8-1.1.8s-1.1-.5-1.1-1.1.5-1.1,1.1-1.1h0c.3,0,.7.2.9.4,0,.2.2.4.2.7Z"/>
    </g>
    <g id="Group_2524">
      <g id="Group_2523">
        <path id="Path_1650" class="st9" d="M126.9,39.1c-2.7,0-4.9,2.2-4.9,4.9h1c0-2.2,1.9-4,4.1-4s4,1.8,4,4,0,.9-.2,1.3c-.4,1.2-1.3,2.1-2.5,2.6-.4,0-.7.2-1.1.2v1c.4,0,.9,0,1.3-.2,1.6-.5,2.9-1.8,3.3-3.5.1-.4.2-.9.2-1.3-.2-2.8-2.4-4.9-5.1-5h-.1Z"/>
      </g>
      <path id="Path_1651" class="st9" d="M128.4,48.6v.3c-.1.5-.6.8-1.1.8s-1.1-.5-1.1-1.1.5-1.1,1.1-1.1.7.2.9.4c.1.2.2.4.2.7Z"/>
    </g>
    <g id="Group_2526">
      <g id="Group_2525">
        <path id="Path_1652" class="st9" d="M144.7,39.1c-2.7,0-4.9,2.2-4.9,4.9h1c0-2.2,1.9-4,4.1-4s4,1.8,4,4,0,.9-.2,1.3c-.4,1.2-1.3,2.1-2.5,2.6-.4,0-.7.2-1.1.2v1c.4,0,.9,0,1.3-.2,1.6-.5,2.9-1.8,3.3-3.5.1-.4.2-.9.2-1.3-.1-2.8-2.4-5-5.1-5h-.1Z"/>
      </g>
      <path id="Path_1653" class="st9" d="M146.3,48.6v.3c-.1.5-.6.8-1.1.8s-1.1-.5-1.1-1.1.5-1.1,1.1-1.1.7.2.9.4c.1.2.2.4.2.7h0Z"/>
    </g>
    <g id="Group_2528">
      <g id="Group_2527">
        <path id="Path_1654" class="st9" d="M162.5,39.1c-2.7,0-4.9,2.2-4.9,4.9h1c0-2.2,1.8-4,4.1-4.1,2.2,0,4,1.7,4.1,4h0c0,.4,0,.9-.2,1.3-.4,1.2-1.3,2.1-2.5,2.6-.4,0-.7.2-1.1.2v1c.4,0,.9,0,1.3-.2,1.6-.5,2.9-1.8,3.4-3.5.1-.4.2-.9.2-1.3-.2-2.8-2.4-5-5.2-5h-.2Z"/>
      </g>
      <path id="Path_1655" class="st9" d="M164.1,48.6v.3c-.1.5-.6.8-1.1.8s-1.1-.5-1.1-1.1.5-1.1,1.1-1.1h0c.3,0,.7.2.9.4.1.2.2.4.2.7h0Z"/>
    </g>
    <g id="Group_2530">
      <g id="Group_2529">
        <path id="Path_1656" class="st9" d="M180.4,39.1c-2.7,0-4.9,2.2-4.9,4.9h1c0-2.2,1.9-4,4.1-4s4,1.8,4,4,0,.9-.2,1.3c-.4,1.2-1.3,2.1-2.5,2.6-.4,0-.7.2-1.1.2v1c.4,0,.9,0,1.3-.2,1.6-.5,2.9-1.8,3.3-3.5.1-.4.2-.9.2-1.3-.1-2.8-2.4-5-5.1-5h-.1Z"/>
      </g>
      <path id="Path_1657" class="st9" d="M181.9,48.6v.3c-.1.5-.6.8-1.1.8s-1.1-.5-1.1-1.1.5-1.1,1.1-1.1.7.2.9.4.2.4.2.7h0Z"/>
    </g>
    <g id="Group_2532">
      <g id="Group_2531">
        <path id="Path_1658" class="st9" d="M198.2,39.1c-2.7,0-4.9,2.2-4.9,4.9h1c0-2.2,1.8-4.1,4-4.1s4.1,1.8,4.1,4h0c0,.5,0,1-.2,1.4-.4,1.2-1.3,2.1-2.5,2.6-.4,0-.7.2-1.1.2v1c.4,0,.9,0,1.3-.2,1.6-.5,2.9-1.8,3.3-3.5.1-.4.2-.9.2-1.3,0-2.8-2.4-5-5.1-5h-.1Z"/>
      </g>
      <path id="Path_1659" class="st9" d="M199.8,48.6v.3c-.1.5-.6.8-1.1.8s-1.1-.5-1.1-1.1.5-1.1,1.1-1.1h0c.3,0,.7.2.9.4.1.2.2.4.2.7h0Z"/>
    </g>
  </g>
  <g id="Group_2534">
    <path id="Path_1660" class="st0" d="M154.9,93.5h-5.8c-.7,0-1.3-.5-1.5-1.2l-1.1-5.8c-.1-.5.2-1,.7-1.2h6.1c.7,0,1.3.5,1.5,1.2l1.1,5.8c.1.5-.2,1.1-.8,1.2h-.2Z"/>
    <path id="Path_1661" class="st0" d="M169.5,93.5h-5.8c-.7,0-1.3-.5-1.5-1.2l-1.1-5.8c-.1-.5.2-1,.7-1.2h6.1c.7,0,1.3.5,1.5,1.2l1.1,5.8c.1.5-.2,1.1-.8,1.2h-.2Z"/>
    <path id="Path_1662" class="st9" d="M184.1,93.5h-5.8c-.7,0-1.3-.5-1.5-1.2l-1.1-5.8c-.1-.5.2-1,.7-1.2h6.1c.7,0,1.3.5,1.5,1.2l1.1,5.8c.1.5-.2,1.1-.8,1.2h-.2Z"/>
    <path id="Path_1663" class="st0" d="M111,93.5h-5.8c-.7,0-1.3-.5-1.5-1.2l-1.1-5.8c0-.5.2-1,.7-1.2h6.1c.7,0,1.3.5,1.5,1.2l1.1,5.8c0,.6-.3,1.1-.9,1.2h0Z"/>
    <path id="Path_1664" class="st4" d="M104.5,76h-2.5c-.3,0-.6-.2-.6-.5l-.5-2.5c0-.3,0-.5.4-.5h2.5c.3,0,.6.2.6.5l.5,2.5c0,.3,0,.5-.4.5Z"/>
    <path id="Path_1665" class="st0" d="M125.6,93.5h-5.8c-.7,0-1.3-.5-1.5-1.2l-1.1-5.8c0-.5.2-1,.7-1.2h6.1c.7,0,1.3.5,1.5,1.2l1.1,5.8c0,.6-.3,1.1-.9,1.2h0Z"/>
    <path id="Path_1666" class="st0" d="M140.2,93.5h-5.8c-.7,0-1.3-.5-1.5-1.2l-1.1-5.8c-.1-.5.2-1,.7-1.2h6.1c.7,0,1.3.5,1.5,1.2l1.1,5.8c.1.5-.2,1.1-.8,1.2h-.2Z"/>
    <path id="Path_1667" class="st9" d="M198.8,93.5h-5.8c-.7,0-1.3-.5-1.5-1.2l-1.1-5.8c-.1-.5.2-1,.7-1.2h6.1c.7,0,1.3.5,1.5,1.2l1.1,5.8c.1.5-.2,1.1-.8,1.2h-.2Z"/>
    <path id="Path_1668" class="st0" d="M152.4,80.8h-5.8c-.7,0-1.3-.5-1.5-1.2l-1.1-5.8c-.1-.5.2-1,.7-1.2h6.1c.7,0,1.3.5,1.5,1.2l1.1,5.8c.2.5-.1,1-.6,1.2h-.4Z"/>
    <path id="Path_1669" class="st0" d="M167,80.8h-5.8c-.7,0-1.3-.5-1.5-1.2l-1.1-5.8c-.1-.5.2-1,.7-1.2h6.1c.7,0,1.3.5,1.5,1.2l1.1,5.8c.2.5-.1,1-.6,1.2h-.4Z"/>
    <path id="Path_1670" class="st9" d="M181.7,80.8h-5.8c-.7,0-1.3-.5-1.5-1.2l-1.1-5.8c-.1-.5.2-1,.7-1.2h6.1c.7,0,1.3.5,1.5,1.2l1.1,5.8c.2.5-.1,1-.6,1.2h-.4Z"/>
    <path id="Path_1671" class="st9" d="M196.4,80.8h-5.8c-.7,0-1.3-.5-1.5-1.2l-1.1-5.8c-.1-.5.2-1,.7-1.2h6.1c.7,0,1.3.5,1.5,1.2l1.1,5.8c.1.5-.3,1.1-.8,1.2h-.2Z"/>
    <path id="Path_1672" class="st0" d="M157.4,106.8h-5.8c-.7,0-1.3-.5-1.5-1.2l-1.1-5.8c-.1-.5.2-1,.7-1.2h6.1c.7,0,1.3.5,1.5,1.2l1.1,5.8c.1.5-.2,1.1-.8,1.2h-.2Z"/>
    <path id="Path_1673" class="st0" d="M172.1,106.8h-5.8c-.7,0-1.3-.5-1.5-1.2l-1.1-5.8c-.1-.5.2-1,.7-1.2h6.1c.7,0,1.3.5,1.5,1.2l1.1,5.8c.1.5-.2,1.1-.8,1.2h-.2Z"/>
    <path id="Path_1674" class="st9" d="M186.7,106.8h-5.8c-.7,0-1.3-.5-1.5-1.2l-1.1-5.8c-.1-.5.2-1,.7-1.2h6.1c.7,0,1.3.5,1.5,1.2l1.1,5.8c.1.5-.2,1.1-.8,1.2h-.2Z"/>
    <path id="Path_1675" class="st0" d="M113.5,106.8h-5.8c-.7,0-1.3-.5-1.5-1.2l-1.1-5.8c0-.5.2-1,.7-1.2h6.1c.7,0,1.3.5,1.5,1.2l1.1,5.8c0,.6-.3,1.1-.9,1.2h0Z"/>
    <path id="Path_1676" class="st0" d="M128.2,106.8h-5.8c-.7,0-1.3-.5-1.5-1.2l-1.1-5.8c0-.5.2-1,.7-1.2h6.1c.7,0,1.3.5,1.5,1.2l1.1,5.8c0,.6-.3,1.1-.9,1.2h-.1Z"/>
    <path id="Path_1677" class="st0" d="M142.8,106.8h-5.8c-.7,0-1.3-.5-1.5-1.2l-1.1-5.8c-.1-.5.2-1,.7-1.2h6.1c.7,0,1.3.5,1.5,1.2l1.1,5.8c.1.5-.2,1.1-.8,1.2h-.2Z"/>
    <path id="Path_1678" class="st9" d="M201.3,106.8h-5.8c-.7,0-1.3-.5-1.5-1.2l-1.1-5.8c-.1-.5.2-1,.7-1.2h6.1c.7,0,1.3.5,1.5,1.2l1.1,5.8c.1.5-.2,1.1-.8,1.2h-.2Z"/>
    <path id="Path_1679" class="st0" d="M160,120.2h-5.8c-.7,0-1.3-.5-1.5-1.2l-1.1-5.8c-.1-.5.2-1,.7-1.2h6.1c.7,0,1.3.5,1.5,1.2l1.1,5.8c.1.5-.2,1.1-.8,1.2h-.2Z"/>
    <path id="Path_1680" class="st0" d="M174.6,120.2h-5.8c-.7,0-1.3-.5-1.5-1.2l-1.1-5.8c-.1-.5.2-1,.7-1.2h6.1c.7,0,1.3.5,1.5,1.2l1.1,5.8c.1.5-.2,1.1-.8,1.2h-.2Z"/>
    <path id="Path_1681" class="st9" d="M189.3,120.2h-5.8c-.7,0-1.3-.5-1.5-1.2l-1.1-5.8c-.1-.5.2-1,.7-1.2h6.1c.7,0,1.3.5,1.5,1.2l1.1,5.8c.1.5-.2,1.1-.8,1.2h-.2Z"/>
    <path id="Path_1682" class="st0" d="M116.1,120.2h-5.8c-.7,0-1.3-.5-1.5-1.2l-1.1-5.8c0-.5.2-1,.7-1.2h6.1c.7,0,1.3.5,1.5,1.2l1.1,5.8c0,.6-.3,1.1-.9,1.2h0Z"/>
    <path id="Path_1683" class="st4" d="M130.7,120.2h-5.8c-.7,0-1.3-.5-1.5-1.2l-1.1-5.8c0-.5.2-1,.7-1.2h6.1c.7,0,1.3.5,1.5,1.2l1.1,5.8c.1.5-.2,1.1-.8,1.2h-.2Z"/>
    <path id="Path_1684" class="st0" d="M145.4,120.2h-5.8c-.7,0-1.3-.5-1.5-1.2l-1.1-5.8c-.1-.5.2-1,.7-1.2h6.1c.7,0,1.3.5,1.5,1.2l1.1,5.8c.1.5-.2,1.1-.8,1.2h-.2Z"/>
    <path id="Path_1685" class="st9" d="M203.9,120.2h-5.8c-.7,0-1.3-.5-1.5-1.2l-1.1-5.8c-.1-.5.2-1,.7-1.2h6.1c.7,0,1.3.5,1.5,1.2l1.1,5.8c.1.5-.2,1-.7,1.2h-.3Z"/>
    <path id="Path_1686" class="st0" d="M162.5,132.7h-5.8c-.7,0-1.3-.5-1.5-1.2l-1.1-5.8c-.1-.5.2-1,.7-1.2h6.1c.7,0,1.3.5,1.5,1.2l1.1,5.8c.1.5-.3,1.1-.8,1.2h-.2Z"/>
    <path id="Path_1687" class="st0" d="M177.1,132.7h-5.8c-.7,0-1.3-.5-1.5-1.2l-1.1-5.8c-.1-.5.2-1,.7-1.2h6.1c.7,0,1.3.5,1.5,1.2l1.1,5.8c.1.5-.3,1.1-.8,1.2h-.2Z"/>
    <path id="Path_1688" class="st9" d="M191.8,132.7h-5.8c-.7,0-1.3-.5-1.5-1.2l-1.1-5.8c-.1-.5.2-1,.7-1.2h6.1c.7,0,1.3.5,1.5,1.2l1.1,5.8c.1.5-.2,1-.7,1.2h-.3Z"/>
    <path id="Path_1689" class="st0" d="M118.5,132.7h-5.7c-.7,0-1.3-.5-1.5-1.2l-1.1-5.8c0-.5.2-1,.7-1.2h6.1c.7,0,1.3.5,1.5,1.2l1.1,5.8c0,.6-.3,1.1-.8,1.2h-.3Z"/>
    <path id="Path_1690" class="st0" d="M133.1,132.7h-5.8c-.7,0-1.3-.5-1.5-1.2l-1.1-5.8c0-.5.2-1,.7-1.2h6.1c.7,0,1.3.5,1.5,1.2l1.1,5.8c.2.5-.1,1-.6,1.2h-.4Z"/>
    <path id="Path_1691" class="st0" d="M147.7,132.7h-5.8c-.7,0-1.3-.5-1.5-1.2l-1.1-5.8c-.1-.5.2-1,.7-1.2h6.1c.7,0,1.3.5,1.5,1.2l1.1,5.8c.2.5-.1,1-.6,1.2h-.4Z"/>
    <path id="Path_1692" class="st0" d="M122.1,73.7h-15.3c-.2,0-.4-.2-.4-.4h0c0-.2.2-.4.4-.4h15.3c.2,0,.4.2.4.4h0c0,.2-.2.4-.4.4Z"/>
    <path id="Path_1693" class="st0" d="M122.6,75.6h-15.3c-.2,0-.4-.2-.4-.4h0c0-.2.2-.4.4-.4h15.3c.2,0,.4.2.4.4h0c0,.2-.2.4-.4.4Z"/>
  </g>
  <g id="Group_2535">
    <path id="Path_1694" class="st5" d="M105.6,59.8h-5.2c-.4,0-.8-.4-.8-.8h0c0-.4.4-.8.8-.8h5.2c.4,0,.8.4.8.8h0c0,.4-.3.8-.8.8h0Z"/>
    <path id="Path_1695" class="st5" d="M120.2,59.8h-5.2c-.4,0-.8-.4-.8-.8h0c0-.4.4-.8.8-.8h5.2c.4,0,.8.4.8.8h0c0,.4-.4.8-.8.8Z"/>
    <path id="Path_1696" class="st5" d="M134.6,59.8h-5.2c-.4,0-.8-.4-.8-.8h0c0-.4.4-.8.8-.8h5.2c.4,0,.8.4.8.8h0c0,.4-.3.8-.8.8h0Z"/>
    <path id="Path_1697" class="st5" d="M149.1,59.8h-5.2c-.4,0-.8-.4-.8-.8h0c0-.4.4-.8.8-.8h5.2c.4,0,.8.4.8.8h0c0,.4-.4.8-.8.8Z"/>
    <path id="Path_1698" class="st5" d="M163.6,59.8h-5.2c-.4,0-.8-.4-.8-.8h0c0-.4.4-.8.8-.8h5.2c.4,0,.8.4.8.8h0c0,.4-.4.8-.8.8Z"/>
    <path id="Path_1699" class="st5" d="M178,59.8h-5.2c-.4,0-.8-.4-.8-.8h0c0-.4.4-.8.8-.8h5.2c.4,0,.8.4.8.8h0c0,.4-.3.8-.8.8h0Z"/>
    <path id="Path_1700" class="st5" d="M192.5,59.8h-5.2c-.4,0-.8-.4-.8-.8h0c0-.4.4-.8.8-.8h5.2c.4,0,.8.4.8.8h0c0,.4-.4.8-.8.8Z"/>
  </g>
  <g id="Group_2536">
    <path id="Path_1701" class="st18" d="M159.1,80.9c-1,0-1.9-.3-2.5-1.1-.9-1.4-.2-3.3,2.1-5.7,1.1-1.1,2.3-2.2,3.6-3.2h.2c0,0,0,0,0,.2-.1,0-7.4,5.5-5.5,8.5.6,1,1.9,1,2.9.9,2.3-.4,4.4-1.3,6.3-2.7,1.8-1.1,3.4-2.7,4.4-4.5.3-.9.2-1.6-.3-2-.7-.5-2.2-.5-3.9,0-1.6.4-3.1,1.2-4.4,2.2h-.2c-.1,0-.1-.2,0-.2,1.4-1,2.9-1.8,4.5-2.3,1.9-.5,3.4-.5,4.2,0,.5.3.9,1,.4,2.4-.5,1.5-2.2,3.3-4.4,4.7-1.9,1.4-4.2,2.3-6.5,2.7-.3,0-.5,0-.8,0h-.1Z"/>
  </g>
  <g id="Group_2539">
    <path id="Path_1702" class="st8" d="M189.6,71.4l-.6-1.1s.3-2-2.3-3.3c-.5-.2-1.1,0-1.5.4-.5.7.9.6.8,1.8-.1,1,.4,1.9,1.3,2.3l.7.8s1.6-.9,1.6-.9Z"/>
    <path id="Path_1703" class="st11" d="M213.5,68.6c-1.8,6.9-7.2,12.3-14,14.1-3.8,1.1-12.2-11.2-12.2-11.2,0,0,.3-1.1,2.2-.9,0,0,8.2,5.4,9.3,6,.9.5,6.9-6.7,9.7-7.9,1.6-.7,3.4-.8,5-.2h0Z"/>
    <g id="Group_2537">
      <rect id="Rectangle_343" class="st18" x="178.8" y="67.2" width="13.1" height="2.7" transform="translate(-9.4 34.9) rotate(-10.5)"/>
      <path id="Path_1704" class="st8" d="M175.8,70.3l3.3.7-.5-2.6-2.8,1.9Z"/>
      <path id="Path_1705" class="st8" d="M193.2,66.7l.2.8c.1.5-.2,1-.7,1.1h-.6l-.5-2.5h.7c.4-.2.8,0,.9.5h0Z"/>
    </g>
    <g id="Group_2538">
      <path id="Path_1706" class="st11" d="M227.7,135.5s1.5,1.4,1.2,2.3c-.3,1-1.6,1.6-1.8,2.8s-.9,1.8-1.6,1.8h-3.1s-.5-.8.7-1.1,1.6-1.6,1.5-2.9c0-1,0-2,.1-3l2.5-.6.5.7h0Z"/>
      <path id="Path_1707" class="st11" d="M209.6,139.1s.3,3.1-.4,3.4h-8.3s0-1,1.3-1.2,3.7-1,4.1-2.8c.5-1.7,3.4.6,3.4.6h-.1Z"/>
      <path id="Path_1708" class="st4" d="M202.5,95.6s.4,5.3,1,11.9c.7,8.8,1.6,19.6,1.6,21.7.1,3.6.7,9.2.7,9.2,1.2.9,2.7,1.2,4.2.8,1.6-5.5,2.6-11.1,3.2-16.7v-.4c.7-8.7,1.7-27.1,1.7-27.1l-12.3.7h0Z"/>
      <path id="Path_1709" class="st17" d="M202.5,95.6s.4,5.3,1,11.9l9.6,14.9v-.4c.7-8.7,1.7-27.1,1.7-27.1l-12.3.7Z"/>
      <path id="Path_1710" class="st4" d="M204.5,96.2s7.9,19.5,13.1,28.7c5.2,9.2,6.8,11.8,6.8,11.8,0,0,3-1.2,3.3-2,0,0-2-17.7-5.4-22.1-2-2.5-4.3-9.8-4.4-12.3-.1-2.6-.7-7.6-.7-7.6l-12.7,3.5h0Z"/>
    </g>
    <path id="Path_1711" class="st8" d="M214.9,66.2s-5.3,2.6-8.4,1.6c.6-.7,1.3-1.3,2.1-1.7-.1-.5-.2-1.1-.2-1.6-.1-1.1-.1-1.7-.1-1.7l2.1-1.6,2-1.6c-.2,2.5.7,4.9,2.6,6.5h-.1Z"/>
    <path id="Path_1712" class="st12" d="M202.2,96s.2,0,.3,0c1.2,0,4.5.6,7.4.3,2.4-.2,4.7-.9,6.8-2,.3,0,1-.5,1-.8,0-.5,0-1.1-.1-1.6-.1-1.3-.2-3.3-.3-5.4,0-1.7,0-3.6.1-5.4v-.4c0-.7.1-1.5.1-2.2,0-2.2-.2-4.3-.5-6.4-.6-3.4-1.7-6-3.3-7.2-.2-.2-1.6.5-2.8,1.1s-2.2.7-3.4.4l-1.1.9c-1.6,1.4-2.8,3.2-3.4,5.2-.6,3.2-.9,6.4-1,9.7-.1,1.8-.1,3.6-.2,5.2v.6c0,4.4,0,7.9.2,7.9h.2Z"/>
    <path id="Path_1713" class="st6" d="M212.3,61.4c-.9,1.5-2.3,2.6-4,3.2-.1-1.1-.1-1.7-.1-1.7l2.1-1.6h2Z"/>
    <path id="Path_1714" class="st8" d="M207.3,62.8s5.1.8,5.5-2.3c.5-3.2,1.5-5.1-1.8-5.8s-4.1.4-4.4,1.5c-.4,1-.6,6.3.7,6.6Z"/>
    <path id="Path_1715" class="st13" d="M214.7,54.3h.4-.4c-.1-.3-.2-.9-.8-1.1.2,0,.3.3.3.5-.7-.7-2.1-1.2-5.9-.9-5.1.4-3.5,3.7-2.8,4.1s2.4-.7,3.6-.6c1.3,0,1.5,1.9,1.9,2.2.4.2.3-.2.8-.5s.6.7.5,1.3c-.2.6.6,1.4.6,1.4l.8-.9c.8-.9,1.6-4.5,1.2-5.2,0,.2,0,0-.1,0v-.3Z"/>
    <path id="Path_1716" class="st8" d="M189,70.2s.2-.7-.3-1-.9-1.2-1.1-1.1c-.4.2.2,1,.1,1.9,0,.4.3.6.7.6s.5-.2.6-.4Z"/>
    <path id="Path_1717" class="st11" d="M217.4,86.7c0-1.7,0-3.6.1-5.4v-.4c-.5-2.4-1.2-4.5-2.3-4.6,0,0-3.2,5,2.2,10.5h0Z"/>
    <path id="Path_1718" class="st8" d="M221.6,95.4c0,1-.3,2.1-.6,3.1-.6.9-1.3,1.7-2.1,2.4-.5.3.3-2.1.2-2.6s-.4.9-.7.9-.2-1.2-.2-1.6,1.2-1.5,1.6-2.4c.5-.9,1.8.2,1.8.2Z"/>
    <path id="Path_1719" class="st12" d="M213.8,65c1.9.9,3.5,2.2,4.7,3.9,2.4,3.7,5.1,16.9,5.2,18.2.1,1.2-2.1,9.9-2.1,9.9,0,0-2.1,0-2.7-1.2,0,0,.4-8.9.2-9.5-.3-.6-8.8-12-7.8-14.4s2.4-6.8,2.4-6.8h.1Z"/>
    <path id="Path_1720" class="st18" d="M177.5,69.2v1.5c.1,0-1.7-.4-1.7-.4l1.7-1.1Z"/>
  </g>
  <path id="Path_1721" class="st1" d="M247.3,142.4h-9.3c-.5-.4.3-1.4,1.2-1.5.5,0,.9,0,1.4.2.1-1.7.9-9.3,3.7-9,3.1.3,0,3.4-.9,5.1-.7,1.3-1.3,3.3-1.7,4.2.3.1.5.1.8.2.4-1.3,2-5.5,3.9-5.2,2.3.3,1.4,2-.3,3-1.2.8-2.7,1.8-3.4,2.3.6.1,1.2.2,1.8.1,1-.2,2.1,0,2.9.7h0Z"/>
  <path id="Path_1722" class="st1" d="M35,141.9c-.5-.8-2-2.8-4-2.5-2.2.3,2.4,1.7,3.8,2.6-.3,0-.5,0-.8-.1-.9-.3-2.5.3-3.1.5h8.8c0-.3-.3-.6-.6-.8,0-.1-.4-.1-.8-.1.5-.6.9-2.6-.6-2.1-1.1.4-1.1,1.6-1,2.3-.2,0-.5.1-.7.1-.4-2.3-2-8.8-5.1-9s2.7,6.8,4.6,9c0,.1-.4.1-.6.1h0Z"/>
  <path id="Path_1723" class="st15" d="M276.5,143H.4c-.2,0-.4-.2-.4-.4h0c0-.2.2-.4.4-.4h276.2c.2,0,.4.2.4.4h0c0,.2-.3.4-.5.4Z"/>
</svg>