<?xml version="1.0" encoding="UTF-8"?>
<svg id="Layer_1" xmlns="http://www.w3.org/2000/svg" version="1.1" xmlns:xlink="http://www.w3.org/1999/xlink" viewBox="0 0 122.3 122.3">
  <defs>
    <style>
      .st0 { fill: #fff; fill-rule: evenodd; }
      .st1 { fill: url(#linear-gradient); }
    </style>
    <linearGradient id="linear-gradient" x1="60.8" y1="117.4" x2="61.5" y2="12.9" gradientTransform="translate(0 124.8) scale(1 -1)" gradientUnits="userSpaceOnUse">
      <stop offset="0" stop-color="#57d163"/>
      <stop offset="1" stop-color="#23b33a"/>
    </linearGradient>
  </defs>
  <path class="st1" d="M61.2,0C27.4,0,0,27.4,0,61.1c0,11.5,3.2,22.8,9.3,32.5l1.5,2.3-6.2,22.6,23.1-6.1,2.2,1.3c9.4,5.6,20.1,8.5,31.1,8.5h0c33.7,0,61.1-27.4,61.2-61.1,0-16.2-6.4-31.8-17.9-43.3C93,6.4,77.4,0,61.2,0Z"/>
  <path class="st0" d="M42.8,30.4c-1.4-3.1-2.8-3.1-4.1-3.2h-3.5c-1.2,0-3.2.4-4.9,2.3s-6.4,6.3-6.4,15.3,6.6,17.8,7.5,19,12.7,20.4,31.4,27.8c15.5,6.1,18.7,4.9,22.1,4.6s10.9-4.4,12.4-8.7,1.5-8,1.1-8.7-1.7-1.2-3.5-2.1-10.9-5.4-12.6-6-2.9-.9-4.1.9-4.7,6-5.8,7.2-2.1,1.4-4,.5-7.8-2.9-14.8-9.1c-5.5-4.9-9.2-10.9-10.2-12.7s-.1-2.8.8-3.8c.8-.8,1.8-2.1,2.8-3.2s1.2-1.8,1.8-3.1.3-2.3-.2-3.2-4-10-5.7-13.6"/>
</svg>
